GeoramaCondensed-MediumItalic.ufo
<glyph name="exclam" format="2">
  <advance width="166.794"/>
  <unicode hex="0021"/>
  <outline>
    <contour>
      <point x="42.482" y="261.85" type="line"/>
      <point x="117.586" y="261.85" type="line"/>
      <point x="201.22899999999998" y="740.0" type="line"/>
      <point x="114.08500000000001" y="740.0" type="line"/>
    </contour>
    <contour>
      <point x="-2.1159999999999997" y="35.025999999999996" type="curve" smooth="yes"/>
      <point x="-2.686" y="8.135"/>
      <point x="8.590000000000002" y="-4.3"/>
      <point x="38.281" y="-4.3" type="curve" smooth="yes"/>
      <point x="84.753" y="-4.3"/>
      <point x="97.452" y="34.583"/>
      <point x="99.16199999999999" y="76.54599999999999" type="curve" smooth="yes"/>
      <point x="99.732" y="103.94999999999999"/>
      <point x="87.42999999999999" y="115.872"/>
      <point x="58.295" y="115.872" type="curve" smooth="yes"/>
      <point x="13.408000000000001" y="115.872"/>
      <point x="-0.4059999999999988" y="77.54799999999999"/>
    </contour>
  </outline>
</glyph>
<glyph name="numbersign" format="2">
  <advance width="394.878"/>
  <unicode hex="0023"/>
  <outline>
    <contour>
      <point x="82.824" y="444.45400000000006" type="line"/>
      <point x="136.85600000000002" y="444.45400000000006" type="line"/>
      <point x="84.846" y="251.403" type="line"/>
      <point x="33.043" y="251.403" type="line"/>
      <point x="20.041" y="172.701" type="line"/>
      <point x="67.00399999999999" y="172.701" type="line"/>
      <point x="22.056" y="0.0" type="line"/>
      <point x="89.783" y="0.0" type="line"/>
      <point x="134.161" y="172.701" type="line"/>
      <point x="198.16400000000002" y="172.701" type="line"/>
      <point x="153.786" y="0.0" type="line"/>
      <point x="220.613" y="0.0" type="line"/>
      <point x="264.991" y="172.701" type="line"/>
      <point x="323.606" y="172.701" type="line"/>
      <point x="336.05199999999996" y="251.403" type="line"/>
      <point x="282.976" y="251.403" type="line"/>
      <point x="334.84299999999996" y="444.45400000000006" type="line"/>
      <point x="385.833" y="444.45400000000006" type="line"/>
      <point x="398.766" y="523.844" type="line"/>
      <point x="352.74199999999996" y="523.844" type="line"/>
      <point x="398.651" y="700.0" type="line"/>
      <point x="331.437" y="700.0" type="line"/>
      <point x="285.528" y="523.844" type="line"/>
      <point x="221.525" y="523.844" type="line"/>
      <point x="267.43399999999997" y="700.0" type="line"/>
      <point x="200.607" y="700.0" type="line"/>
      <point x="154.698" y="523.844" type="line"/>
      <point x="95.714" y="523.844" type="line"/>
    </contour>
    <contour>
      <point x="203.683" y="444.45400000000006" type="line"/>
      <point x="267.686" y="444.45400000000006" type="line"/>
      <point x="216.063" y="251.403" type="line"/>
      <point x="152.06" y="251.403" type="line"/>
    </contour>
  </outline>
</glyph>
<glyph name="dollar" format="2">
  <advance width="394.878"/>
  <unicode hex="0024"/>
  <outline>
    <contour>
      <point x="391.02400000000006" y="684.2439999999999" type="line"/>
      <point x="372.655" y="694.3380000000001"/>
      <point x="341.82399999999996" y="704.772"/>
      <point x="303.84" y="708.409" type="curve"/>
      <point x="318.93999999999994" y="804.226" type="line"/>
      <point x="244.18" y="804.226" type="line"/>
      <point x="227.46300000000002" y="702.779" type="line"/>
      <point x="130.563" y="685.9730000000001"/>
      <point x="80.186" y="597.2180000000001"/>
      <point x="80.186" y="510.588" type="curve" smooth="yes"/>
      <point x="80.186" y="346.10400000000004"/>
      <point x="248.20999999999998" y="291.006"/>
      <point x="248.20999999999998" y="184.979" type="curve" smooth="yes"/>
      <point x="248.20999999999998" y="123.792"/>
      <point x="206.548" y="73.84100000000001"/>
      <point x="142.153" y="73.84100000000001" type="curve" smooth="yes"/>
      <point x="101.25699999999999" y="73.84100000000001"/>
      <point x="60.087" y="83.059"/>
      <point x="25.672" y="99.49000000000001" type="curve"/>
      <point x="-5.152" y="20.875" type="line"/>
      <point x="20.686999999999998" y="7.417999999999999"/>
      <point x="60.224000000000004" y="-4.901000000000001"/>
      <point x="100.433" y="-7.635" type="curve"/>
      <point x="85.433" y="-105.0" type="line"/>
      <point x="160.15" y="-105.0" type="line"/>
      <point x="175.15" y="-5.746" type="line"/>
      <point x="280.39000000000004" y="10.071000000000002"/>
      <point x="335.634" y="100.234"/>
      <point x="335.634" y="190.424" type="curve" smooth="yes"/>
      <point x="335.634" y="354.339"/>
      <point x="170.434" y="404.48299999999995"/>
      <point x="170.434" y="512.4440000000001" type="curve" smooth="yes"/>
      <point x="170.434" y="568.1360000000001"/>
      <point x="208.638" y="623.9169999999999"/>
      <point x="271.485" y="623.9169999999999" type="curve" smooth="yes"/>
      <point x="303.48" y="623.9169999999999"/>
      <point x="331.509" y="618.2339999999999"/>
      <point x="361.358" y="605.236" type="curve"/>
    </contour>
  </outline>
</glyph>
<glyph name="ampersand" format="2">
  <advance width="464.97400000000005"/>
  <unicode hex="0026"/>
  <outline>
    <contour>
      <point x="180.44099999999997" y="-10.0" type="curve" smooth="yes"/>
      <point x="317.242" y="-10.0"/>
      <point x="418.94300000000004" y="147.51600000000002"/>
      <point x="389.385" y="294.865" type="curve"/>
      <point x="319.269" y="290.78" type="line"/>
      <point x="352.53499999999997" y="186.626"/>
      <point x="272.113" y="69.54699999999998"/>
      <point x="193.11999999999998" y="69.54699999999998" type="curve" smooth="yes"/>
      <point x="128.531" y="69.54699999999998"/>
      <point x="96.076" y="110.32399999999998"/>
      <point x="96.076" y="177.006" type="curve" smooth="yes"/>
      <point x="96.076" y="290.051"/>
      <point x="169.177" y="378.144"/>
      <point x="264.61" y="378.144" type="curve" smooth="yes"/>
      <point x="279.628" y="378.144" type="line"/>
      <point x="293.766" y="439.989" type="line"/>
      <point x="280.69100000000003" y="441.709" type="line" smooth="yes"/>
      <point x="227.823" y="445.063"/>
      <point x="201.106" y="477.51700000000005"/>
      <point x="201.106" y="533.778" type="curve" smooth="yes"/>
      <point x="201.106" y="590.611"/>
      <point x="237.841" y="633.7339999999999"/>
      <point x="285.78999999999996" y="633.7339999999999" type="curve" smooth="yes"/>
      <point x="313.745" y="633.7339999999999"/>
      <point x="336.73299999999995" y="626.401"/>
      <point x="362.1859999999999" y="606.341" type="curve"/>
      <point x="401.901" y="673.397" type="line"/>
      <point x="365.804" y="697.215"/>
      <point x="326.915" y="710.0"/>
      <point x="279.274" y="710.0" type="curve" smooth="yes"/>
      <point x="181.893" y="710.0"/>
      <point x="119.312" y="633.217"/>
      <point x="119.312" y="543.244" type="curve" smooth="yes"/>
      <point x="119.312" y="483.063"/>
      <point x="144.011" y="439.89599999999996"/>
      <point x="190.34300000000002" y="414.74" type="curve"/>
      <point x="87.44299999999998" y="389.21999999999997"/>
      <point x="12.475999999999999" y="295.18100000000004"/>
      <point x="12.475999999999999" y="160.41099999999997" type="curve" smooth="yes"/>
      <point x="12.475999999999999" y="59.864"/>
      <point x="68.64699999999999" y="-10.0"/>
    </contour>
    <contour>
      <point x="264.0" y="239.25" type="line"/>
      <point x="267.29499999999996" y="265.707"/>
      <point x="279.729" y="280.234"/>
      <point x="303.265" y="280.234" type="curve" smooth="yes"/>
      <point x="337.217" y="280.234"/>
      <point x="363.016" y="271.274"/>
      <point x="398.589" y="271.274" type="curve" smooth="yes"/>
      <point x="449.015" y="271.274"/>
      <point x="481.988" y="317.019"/>
      <point x="477.70399999999995" y="368.262" type="curve"/>
      <point x="423.349" y="372.87899999999996" type="line"/>
      <point x="418.984" y="336.42400000000004"/>
      <point x="400.688" y="327.73300000000006"/>
      <point x="367.73799999999994" y="327.73300000000006" type="curve" smooth="yes"/>
      <point x="342.96000000000004" y="327.73300000000006"/>
      <point x="318.724" y="337.209"/>
      <point x="292.49199999999996" y="337.209" type="curve" smooth="yes"/>
      <point x="237.332" y="337.209"/>
      <point x="213.919" y="296.77900000000005"/>
      <point x="208.572" y="251.421" type="curve"/>
    </contour>
  </outline>
</glyph>
<glyph name="quotesingle" format="2">
  <advance width="152.09900000000002"/>
  <unicode hex="0027"/>
  <outline>
    <contour>
      <point x="63.68600000000001" y="427.0" type="line"/>
      <point x="134.392" y="427.0" type="line"/>
      <point x="183.972" y="700.0" type="line"/>
      <point x="102.127" y="700.0" type="line"/>
    </contour>
  </outline>
</glyph>
<glyph name="parenleft" format="2">
  <advance width="223.31900000000002"/>
  <unicode hex="0028"/>
  <outline>
    <contour>
      <point x="23.204" y="19.240000000000002" type="curve" smooth="yes"/>
      <point x="23.204" y="-110.628"/>
      <point x="55.929" y="-198.683"/>
      <point x="127.72200000000001" y="-220.0" type="curve"/>
      <point x="146.12900000000002" y="-142.74" type="line"/>
      <point x="114.16799999999999" y="-124.877"/>
      <point x="93.54899999999999" y="-68.459"/>
      <point x="93.54899999999999" y="25.816" type="curve" smooth="yes"/>
      <point x="93.54899999999999" y="182.827"/>
      <point x="166.475" y="631.103"/>
      <point x="274.172" y="670.344" type="curve"/>
      <point x="281.545" y="749.487" type="line"/>
      <point x="99.982" y="704.9419999999999"/>
      <point x="23.204" y="249.757"/>
    </contour>
  </outline>
</glyph>
<glyph name="parenright" format="2">
  <advance width="223.31900000000002"/>
  <unicode hex="0029"/>
  <outline>
    <contour>
      <point x="197.585" y="510.6460000000001" type="curve" smooth="yes"/>
      <point x="197.585" y="641.071"/>
      <point x="165.259" y="728.6830000000001"/>
      <point x="93.409" y="750.0" type="curve"/>
      <point x="76.028" y="670.872" type="line"/>
      <point x="109.58500000000001" y="649.8170000000001"/>
      <point x="127.24" y="596.591"/>
      <point x="127.24" y="510.524" type="curve" smooth="yes"/>
      <point x="127.24" y="348.782"/>
      <point x="54.199999999999996" y="-102.18599999999999"/>
      <point x="-54.01" y="-141.25600000000003" type="curve"/>
      <point x="-60.87" y="-220.0" type="line"/>
      <point x="117.558" y="-172.432"/>
      <point x="197.585" y="278.792"/>
    </contour>
  </outline>
</glyph>
<glyph name="asterisk" format="2">
  <advance width="261.418"/>
  <unicode hex="002A"/>
  <outline>
    <contour>
      <point x="95.71199999999999" y="399.15" type="line"/>
      <point x="163.33599999999998" y="481.898" type="line"/>
      <point x="203.486" y="399.663" type="line"/>
      <point x="242.58100000000002" y="425.889" type="line"/>
      <point x="210.44600000000003" y="517.877" type="line"/>
      <point x="297.429" y="560.572" type="line"/>
      <point x="290.304" y="604.0780000000001" type="line"/>
      <point x="204.085" y="573.998" type="line"/>
      <point x="216.54999999999998" y="682.057" type="line"/>
      <point x="173.131" y="682.057" type="line"/>
      <point x="150.948" y="574.511" type="line"/>
      <point x="75.20800000000001" y="604.591" type="line"/>
      <point x="54.336" y="561.598" type="line"/>
      <point x="125.587" y="518.9029999999999" type="line"/>
      <point x="64.193" y="426.003" type="line"/>
    </contour>
  </outline>
</glyph>
<glyph name="plus" format="2">
  <advance width="385.279"/>
  <unicode hex="002B"/>
  <outline>
    <contour>
      <point x="128.369" y="107.862" type="line"/>
      <point x="204.803" y="107.862" type="line"/>
      <point x="229.83399999999997" y="265.512" type="line"/>
      <point x="341.396" y="265.512" type="line"/>
      <point x="354.24300000000005" y="347.02" type="line"/>
      <point x="242.68099999999998" y="347.02" type="line"/>
      <point x="267.812" y="505.14" type="line"/>
      <point x="191.464" y="505.14" type="line"/>
      <point x="166.24699999999999" y="347.02" type="line"/>
      <point x="54.301" y="347.02" type="line"/>
      <point x="41.454" y="265.512" type="line"/>
      <point x="153.48600000000002" y="265.512" type="line"/>
    </contour>
  </outline>
</glyph>
<glyph name="comma" format="2">
  <advance width="147.908"/>
  <unicode hex="002C"/>
  <outline>
    <contour>
      <point x="0.28700000000000064" y="66.768" type="line"/>
      <point x="0.5980000000000001" y="45.575"/>
      <point x="-1.0079999999999996" y="25.704"/>
      <point x="-2.3409999999999984" y="12.968" type="curve" smooth="yes"/>
      <point x="-6.425999999999999" y="-46.998999999999995"/>
      <point x="-41.253" y="-129.853"/>
      <point x="-80.422" y="-169.053" type="curve"/>
      <point x="-23.080000000000002" y="-192.63799999999998" type="line"/>
      <point x="46.25" y="-128.739"/>
      <point x="81.01500000000001" y="-31.683"/>
      <point x="81.01500000000001" y="36.578" type="curve" smooth="yes"/>
      <point x="81.01500000000001" y="48.307"/>
      <point x="80.414" y="59.079"/>
      <point x="78.974" y="71.30199999999999" type="curve"/>
    </contour>
  </outline>
</glyph>
<glyph name="hyphen" format="2">
  <advance width="248.502"/>
  <unicode hex="002D"/>
  <outline>
    <contour>
      <point x="22.314999999999998" y="244.084" type="line"/>
      <point x="215.933" y="244.084" type="line"/>
      <point x="230.84099999999998" y="331.196" type="line"/>
      <point x="37.223" y="331.196" type="line"/>
    </contour>
  </outline>
</glyph>
<glyph name="period" format="2">
  <advance width="148.467"/>
  <unicode hex="002E"/>
  <outline>
    <contour>
      <point x="-10.848" y="36.187" type="curve" smooth="yes"/>
      <point x="-11.418000000000001" y="8.908999999999999"/>
      <point x="-0.5289999999999998" y="-3.139"/>
      <point x="29.549" y="-3.139" type="curve" smooth="yes"/>
      <point x="76.021" y="-3.139"/>
      <point x="88.333" y="35.744"/>
      <point x="90.04299999999999" y="78.481" type="curve" smooth="yes"/>
      <point x="90.61299999999999" y="105.49799999999999"/>
      <point x="78.69800000000001" y="117.033"/>
      <point x="49.562999999999995" y="117.033" type="curve" smooth="yes"/>
      <point x="4.289" y="117.033"/>
      <point x="-9.138" y="78.709"/>
    </contour>
  </outline>
</glyph>
<glyph name="slash" format="2">
  <advance width="290.72499999999997"/>
  <unicode hex="002F"/>
  <outline>
    <contour>
      <point x="-74.22699999999999" y="-210.0" type="line"/>
      <point x="-1.0019999999999998" y="-210.0" type="line"/>
      <point x="361.952" y="740.0" type="line"/>
      <point x="287.91" y="740.0" type="line"/>
    </contour>
  </outline>
</glyph>
<glyph name="zero" format="2">
  <advance width="395.13599999999997"/>
  <unicode hex="0030"/>
  <outline>
    <contour>
      <point x="158.23200000000003" y="-10.43" type="curve" smooth="yes"/>
      <point x="328.89199999999994" y="-10.43"/>
      <point x="398.425" y="307.651"/>
      <point x="398.425" y="523.275" type="curve" smooth="yes"/>
      <point x="398.425" y="654.628"/>
      <point x="355.77799999999996" y="710.215"/>
      <point x="260.638" y="710.215" type="curve" smooth="yes"/>
      <point x="88.029" y="710.215"/>
      <point x="20.244000000000003" y="392.377"/>
      <point x="20.244000000000003" y="178.043" type="curve" smooth="yes"/>
      <point x="20.244000000000003" y="46.905"/>
      <point x="63.12" y="-10.43"/>
    </contour>
    <contour>
      <point x="167.692" y="75.00500000000001" type="curve" smooth="yes"/>
      <point x="122.948" y="75.00500000000001"/>
      <point x="105.983" y="107.2"/>
      <point x="106.75399999999999" y="178.347" type="curve" smooth="yes"/>
      <point x="107.65100000000001" y="324.192"/>
      <point x="160.157" y="624.995"/>
      <point x="251.17799999999997" y="624.995" type="curve" smooth="yes"/>
      <point x="295.95" y="624.995"/>
      <point x="312.686" y="593.2580000000002"/>
      <point x="311.915" y="522.111" type="curve" smooth="yes"/>
      <point x="311.018" y="376.71000000000004"/>
      <point x="258.269" y="75.00500000000001"/>
    </contour>
  </outline>
</glyph>
<glyph name="one" format="2">
  <advance width="394.878"/>
  <unicode hex="0031"/>
  <outline>
    <contour>
      <point x="14.676" y="0.0" type="line"/>
      <point x="319.16700000000003" y="0.0" type="line"/>
      <point x="332.358" y="81.863" type="line"/>
      <point x="227.53900000000002" y="81.863" type="line"/>
      <point x="326.408" y="700.57" type="line"/>
      <point x="283.029" y="700.57" type="line"/>
      <point x="92.758" y="600.796" type="line"/>
      <point x="99.83600000000001" y="512.264" type="line"/>
      <point x="221.685" y="583.967" type="line"/>
      <point x="141.473" y="81.863" type="line"/>
      <point x="27.48" y="81.863" type="line"/>
    </contour>
  </outline>
</glyph>
<glyph name="two" format="2">
  <advance width="395.13599999999997"/>
  <unicode hex="0032"/>
  <outline>
    <contour>
      <point x="18.717999999999996" y="66.88" type="curve"/>
      <point x="10.8" y="0.0" type="line"/>
      <point x="308.90400000000005" y="0.0" type="line"/>
      <point x="321.10699999999997" y="75.54499999999999" type="line"/>
      <point x="121.922" y="75.54499999999999" type="line"/>
      <point x="281.408" y="303.813"/>
      <point x="367.084" y="442.678"/>
      <point x="367.084" y="572.7610000000001" type="curve" smooth="yes"/>
      <point x="367.084" y="657.4789999999999"/>
      <point x="322.50699999999995" y="710.0"/>
      <point x="249.00400000000002" y="710.0" type="curve" smooth="yes"/>
      <point x="192.931" y="710.0"/>
      <point x="139.694" y="689.9759999999999"/>
      <point x="96.01899999999999" y="652.9619999999999" type="curve"/>
      <point x="117.12899999999999" y="578.402" type="line"/>
      <point x="151.93200000000002" y="606.0169999999999"/>
      <point x="182.989" y="620.9380000000001"/>
      <point x="217.423" y="620.9380000000001" type="curve" smooth="yes"/>
      <point x="255.84599999999998" y="620.9380000000001"/>
      <point x="277.99399999999997" y="592.435"/>
      <point x="277.99399999999997" y="547.958" type="curve" smooth="yes"/>
      <point x="277.868" y="446.377"/>
      <point x="198.86899999999997" y="316.195"/>
    </contour>
  </outline>
</glyph>
<glyph name="three" format="2">
  <advance width="395.15"/>
  <unicode hex="0033"/>
  <outline>
    <contour>
      <point x="-11.760000000000002" y="38.3925" type="line"/>
      <point x="22.015" y="7.394999999999999"/>
      <point x="66.88000000000001" y="-10.0"/>
      <point x="127.8025" y="-10.0" type="curve" smooth="yes"/>
      <point x="239.96499999999997" y="-10.0"/>
      <point x="336.6325" y="83.595"/>
      <point x="336.6325" y="239.10750000000002" type="curve" smooth="yes"/>
      <point x="336.6325" y="316.6325"/>
      <point x="305.9725" y="355.5525"/>
      <point x="269.72499999999997" y="370.57" type="curve"/>
      <point x="326.22249999999997" y="401.2875"/>
      <point x="371.7175" y="469.145"/>
      <point x="371.7175" y="566.3675" type="curve" smooth="yes"/>
      <point x="371.7175" y="655.72"/>
      <point x="323.43750000000006" y="710.0"/>
      <point x="236.3425" y="710.0" type="curve" smooth="yes"/>
      <point x="186.855" y="710.0"/>
      <point x="133.39000000000001" y="693.7025"/>
      <point x="95.965" y="665.4975" type="curve"/>
      <point x="114.7425" y="594.1325" type="line"/>
      <point x="140.6925" y="611.4775"/>
      <point x="171.62" y="621.2325"/>
      <point x="206.2075" y="621.2325" type="curve" smooth="yes"/>
      <point x="253.2525" y="621.2325"/>
      <point x="282.52" y="585.7800000000001"/>
      <point x="282.52" y="532.1525" type="curve" smooth="yes"/>
      <point x="282.52" y="462.08"/>
      <point x="242.16500000000002" y="396.92"/>
      <point x="185.3925" y="396.92" type="curve" smooth="yes"/>
      <point x="133.22500000000002" y="396.92" type="line"/>
      <point x="121.51750000000001" y="326.89" type="line"/>
      <point x="182.725" y="326.89" type="line" smooth="yes"/>
      <point x="228.9325" y="326.89"/>
      <point x="252.09749999999997" y="295.195"/>
      <point x="252.09749999999997" y="239.66250000000002" type="curve" smooth="yes"/>
      <point x="252.09749999999997" y="144.76000000000002"/>
      <point x="204.64499999999998" y="76.4025"/>
      <point x="129.62499999999997" y="76.4025" type="curve" smooth="yes"/>
      <point x="88.86000000000001" y="76.4025"/>
      <point x="57.86749999999999" y="87.39249999999998"/>
      <point x="30.187499999999996" y="110.2325" type="curve"/>
    </contour>
  </outline>
</glyph>
<glyph name="four" format="2">
  <advance width="395.15"/>
  <unicode hex="0034"/>
  <outline>
    <contour>
      <point x="8.895" y="145.19750000000002" type="line"/>
      <point x="196.4225" y="145.19750000000002" type="line"/>
      <point x="173.55499999999998" y="-0.32" type="line"/>
      <point x="262.9675" y="-0.32" type="line"/>
      <point x="285.80000000000007" y="145.19750000000002" type="line"/>
      <point x="351.355" y="145.19750000000002" type="line"/>
      <point x="363.17" y="221.42" type="line"/>
      <point x="298.15250000000003" y="221.42" type="line"/>
      <point x="374.365" y="699.2524999999999" type="line"/>
      <point x="283.67749999999995" y="702.28" type="line"/>
      <point x="17.325000000000003" y="217.8825" type="line"/>
    </contour>
    <contour>
      <point x="82.3625" y="221.42" type="line"/>
      <point x="266.49249999999995" y="558.82" type="line"/>
      <point x="211.785" y="221.42" type="line"/>
    </contour>
  </outline>
</glyph>
<glyph name="five" format="2">
  <advance width="395.13599999999997"/>
  <unicode hex="0035"/>
  <outline>
    <contour>
      <point x="-3.9479999999999995" y="37.503499999999995" type="line"/>
      <point x="28.193999999999996" y="6.205000000000001"/>
      <point x="69.0505" y="-10.0"/>
      <point x="127.71650000000001" y="-10.0" type="curve" smooth="yes"/>
      <point x="287.06649999999996" y="-10.0"/>
      <point x="345.5235" y="144.4925"/>
      <point x="345.5235" y="263.7495" type="curve" smooth="yes"/>
      <point x="345.5235" y="355.958"/>
      <point x="305.45649999999995" y="402.911"/>
      <point x="229.32450000000003" y="404.846" type="curve" smooth="yes"/>
      <point x="165.2875" y="405.491" type="line"/>
      <point x="211.195" y="613.0415" type="line"/>
      <point x="379.54499999999996" y="613.0415" type="line"/>
      <point x="392.77149999999995" y="700.0" type="line"/>
      <point x="156.44799999999998" y="700.0" type="line"/>
      <point x="72.12700000000001" y="337.90349999999995" type="line"/>
      <point x="79.379" y="326.2724999999999" type="line"/>
      <point x="179.291" y="326.2724999999999" type="line" smooth="yes"/>
      <point x="234.317" y="326.2724999999999"/>
      <point x="255.43800000000002" y="296.7845"/>
      <point x="255.43800000000002" y="240.9275" type="curve" smooth="yes"/>
      <point x="255.43800000000002" y="179.942"/>
      <point x="224.01500000000001" y="76.50999999999999"/>
      <point x="127.84650000000002" y="76.50999999999999" type="curve" smooth="yes"/>
      <point x="83.3375" y="76.50999999999999"/>
      <point x="52.851" y="93.752"/>
      <point x="30.813000000000002" y="112.90500000000002" type="curve"/>
    </contour>
  </outline>
</glyph>
<glyph name="six" format="2">
  <advance width="395.15000000000003"/>
  <unicode hex="0036"/>
  <note>
14
</note>
  <outline>
    <contour>
      <point x="171.945" y="-10.0" type="curve" smooth="yes"/>
      <point x="284.935" y="-10.0"/>
      <point x="362.69" y="108.55"/>
      <point x="362.69" y="283.395" type="curve" smooth="yes"/>
      <point x="362.69" y="382.235"/>
      <point x="313.29499999999996" y="428.88"/>
      <point x="243.51" y="428.88" type="curve" smooth="yes"/>
      <point x="194.73499999999999" y="428.88"/>
      <point x="150.43" y="406.835"/>
      <point x="114.32" y="354.97" type="curve"/>
      <point x="106.345" y="254.595" type="line"/>
      <point x="131.325" y="313.455"/>
      <point x="170.905" y="353.12"/>
      <point x="213.3" y="353.12" type="curve" smooth="yes"/>
      <point x="257.575" y="353.12"/>
      <point x="277.15" y="322.125"/>
      <point x="277.15" y="262.37" type="curve" smooth="yes"/>
      <point x="277.15" y="161.855"/>
      <point x="233.385" y="69.525"/>
      <point x="177.42499999999998" y="69.525" type="curve" smooth="yes"/>
      <point x="133.23499999999999" y="69.525"/>
      <point x="109.195" y="103.61"/>
      <point x="109.195" y="170.44" type="curve" smooth="yes"/>
      <point x="109.195" y="281.01"/>
      <point x="132.1" y="394.035"/>
      <point x="169.67499999999998" y="496.54" type="curve" smooth="yes"/>
      <point x="199.83" y="577.795"/>
      <point x="242.63" y="626.2850000000001"/>
      <point x="306.365" y="626.2850000000001" type="curve" smooth="yes"/>
      <point x="334.36" y="626.2850000000001"/>
      <point x="359.47" y="616.495"/>
      <point x="383.42499999999995" y="601.755" type="curve"/>
      <point x="420.08" y="675.735" type="line"/>
      <point x="394.38" y="694.8"/>
      <point x="354.12" y="710.0"/>
      <point x="304.255" y="710.0" type="curve" smooth="yes"/>
      <point x="126.48999999999998" y="710.0"/>
      <point x="25.910000000000004" y="460.21999999999997"/>
      <point x="25.910000000000004" y="177.37" type="curve" smooth="yes"/>
      <point x="25.910000000000004" y="46.504999999999995"/>
      <point x="77.345" y="-10.0"/>
    </contour>
  </outline>
</glyph>
<glyph name="seven" format="2">
  <advance width="394.878"/>
  <unicode hex="0037"/>
  <note>
9
</note>
  <outline>
    <contour>
      <point x="67.909" y="0.0" type="curve"/>
      <point x="158.86100000000002" y="0.0" type="line"/>
      <point x="179.123" y="118.32900000000001"/>
      <point x="208.936" y="215.91100000000003"/>
      <point x="294.56300000000005" y="397.35299999999995" type="curve" smooth="yes"/>
      <point x="405.98699999999997" y="633.235" type="line"/>
      <point x="416.684" y="700.0" type="line"/>
      <point x="99.837" y="700.0" type="line"/>
      <point x="86.25900000000001" y="613.909" type="line"/>
      <point x="309.05100000000004" y="613.909" type="line"/>
      <point x="209.186" y="412.385" type="line" smooth="yes"/>
      <point x="129.202" y="251.411"/>
      <point x="90.16499999999999" y="139.18499999999997"/>
    </contour>
  </outline>
</glyph>
<glyph name="eight" format="2">
  <advance width="395.15000000000003"/>
  <unicode hex="0038"/>
  <outline>
    <contour>
      <point x="169.41500000000002" y="-10.0" type="curve" smooth="yes"/>
      <point x="287.60499999999996" y="-10.0"/>
      <point x="356.67499999999995" y="70.0"/>
      <point x="356.67499999999995" y="198.815" type="curve" smooth="yes"/>
      <point x="356.67499999999995" y="380.79499999999996"/>
      <point x="160.51" y="392.37"/>
      <point x="160.51" y="535.52" type="curve" smooth="yes"/>
      <point x="160.51" y="590.3499999999999"/>
      <point x="189.84" y="630.37"/>
      <point x="246.375" y="630.37" type="curve" smooth="yes"/>
      <point x="295.09999999999997" y="630.37"/>
      <point x="313.17" y="599.12"/>
      <point x="313.17" y="551.9300000000001" type="curve" smooth="yes"/>
      <point x="313.17" y="480.94"/>
      <point x="276.965" y="432.49499999999995"/>
      <point x="222.135" y="396.69" type="curve"/>
      <point x="269.75" y="353.295" type="line"/>
      <point x="344.43" y="400.14000000000004"/>
      <point x="394.52" y="471.60999999999996"/>
      <point x="394.52" y="570.205" type="curve" smooth="yes"/>
      <point x="394.52" y="648.39"/>
      <point x="352.71000000000004" y="710.0"/>
      <point x="249.275" y="710.0" type="curve" smooth="yes"/>
      <point x="135.13" y="710.0"/>
      <point x="75.28999999999999" y="631.995"/>
      <point x="75.28999999999999" y="523.965" type="curve" smooth="yes"/>
      <point x="75.28999999999999" y="331.41"/>
      <point x="270.165" y="335.955"/>
      <point x="270.165" y="183.52" type="curve" smooth="yes"/>
      <point x="270.165" y="112.72"/>
      <point x="234.65" y="66.61999999999999"/>
      <point x="175.145" y="66.61999999999999" type="curve" smooth="yes"/>
      <point x="119.065" y="66.61999999999999"/>
      <point x="92.64" y="98.83"/>
      <point x="92.64" y="154.685" type="curve" smooth="yes"/>
      <point x="92.64" y="237.08"/>
      <point x="131.08" y="298.67999999999995"/>
      <point x="195.765" y="330.59" type="curve"/>
      <point x="145.43" y="378.815" type="line"/>
      <point x="56.53" y="337.215"/>
      <point x="5.165" y="244.44"/>
      <point x="5.165" y="142.16" type="curve" smooth="yes"/>
      <point x="5.165" y="50.644999999999996"/>
      <point x="52.714999999999996" y="-10.0"/>
    </contour>
  </outline>
</glyph>
<glyph name="nine" format="2">
  <advance width="395.15000000000003"/>
  <unicode hex="0039"/>
  <outline>
    <contour>
      <point x="247.785" y="710.0" type="curve" smooth="yes"/>
      <point x="134.79500000000002" y="710.0"/>
      <point x="56.395" y="591.4499999999999"/>
      <point x="56.395" y="416.605" type="curve" smooth="yes"/>
      <point x="56.395" y="317.765"/>
      <point x="103.85499999999999" y="271.765"/>
      <point x="172.995" y="271.765" type="curve" smooth="yes"/>
      <point x="222.41500000000002" y="271.765"/>
      <point x="269.3" y="291.22999999999996"/>
      <point x="304.765" y="351.48" type="curve"/>
      <point x="312.73999999999995" y="446.05" type="line"/>
      <point x="288.40500000000003" y="387.19"/>
      <point x="248.18" y="347.525"/>
      <point x="205.785" y="347.525" type="curve" smooth="yes"/>
      <point x="162.155" y="347.525"/>
      <point x="142.58" y="377.875"/>
      <point x="142.58" y="437.63" type="curve" smooth="yes"/>
      <point x="142.58" y="538.79"/>
      <point x="186.345" y="630.475"/>
      <point x="241.66" y="630.475" type="curve" smooth="yes"/>
      <point x="285.205" y="630.475"/>
      <point x="309.89000000000004" y="596.39"/>
      <point x="309.89000000000004" y="530.205" type="curve" smooth="yes"/>
      <point x="309.89000000000004" y="425.44"/>
      <point x="288.27500000000003" y="305.965"/>
      <point x="250.05499999999998" y="202.815" type="curve" smooth="yes"/>
      <point x="220.545" y="121.56"/>
      <point x="178.39000000000001" y="73.07000000000001"/>
      <point x="116.47" y="73.07000000000001" type="curve" smooth="yes"/>
      <point x="89.12" y="73.07000000000001"/>
      <point x="60.364999999999995" y="83.4"/>
      <point x="35.66" y="103.16499999999999" type="curve"/>
      <point x="-0.9949999999999993" y="28.54" type="line"/>
      <point x="26.1" y="5.095000000000001"/>
      <point x="69.36" y="-10.0"/>
      <point x="120.515" y="-10.0" type="curve" smooth="yes"/>
      <point x="292.17499999999995" y="-10.0"/>
      <point x="393.175" y="239.78000000000003"/>
      <point x="393.175" y="523.275" type="curve" smooth="yes"/>
      <point x="393.175" y="654.14"/>
      <point x="341.74" y="710.0"/>
    </contour>
  </outline>
</glyph>
<glyph name="less" format="2">
  <advance width="383.914"/>
  <unicode hex="003C"/>
  <outline>
    <contour>
      <point x="320.42699999999996" y="92.289" type="line"/>
      <point x="332.113" y="168.885" type="line"/>
      <point x="114.625" y="299.14799999999997" type="line"/>
      <point x="373.9320000000001" y="430.268" type="line"/>
      <point x="385.618" y="507.646" type="line"/>
      <point x="45.652" y="342.461" type="line"/>
      <point x="32.249" y="258.403" type="line"/>
    </contour>
  </outline>
</glyph>
<glyph name="equal" format="2">
  <advance width="369.5810000000001"/>
  <unicode hex="003D"/>
  <outline>
    <contour>
      <point x="319.495" y="233.722" type="line"/>
      <point x="37.355" y="233.722" type="line"/>
      <point x="25.282" y="151.701" type="line"/>
      <point x="307.422" y="151.701" type="line"/>
    </contour>
    <contour>
      <point x="351.49500000000006" y="448.735" type="line"/>
      <point x="69.69900000000001" y="448.735" type="line"/>
      <point x="57.282" y="366.714" type="line"/>
      <point x="339.422" y="366.714" type="line"/>
    </contour>
  </outline>
</glyph>
<glyph name="greater" format="2">
  <advance width="383.914"/>
  <unicode hex="003E"/>
  <outline>
    <contour>
      <point x="346.47" y="256.864" type="line"/>
      <point x="359.787" y="340.277" type="line"/>
      <point x="71.56899999999999" y="506.19" type="line"/>
      <point x="59.797000000000004" y="430.325" type="line"/>
      <point x="278.22799999999995" y="299.66099999999994" type="line"/>
      <point x="18.576999999999998" y="169.455" type="line"/>
      <point x="6.335" y="91.263" type="line"/>
    </contour>
  </outline>
</glyph>
<glyph name="question" format="2">
  <advance width="315.855"/>
  <unicode hex="003F"/>
  <outline>
    <contour>
      <point x="100.885" y="262.109" type="line"/>
      <point x="175.94600000000003" y="262.109" type="line"/>
      <point x="187.80300000000003" y="335.598" type="line"/>
      <point x="279.324" y="406.836"/>
      <point x="348.119" y="475.681"/>
      <point x="348.119" y="604.8839999999999" type="curve" smooth="yes"/>
      <point x="348.119" y="697.735"/>
      <point x="296.27799999999996" y="750.0"/>
      <point x="217.61499999999998" y="750.0" type="curve" smooth="yes"/>
      <point x="170.207" y="750.0"/>
      <point x="116.34" y="728.931"/>
      <point x="75.112" y="693.355" type="curve"/>
      <point x="94.91999999999999" y="614.4939999999999" type="line"/>
      <point x="129.277" y="642.386"/>
      <point x="160.012" y="656.9390000000001"/>
      <point x="192.341" y="656.9390000000001" type="curve" smooth="yes"/>
      <point x="227.993" y="656.9390000000001"/>
      <point x="255.905" y="637.488"/>
      <point x="255.905" y="581.388" type="curve" smooth="yes"/>
      <point x="255.905" y="493.962"/>
      <point x="212.24699999999999" y="440.314"/>
      <point x="117.408" y="377.419" type="curve"/>
    </contour>
    <contour>
      <point x="56.35300000000001" y="34.511" type="curve" smooth="yes"/>
      <point x="56.269999999999996" y="7.3180000000000005"/>
      <point x="66.729" y="-4.3"/>
      <point x="95.976" y="-4.3" type="curve" smooth="yes"/>
      <point x="142.76399999999998" y="-4.3"/>
      <point x="157.03799999999998" y="33.035"/>
      <point x="157.287" y="75.84300000000002" type="curve" smooth="yes"/>
      <point x="157.37" y="103.94999999999999"/>
      <point x="145.842" y="115.44200000000001"/>
      <point x="117.581" y="115.44200000000001" type="curve" smooth="yes"/>
      <point x="71.647" y="115.44200000000001"/>
      <point x="56.602000000000004" y="77.978"/>
    </contour>
  </outline>
</glyph>
<glyph name="at" format="2">
  <advance width="596.985"/>
  <unicode hex="0040"/>
  <outline>
    <contour>
      <point x="239.8" y="-123.465" type="curve" smooth="yes"/>
      <point x="291.175" y="-123.465"/>
      <point x="351.15" y="-102.945"/>
      <point x="389.91499999999996" y="-65.595" type="curve"/>
      <point x="374.91" y="-31.075" type="line"/>
      <point x="336.485" y="-62.57"/>
      <point x="290.46999999999997" y="-79.48"/>
      <point x="241.62" y="-79.48" type="curve" smooth="yes"/>
      <point x="133.48" y="-79.48"/>
      <point x="61.29" y="-10.98"/>
      <point x="61.29" y="143.855" type="curve" smooth="yes"/>
      <point x="61.29" y="405.40000000000003"/>
      <point x="187.13500000000002" y="668.12"/>
      <point x="374.37" y="668.12" type="curve" smooth="yes"/>
      <point x="487.81500000000005" y="668.12"/>
      <point x="550.3599999999999" y="610.77"/>
      <point x="550.3599999999999" y="468.17" type="curve" smooth="yes"/>
      <point x="550.3599999999999" y="322.04"/>
      <point x="500.6649999999999" y="115.83500000000001"/>
      <point x="430.885" y="115.83500000000001" type="curve" smooth="yes"/>
      <point x="391.87" y="115.83500000000001"/>
      <point x="395.09499999999997" y="170.48999999999998"/>
      <point x="405.495" y="214.79000000000002" type="curve" smooth="yes"/>
      <point x="477.96000000000004" y="522.9" type="line"/>
      <point x="439.215" y="541.3149999999999"/>
      <point x="402.16" y="550.94"/>
      <point x="358.45" y="550.94" type="curve" smooth="yes"/>
      <point x="226.48" y="550.94"/>
      <point x="141.20499999999998" y="322.275"/>
      <point x="141.20499999999998" y="159.63500000000002" type="curve" smooth="yes"/>
      <point x="141.20499999999998" y="91.795"/>
      <point x="171.27" y="58.695"/>
      <point x="219.995" y="58.695" type="curve" smooth="yes"/>
      <point x="264.2" y="58.695"/>
      <point x="304.135" y="89.2"/>
      <point x="334.08000000000004" y="141.48499999999999" type="curve"/>
      <point x="342.26" y="104.02"/>
      <point x="355.69500000000005" y="56.510000000000005"/>
      <point x="414.71999999999997" y="56.510000000000005" type="curve" smooth="yes"/>
      <point x="527.69" y="56.510000000000005"/>
      <point x="597.2800000000001" y="292.06"/>
      <point x="597.2800000000001" y="477.075" type="curve" smooth="yes"/>
      <point x="597.2800000000001" y="633.8"/>
      <point x="510.45" y="712.28"/>
      <point x="382.645" y="712.28" type="curve" smooth="yes"/>
      <point x="158.07" y="712.28"/>
      <point x="13.545" y="437.205"/>
      <point x="13.545" y="132.16" type="curve" smooth="yes"/>
      <point x="13.545" y="-31.65"/>
      <point x="95.785" y="-123.465"/>
    </contour>
    <contour>
      <point x="259.36499999999995" y="138.82999999999998" type="curve" smooth="yes"/>
      <point x="238.42000000000002" y="138.82999999999998"/>
      <point x="226.96499999999997" y="154.92000000000002"/>
      <point x="226.96499999999997" y="185.38" type="curve" smooth="yes"/>
      <point x="226.96499999999997" y="295.65500000000003"/>
      <point x="296.83" y="485.24"/>
      <point x="351.60999999999996" y="485.24" type="curve" smooth="yes"/>
      <point x="365.635" y="485.24"/>
      <point x="378.685" y="482.635"/>
      <point x="391.81" y="476.675" type="curve"/>
      <point x="333.43" y="230.85" type="line" smooth="yes"/>
      <point x="316.455" y="173.045"/>
      <point x="285.54" y="138.82999999999998"/>
    </contour>
  </outline>
</glyph>
<glyph name="A" format="2">
  <advance width="397.66749999999996"/>
  <unicode hex="0041"/>
  <anchor x="153.67749999999998" y="0.0" name="bottom"/>
  <anchor x="341.6925" y="0.0" name="ogonek"/>
  <anchor x="261.20500000000004" y="700.0" name="top"/>
  <outline>
    <contour>
      <point x="-32.025000000000006" y="0.0" type="line"/>
      <point x="58.7475" y="0.0" type="line"/>
      <point x="114.385" y="167.3575" type="line"/>
      <point x="247.36749999999998" y="167.3575" type="line"/>
      <point x="250.31000000000003" y="0.0" type="line"/>
      <point x="341.6925" y="0.0" type="line"/>
      <point x="324.595" y="706.13" type="line"/>
      <point x="201.24" y="706.13" type="line"/>
    </contour>
    <contour>
      <point x="136.82999999999998" y="248.385" type="line"/>
      <point x="249.26000000000002" y="614.7" type="line"/>
      <point x="251.13250000000005" y="248.385" type="line"/>
    </contour>
  </outline>
</glyph>
<glyph name="B" format="2">
  <advance width="386.66499999999996"/>
  <unicode hex="0042"/>
  <outline>
    <contour>
      <point x="-1.7169999999999979" y="-0.6430000000000005" type="line"/>
      <point x="57.251999999999995" y="-7.525"/>
      <point x="87.261" y="-10.0"/>
      <point x="138.144" y="-10.0" type="curve" smooth="yes"/>
      <point x="288.907" y="-10.0"/>
      <point x="359.127" y="116.68500000000002"/>
      <point x="359.127" y="244.23399999999998" type="curve" smooth="yes"/>
      <point x="359.127" y="311.06"/>
      <point x="332.132" y="354.48699999999997"/>
      <point x="290.89599999999996" y="370.686" type="curve"/>
      <point x="359.02699999999993" y="404.802"/>
      <point x="393.032" y="499.237"/>
      <point x="393.032" y="578.03" type="curve" smooth="yes"/>
      <point x="393.032" y="662.303"/>
      <point x="347.778" y="710.0"/>
      <point x="244.81100000000004" y="710.0" type="curve" smooth="yes"/>
      <point x="215.495" y="710.0"/>
      <point x="170.83700000000002" y="707.413"/>
      <point x="108.69300000000001" y="699.617" type="curve"/>
    </contour>
    <contour>
      <point x="146.588" y="391.04200000000003" type="line"/>
      <point x="183.55700000000002" y="627.001" type="line"/>
      <point x="203.665" y="629.842"/>
      <point x="220.137" y="631.671"/>
      <point x="238.463" y="631.671" type="curve" smooth="yes"/>
      <point x="286.59700000000004" y="631.671"/>
      <point x="309.604" y="610.496"/>
      <point x="309.604" y="553.96" type="curve" smooth="yes"/>
      <point x="309.604" y="475.84499999999997"/>
      <point x="267.46000000000004" y="391.04200000000003"/>
      <point x="209.18900000000002" y="391.04200000000003" type="curve" smooth="yes"/>
    </contour>
    <contour>
      <point x="134.64399999999998" y="316.07000000000005" type="line"/>
      <point x="205.87300000000002" y="316.07000000000005" type="line" smooth="yes"/>
      <point x="243.638" y="316.07000000000005"/>
      <point x="272.746" y="288.62100000000004"/>
      <point x="272.746" y="233.40800000000002" type="curve" smooth="yes"/>
      <point x="272.746" y="144.219"/>
      <point x="231.678" y="68.59800000000001"/>
      <point x="149.921" y="68.59800000000001" type="curve" smooth="yes"/>
      <point x="132.59500000000003" y="68.59800000000001"/>
      <point x="116.94999999999999" y="69.653"/>
      <point x="95.834" y="72.28200000000001" type="curve"/>
    </contour>
  </outline>
</glyph>
<glyph name="C" format="2">
  <advance width="352.23699999999997"/>
  <unicode hex="0043"/>
  <anchor x="187.17950000000002" y="0.0" name="bottom"/>
  <anchor x="290.9715" y="700.0" name="top"/>
  <outline>
    <contour>
      <point x="206.00100000000003" y="-10.0" type="curve" smooth="yes"/>
      <point x="243.83350000000002" y="-10.0"/>
      <point x="275.03049999999996" y="-5.728999999999999"/>
      <point x="302.6395" y="3.9770000000000003" type="curve"/>
      <point x="297.303" y="81.39199999999998" type="line"/>
      <point x="275.83549999999997" y="75.49499999999999"/>
      <point x="250.49450000000002" y="71.67250000000001"/>
      <point x="224.7665" y="71.67250000000001" type="curve" smooth="yes"/>
      <point x="152.19" y="71.67250000000001"/>
      <point x="115.06499999999998" y="109.74400000000001"/>
      <point x="115.06499999999998" y="213.292" type="curve" smooth="yes"/>
      <point x="115.06499999999998" y="441.80750000000006"/>
      <point x="186.78500000000005" y="628.3275"/>
      <point x="296.959" y="628.3275" type="curve" smooth="yes"/>
      <point x="323.3795" y="628.3275"/>
      <point x="346.6925" y="623.8974999999999"/>
      <point x="373.8275" y="614.9535" type="curve"/>
      <point x="400.2710000000001" y="689.2835000000001" type="line"/>
      <point x="370.30249999999995" y="703.635"/>
      <point x="333.04799999999994" y="710.0"/>
      <point x="293.52299999999997" y="710.0" type="curve" smooth="yes"/>
      <point x="131.64499999999998" y="710.0"/>
      <point x="26.619999999999997" y="501.53999999999996"/>
      <point x="26.619999999999997" y="199.29850000000002" type="curve" smooth="yes"/>
      <point x="26.619999999999997" y="55.230500000000006"/>
      <point x="87.427" y="-10.0"/>
    </contour>
  </outline>
</glyph>
<glyph name="D" format="2">
  <advance width="413.1885"/>
  <unicode hex="0044"/>
  <anchor x="151.97850000000003" y="0.0" name="bottom"/>
  <anchor x="215.79397749999995" y="350.0" name="center"/>
  <anchor x="247.0385" y="700.0" name="top"/>
  <outline>
    <contour>
      <point x="130.2605" y="-10.0" type="curve" smooth="yes"/>
      <point x="305.289" y="-10.0"/>
      <point x="406.45650000000006" y="188.51300000000003"/>
      <point x="406.45650000000006" y="466.1915000000001" type="curve" smooth="yes"/>
      <point x="406.45650000000006" y="638.4245000000001"/>
      <point x="344.034" y="710.0"/>
      <point x="222.42200000000003" y="710.0" type="curve" smooth="yes"/>
      <point x="185.05499999999998" y="710.0"/>
      <point x="151.6785" y="707.8969999999999"/>
      <point x="108.62850000000002" y="702.7094999999998" type="curve"/>
      <point x="-2.7125" y="-1.0785000000000005" type="line"/>
      <point x="39.178" y="-7.065"/>
      <point x="78.73349999999999" y="-10.0"/>
    </contour>
    <contour>
      <point x="141.5945" y="66.153" type="curve" smooth="yes"/>
      <point x="123.3995" y="66.153"/>
      <point x="110.98949999999999" y="67.38199999999999"/>
      <point x="94.62650000000001" y="69.1295" type="curve"/>
      <point x="183.342" y="626.9725" type="line"/>
      <point x="196.46250000000003" y="628.2575"/>
      <point x="211.19950000000003" y="629.0799999999999"/>
      <point x="226.3995" y="629.0799999999999" type="curve" smooth="yes"/>
      <point x="286.29150000000004" y="629.0799999999999"/>
      <point x="319.61" y="584.293"/>
      <point x="319.61" y="465.2665" type="curve" smooth="yes"/>
      <point x="319.61" y="255.8195"/>
      <point x="241.7085" y="66.153"/>
    </contour>
  </outline>
</glyph>
<glyph name="E" format="2">
  <advance width="339.69649999999996"/>
  <unicode hex="0045"/>
  <anchor x="141.382" y="0.0" name="bottom"/>
  <anchor x="280.907" y="0.0" name="ogonek"/>
  <anchor x="246.915" y="700.0" name="top"/>
  <anchor x="87.6989425" y="700.0" name="topleft"/>
  <outline>
    <contour>
      <point x="-2.2639999999999993" y="0.0" type="line"/>
      <point x="280.907" y="0.0" type="line"/>
      <point x="294.01199999999994" y="81.88749999999999" type="line"/>
      <point x="96.706" y="81.88749999999999" type="line"/>
      <point x="133.74450000000002" y="318.16" type="line"/>
      <point x="301.5545" y="318.16" type="line"/>
      <point x="314.87449999999995" y="396.82249999999993" type="line"/>
      <point x="146.51299999999998" y="396.82249999999993" type="line"/>
      <point x="181.155" y="616.5" type="line"/>
      <point x="367.48900000000003" y="616.5" type="line"/>
      <point x="381.6875" y="700.0" type="line"/>
      <point x="107.965" y="700.0" type="line"/>
    </contour>
  </outline>
</glyph>
<glyph name="F" format="2">
  <advance width="323.655"/>
  <unicode hex="0046"/>
  <outline>
    <contour>
      <point x="-2.478999999999999" y="0.0" type="line"/>
      <point x="83.389" y="0.0" type="line"/>
      <point x="129.702" y="288.382" type="line"/>
      <point x="283.03000000000003" y="288.382" type="line"/>
      <point x="296.293" y="372.226" type="line"/>
      <point x="142.664" y="372.226" type="line"/>
      <point x="181.112" y="616.1560000000001" type="line"/>
      <point x="366.669" y="616.1560000000001" type="line"/>
      <point x="380.505" y="700.0" type="line"/>
      <point x="108.18" y="700.0" type="line"/>
    </contour>
  </outline>
</glyph>
<glyph name="G" format="2">
  <advance width="384.21"/>
  <unicode hex="0047"/>
  <anchor x="192.495" y="0.0" name="bottom"/>
  <anchor x="292.17699999999996" y="700.0" name="top"/>
  <outline>
    <contour>
      <point x="199.55200000000002" y="-10.0" type="curve" smooth="yes"/>
      <point x="241.19400000000002" y="-10.0"/>
      <point x="284.75800000000004" y="-1.433"/>
      <point x="313.262" y="15.528999999999998" type="curve"/>
      <point x="369.574" y="370.529" type="line"/>
      <point x="214.73300000000003" y="370.529" type="line"/>
      <point x="203.21900000000002" y="297.22" type="line"/>
      <point x="280.62300000000005" y="297.22" type="line"/>
      <point x="245.049" y="74.06" type="line"/>
      <point x="235.02" y="69.892"/>
      <point x="218.08900000000003" y="67.351"/>
      <point x="201.362" y="67.351" type="curve" smooth="yes"/>
      <point x="142.65" y="67.351"/>
      <point x="110.536" y="104.20100000000001"/>
      <point x="110.536" y="204.348" type="curve" smooth="yes"/>
      <point x="110.536" y="431.593"/>
      <point x="182.66899999999998" y="628.435"/>
      <point x="295.054" y="628.435" type="curve" smooth="yes"/>
      <point x="327.575" y="628.435"/>
      <point x="354.403" y="620.9520000000001"/>
      <point x="381.55299999999994" y="612.51" type="curve"/>
      <point x="408.577" y="689.1480000000001" type="line"/>
      <point x="376.067" y="702.9399999999999"/>
      <point x="335.74699999999996" y="710.0"/>
      <point x="294.241" y="710.0" type="curve" smooth="yes"/>
      <point x="114.07300000000001" y="710.0"/>
      <point x="25.789" y="463.196"/>
      <point x="25.789" y="199.035" type="curve" smooth="yes"/>
      <point x="25.789" y="57.09"/>
      <point x="88.594" y="-10.0"/>
    </contour>
  </outline>
</glyph>
<glyph name="H" format="2">
  <advance width="417.996"/>
  <unicode hex="0048"/>
  <anchor x="165.499228" y="0.0" name="bottom"/>
  <anchor x="221.22407300000003" y="350.0" name="center"/>
  <anchor x="276.435431" y="700.0" name="top"/>
  <anchor x="86.12643100000001" y="700.0" name="topleft"/>
  <outline>
    <contour>
      <point x="-2.5219999999999994" y="0.0" type="line"/>
      <point x="84.41499999999999" y="0.0" type="line"/>
      <point x="126.803" y="269.156" type="line"/>
      <point x="289.29600000000005" y="269.156" type="line"/>
      <point x="247.20900000000003" y="0.0" type="line"/>
      <point x="332.859" y="0.0" type="line"/>
      <point x="444.03099999999995" y="700.0" type="line"/>
      <point x="358.037" y="700.0" type="line"/>
      <point x="302.272" y="349.904" type="line"/>
      <point x="139.266" y="349.904" type="line"/>
      <point x="195.074" y="700.0" type="line"/>
      <point x="108.137" y="700.0" type="line"/>
    </contour>
  </outline>
</glyph>
<glyph name="I" format="2">
  <advance width="169.03900000000002"/>
  <unicode hex="0049"/>
  <anchor x="40.745136" y="0.0" name="bottom"/>
  <anchor x="85.073836" y="3.8699999999999997" name="ogonek"/>
  <anchor x="151.686972" y="700.0" name="top"/>
  <anchor x="87.805131" y="700.0" name="topleft"/>
  <outline>
    <contour>
      <point x="-2.5219999999999994" y="0.0" type="line"/>
      <point x="83.90200000000002" y="0.0" type="line"/>
      <point x="195.074" y="700.0" type="line"/>
      <point x="108.137" y="700.0" type="line"/>
    </contour>
  </outline>
</glyph>
<glyph name="J" format="2">
  <advance width="289.994"/>
  <unicode hex="004A"/>
  <anchor x="76.188828" y="0.0" name="bottom"/>
  <anchor x="211.576" y="700.0" name="top"/>
  <outline>
    <contour>
      <point x="-36.159" y="11.719999999999999" type="line"/>
      <point x="-7.779999999999999" y="-0.5700000000000003"/>
      <point x="24.429000000000002" y="-10.0"/>
      <point x="67.037" y="-10.0" type="curve" smooth="yes"/>
      <point x="166.151" y="-10.0"/>
      <point x="216.77100000000002" y="53.096000000000004"/>
      <point x="233.944" y="159.702" type="curve" smooth="yes"/>
      <point x="319.826" y="700.0" type="line"/>
      <point x="98.256" y="700.0" type="line"/>
      <point x="85.581" y="621.101" type="line"/>
      <point x="220.727" y="621.101" type="line"/>
      <point x="151.55100000000002" y="187.833" type="line" smooth="yes"/>
      <point x="138.178" y="104.52300000000001"/>
      <point x="106.015" y="78.57400000000001"/>
      <point x="53.098" y="78.57400000000001" type="curve" smooth="yes"/>
      <point x="31.315" y="78.57400000000001"/>
      <point x="8.566" y="84.44600000000001"/>
      <point x="-12.153" y="91.44700000000002" type="curve"/>
    </contour>
  </outline>
</glyph>
<glyph name="K" format="2">
  <advance width="390.936"/>
  <unicode hex="004B"/>
  <anchor x="168.95" y="0.0" name="bottom"/>
  <anchor x="260.24" y="700.0" name="top"/>
  <outline>
    <contour>
      <point x="-3.015999999999999" y="0.0" type="line"/>
      <point x="84.00200000000001" y="0.0" type="line"/>
      <point x="194.924" y="700.0" type="line"/>
      <point x="108.266" y="700.0" type="line"/>
    </contour>
    <contour>
      <point x="312.456" y="-9.774" type="curve" smooth="yes"/>
      <point x="323.74199999999996" y="-9.774"/>
      <point x="340.43" y="-5.842"/>
      <point x="347.212" y="-2.232" type="curve"/>
      <point x="355.322" y="96.264" type="line"/>
      <point x="351.954" y="96.288"/>
      <point x="347.92199999999997" y="95.288"/>
      <point x="343.664" y="95.288" type="curve" smooth="yes"/>
      <point x="323.39599999999996" y="95.288"/>
      <point x="302.45" y="106.484"/>
      <point x="275.044" y="166.696" type="curve" smooth="yes"/>
      <point x="143.79399999999998" y="456.47200000000004" type="line"/>
      <point x="118.48199999999999" y="319.18399999999997" type="line"/>
      <point x="227.81199999999998" y="76.744" type="line" smooth="yes"/>
      <point x="256.89599999999996" y="8.879999999999999"/>
      <point x="276.808" y="-9.774"/>
    </contour>
    <contour>
      <point x="199.316" y="285.256" type="line"/>
      <point x="282.826" y="371.294"/>
      <point x="383.80199999999996" y="511.32000000000005"/>
      <point x="437.486" y="680.9680000000001" type="curve"/>
      <point x="367.698" y="706.5600000000001" type="line"/>
      <point x="311.044" y="548.248"/>
      <point x="227.018" y="422.832"/>
      <point x="165.702" y="358.25399999999996" type="curve"/>
    </contour>
  </outline>
</glyph>
<glyph name="L" format="2">
  <advance width="310.65200000000004"/>
  <unicode hex="004C"/>
  <anchor x="132.392" y="0.0" name="bottom"/>
  <anchor x="161.396073" y="350.0" name="center"/>
  <anchor x="151.06400000000002" y="700.0" name="top"/>
  <anchor x="271.263" y="700.0" name="topright"/>
  <outline>
    <contour>
      <point x="-3.0349999999999997" y="0.0" type="line"/>
      <point x="257.187" y="0.0" type="line"/>
      <point x="270.29200000000003" y="81.651" type="line"/>
      <point x="96.408" y="81.651" type="line"/>
      <point x="194.56099999999998" y="700.0" type="line"/>
      <point x="108.137" y="700.0" type="line"/>
    </contour>
  </outline>
</glyph>
<glyph name="M" format="2">
  <advance width="475.598"/>
  <unicode hex="004D"/>
  <outline>
    <contour>
      <point x="-2.6719999999999997" y="0.0" type="line"/>
      <point x="76.907" y="0.0" type="line"/>
      <point x="160.53" y="536.812" type="line"/>
      <point x="203.887" y="212.882" type="line"/>
      <point x="249.12" y="212.882" type="line"/>
      <point x="396.481" y="535.861" type="line"/>
      <point x="310.831" y="0.0" type="line"/>
      <point x="390.461" y="0.0" type="line"/>
      <point x="501.63300000000004" y="700.0" type="line"/>
      <point x="404.444" y="700.0" type="line"/>
      <point x="246.74" y="350.171" type="line"/>
      <point x="199.107" y="700.0" type="line"/>
      <point x="108.137" y="700.0" type="line"/>
    </contour>
  </outline>
</glyph>
<glyph name="N" format="2">
  <advance width="419.97499999999997"/>
  <unicode hex="004E"/>
  <anchor x="172.57500000000002" y="0.0" name="bottom"/>
  <anchor x="277.46999999999997" y="700.0" name="top"/>
  <outline>
    <contour>
      <point x="-2.4649999999999994" y="0.0" type="line"/>
      <point x="75.91000000000001" y="0.0" type="line"/>
      <point x="155.5475" y="503.915" type="line"/>
      <point x="248.65" y="-0.5700000000000001" type="line"/>
      <point x="334.795" y="-0.5700000000000001" type="line"/>
      <point x="446.01" y="700.0" type="line"/>
      <point x="367.67" y="700.0" type="line"/>
      <point x="285.77250000000004" y="183.75" type="line"/>
      <point x="195.60750000000002" y="700.57" type="line"/>
      <point x="108.3225" y="700.57" type="line"/>
    </contour>
  </outline>
</glyph>
<glyph name="O" format="2">
  <advance width="425.51"/>
  <unicode hex="004F"/>
  <note>
8
</note>
  <anchor x="170.395" y="0.0" name="bottom"/>
  <anchor x="225.75" y="350.0" name="center"/>
  <anchor x="226.705" y="1.505" name="ogonek"/>
  <anchor x="281.96" y="700.0" name="top"/>
  <anchor x="89.57" y="700.0" name="topleft"/>
  <anchor x="363.5" y="696.755" name="topright"/>
  <outline>
    <contour>
      <point x="175.98" y="-9.355" type="curve" smooth="yes"/>
      <point x="353.77000000000004" y="-9.355"/>
      <point x="424.635" y="303.28"/>
      <point x="424.635" y="511.605" type="curve" smooth="yes"/>
      <point x="424.635" y="651.62"/>
      <point x="372.555" y="709.355"/>
      <point x="273.53000000000003" y="709.355" type="curve" smooth="yes"/>
      <point x="95.74000000000001" y="709.355"/>
      <point x="24.875" y="396.72"/>
      <point x="24.875" y="188.395" type="curve" smooth="yes"/>
      <point x="24.875" y="48.38"/>
      <point x="76.95500000000001" y="-9.355"/>
    </contour>
    <contour>
      <point x="184.005" y="75.295" type="curve" smooth="yes"/>
      <point x="138.26" y="75.295"/>
      <point x="112.89" y="101.84"/>
      <point x="112.89" y="185.70499999999998" type="curve" smooth="yes"/>
      <point x="112.89" y="331.35"/>
      <point x="168.635" y="624.705"/>
      <point x="265.72" y="624.705" type="curve" smooth="yes"/>
      <point x="311.25" y="624.705"/>
      <point x="336.62" y="598.1600000000001"/>
      <point x="336.62" y="514.295" type="curve" smooth="yes"/>
      <point x="336.62" y="368.65"/>
      <point x="280.875" y="75.295"/>
    </contour>
  </outline>
</glyph>
<glyph name="P" format="2">
  <advance width="383.79249999999996"/>
  <unicode hex="0050"/>
  <outline>
    <contour>
      <point x="-2.1424999999999996" y="0.0" type="line"/>
      <point x="84.1525" y="0.0" type="line"/>
      <point x="121.48" y="233.525" type="line"/>
      <point x="145.07" y="231.0925"/>
      <point x="156.5575" y="230.95000000000002"/>
      <point x="190.99249999999998" y="230.95000000000002" type="curve" smooth="yes"/>
      <point x="321.65000000000003" y="230.95000000000002"/>
      <point x="402.7975" y="359.46250000000003"/>
      <point x="402.94" y="547.055" type="curve" smooth="yes"/>
      <point x="402.94" y="659.8225"/>
      <point x="355.45" y="710.0"/>
      <point x="245.45499999999998" y="710.0" type="curve" smooth="yes"/>
      <point x="213.3125" y="710.0"/>
      <point x="165.01749999999998" y="707.57"/>
      <point x="109.0725" y="702.7475" type="curve"/>
    </contour>
    <contour>
      <point x="183.8725" y="626.5150000000001" type="line"/>
      <point x="205.465" y="629.2275"/>
      <point x="219.09" y="630.37"/>
      <point x="236.22" y="630.37" type="curve" smooth="yes"/>
      <point x="294.35999999999996" y="630.37"/>
      <point x="317.505" y="603.6375"/>
      <point x="317.505" y="532.5225" type="curve" smooth="yes"/>
      <point x="317.505" y="413.7"/>
      <point x="267.46999999999997" y="310.6875"/>
      <point x="187.01250000000002" y="310.6875" type="curve" smooth="yes"/>
      <point x="169.965" y="310.6875"/>
      <point x="154.775" y="311.5075"/>
      <point x="133.94" y="313.08000000000004" type="curve"/>
    </contour>
  </outline>
</glyph>
<glyph name="Q" format="2">
  <advance width="424.76099999999997"/>
  <unicode hex="0051"/>
  <note>
14
</note>
  <outline>
    <contour>
      <point x="293.286" y="-176.30300000000003" type="curve" smooth="yes"/>
      <point x="312.11699999999996" y="-176.30300000000003"/>
      <point x="332.15999999999997" y="-173.803"/>
      <point x="350.502" y="-167.04999999999998" type="curve"/>
      <point x="355.73400000000004" y="-91.183" type="line"/>
      <point x="342.7" y="-96.20700000000001"/>
      <point x="327.06499999999994" y="-98.777"/>
      <point x="311.541" y="-98.777" type="curve" smooth="yes"/>
      <point x="265.869" y="-98.777"/>
      <point x="228.68200000000002" y="-74.41099999999999"/>
      <point x="225.724" y="9.218" type="curve"/>
      <point x="153.94600000000003" y="6.443" type="line"/>
      <point x="156.356" y="-133.364"/>
      <point x="223.86100000000002" y="-176.30300000000003"/>
    </contour>
    <component base="O"/>
  </outline>
</glyph>
<glyph name="R" format="2">
  <advance width="394.44"/>
  <unicode hex="0052"/>
  <anchor x="170.825" y="0.0" name="bottom"/>
  <anchor x="241.91" y="700.0" name="top"/>
  <outline>
    <contour>
      <point x="-2.894999999999999" y="0.0" type="line"/>
      <point x="84.045" y="0.0" type="line"/>
      <point x="125.41499999999999" y="262.105" type="line"/>
      <point x="142.44" y="261.82"/>
      <point x="160.10000000000002" y="261.035"/>
      <point x="195.615" y="260.82" type="curve"/>
      <point x="200.235" y="262.755" type="line"/>
      <point x="316.505" y="263.005"/>
      <point x="403.695" y="374.385"/>
      <point x="403.695" y="541.51" type="curve" smooth="yes"/>
      <point x="403.695" y="653.16"/>
      <point x="351.605" y="710.0"/>
      <point x="241.22" y="710.0" type="curve" smooth="yes"/>
      <point x="196.775" y="710.0"/>
      <point x="156.73000000000002" y="707.14"/>
      <point x="108.965" y="702.03" type="curve"/>
    </contour>
    <contour>
      <point x="314.105" y="-10.0" type="curve" smooth="yes"/>
      <point x="323.43500000000006" y="-10.0"/>
      <point x="341.54499999999996" y="-6.39"/>
      <point x="348.02" y="-2.92" type="curve"/>
      <point x="355.23499999999996" y="86.895" type="line"/>
      <point x="350.88" y="85.755"/>
      <point x="347.27" y="85.755"/>
      <point x="344.84" y="85.755" type="curve" smooth="yes"/>
      <point x="314.745" y="85.895"/>
      <point x="292.10999999999996" y="115.685"/>
      <point x="255.695" y="304.585" type="curve"/>
      <point x="179.505" y="283.96" type="line"/>
      <point x="234.07" y="17.205000000000002"/>
      <point x="260.705" y="-10.0"/>
    </contour>
    <contour>
      <point x="192.82999999999998" y="338.835" type="curve" smooth="yes"/>
      <point x="170.47500000000002" y="338.835"/>
      <point x="153.6" y="339.695"/>
      <point x="137.58499999999998" y="341.195" type="curve"/>
      <point x="184.01500000000001" y="628.16" type="line"/>
      <point x="206.5" y="631.195"/>
      <point x="219.27" y="632.23"/>
      <point x="238.145" y="632.23" type="curve" smooth="yes"/>
      <point x="296.49" y="632.23"/>
      <point x="316.325" y="600.3199999999999"/>
      <point x="316.325" y="540.82" type="curve" smooth="yes"/>
      <point x="316.325" y="417.60999999999996"/>
      <point x="263.685" y="338.835"/>
    </contour>
  </outline>
</glyph>
<glyph name="S" format="2">
  <advance width="356.2025"/>
  <unicode hex="0053"/>
  <anchor x="132.6775" y="0.0" name="bottom"/>
  <anchor x="253.9575" y="700.0" name="top"/>
  <outline>
    <contour>
      <point x="376.755" y="684.33" type="line"/>
      <point x="344.9475" y="700.13"/>
      <point x="304.2575" y="710.0"/>
      <point x="257.38500000000005" y="710.0" type="curve" smooth="yes"/>
      <point x="137.97750000000002" y="710.0"/>
      <point x="61.917500000000004" y="633.5049999999999"/>
      <point x="61.917500000000004" y="509.64500000000004" type="curve" smooth="yes"/>
      <point x="61.917500000000004" y="349.3075"/>
      <point x="233.30249999999998" y="296.73499999999996"/>
      <point x="233.2675" y="182.4075" type="curve" smooth="yes"/>
      <point x="233.2675" y="118.07000000000001"/>
      <point x="192.45000000000002" y="71.49"/>
      <point x="123.86250000000001" y="71.49" type="curve" smooth="yes"/>
      <point x="82.3175" y="71.49"/>
      <point x="46.095" y="79.81750000000001"/>
      <point x="6.192499999999999" y="96.90249999999999" type="curve"/>
      <point x="-23.4775" y="20.924999999999997" type="line"/>
      <point x="13.447500000000002" y="0.76"/>
      <point x="65.345" y="-10.0"/>
      <point x="121.5825" y="-10.0" type="curve" smooth="yes"/>
      <point x="244.1175" y="-10.0"/>
      <point x="320.9925" y="71.3475"/>
      <point x="320.9925" y="188.91500000000002" type="curve" smooth="yes"/>
      <point x="321.24249999999995" y="347.645"/>
      <point x="151.54250000000002" y="402.98"/>
      <point x="151.54250000000002" y="515.3349999999999" type="curve" smooth="yes"/>
      <point x="151.54250000000002" y="586.9275"/>
      <point x="194.295" y="628.79"/>
      <point x="257.5025" y="628.79" type="curve" smooth="yes"/>
      <point x="290.8675" y="628.79"/>
      <point x="319.7525" y="623.4300000000001"/>
      <point x="348.515" y="610.4250000000001" type="curve"/>
    </contour>
  </outline>
</glyph>
<glyph name="T" format="2">
  <advance width="340.496"/>
  <unicode hex="0054"/>
  <anchor x="126.419828" y="0.0" name="bottom"/>
  <anchor x="182.194276" y="350.0" name="center"/>
  <anchor x="237.38697200000001" y="700.0" name="top"/>
  <outline>
    <contour>
      <point x="387.67199999999997" y="621.3159999999999" type="line"/>
      <point x="400.734" y="700.0" type="line"/>
      <point x="74.45" y="700.0" type="line"/>
      <point x="61.345" y="621.3159999999999" type="line"/>
      <point x="181.305" y="621.3159999999999" type="line"/>
      <point x="82.765" y="0.0" type="line"/>
      <point x="169.189" y="0.0" type="line"/>
      <point x="267.68600000000004" y="621.3159999999999" type="line"/>
    </contour>
  </outline>
</glyph>
<glyph name="U" format="2">
  <advance width="408.41200000000003"/>
  <unicode hex="0055"/>
  <anchor x="160.44692" y="0.0" name="bottom"/>
  <anchor x="211.44600000000003" y="0.0" name="ogonek"/>
  <anchor x="270.13658999999996" y="700.0" name="top"/>
  <anchor x="426.548" y="700.0" name="topright"/>
  <outline>
    <contour>
      <point x="157.35299999999998" y="-10.0" type="curve" smooth="yes"/>
      <point x="272.02900000000005" y="-10.0"/>
      <point x="334.133" y="48.510000000000005"/>
      <point x="354.858" y="177.346" type="curve" smooth="yes"/>
      <point x="438.244" y="700.0" type="line"/>
      <point x="351.60800000000006" y="700.0" type="line"/>
      <point x="266.445" y="164.016" type="line" smooth="yes"/>
      <point x="256.83299999999997" y="100.66000000000001"/>
      <point x="226.351" y="69.372"/>
      <point x="172.172" y="69.372" type="curve" smooth="yes"/>
      <point x="120.631" y="69.372"/>
      <point x="95.86999999999999" y="100.28"/>
      <point x="104.829" y="153.927" type="curve" smooth="yes"/>
      <point x="190.864" y="700.0" type="line"/>
      <point x="104.74100000000001" y="700.0" type="line"/>
      <point x="20.386000000000003" y="165.091" type="line" smooth="yes"/>
      <point x="17.025000000000002" y="144.551"/>
      <point x="16.151" y="134.686"/>
      <point x="16.151" y="119.026" type="curve" smooth="yes"/>
      <point x="16.151" y="33.944"/>
      <point x="64.629" y="-10.0"/>
    </contour>
  </outline>
</glyph>
<glyph name="V" format="2">
  <advance width="386.3905"/>
  <unicode hex="0056"/>
  <outline>
    <contour>
      <point x="201.1255" y="0.0" type="line"/>
      <point x="374.1375" y="411.1205"/>
      <point x="421.40749999999997" y="536.535"/>
      <point x="433.34" y="668.4499999999999" type="curve" smooth="yes"/>
      <point x="433.77" y="679.4855"/>
      <point x="433.63" y="688.623"/>
      <point x="432.0705" y="700.0" type="curve"/>
      <point x="338.39050000000003" y="700.0" type="line"/>
      <point x="339.4875" y="690.2625"/>
      <point x="340.20799999999997" y="682.4555"/>
      <point x="340.20799999999997" y="674.0975" type="curve" smooth="yes"/>
      <point x="336.01550000000003" y="557.63"/>
      <point x="293.199" y="443.9715"/>
      <point x="164.956" y="99.58" type="curve"/>
      <point x="169.14" y="700.613" type="line"/>
      <point x="70.91499999999999" y="700.1425" type="line"/>
      <point x="89.14800000000001" y="0.0" type="line"/>
    </contour>
  </outline>
</glyph>
<glyph name="W" format="2">
  <advance width="588.87"/>
  <unicode hex="0057"/>
  <anchor x="247.22" y="0.0" name="bottom"/>
  <anchor x="364.85499999999996" y="700.0" name="top"/>
  <outline>
    <contour>
      <point x="423.58500000000004" y="-0.785" type="line"/>
      <point x="594.515" y="462.87"/>
      <point x="632.1700000000001" y="586.98"/>
      <point x="635.18" y="672.025" type="curve" smooth="yes"/>
      <point x="635.18" y="682.015"/>
      <point x="635.04" y="690.225"/>
      <point x="633.15" y="700.0" type="curve"/>
      <point x="542.3050000000001" y="700.0" type="line"/>
      <point x="543.4449999999999" y="690.7950000000001"/>
      <point x="544.37" y="682.8349999999999"/>
      <point x="544.37" y="674.095" type="curve" smooth="yes"/>
      <point x="541.145" y="568.7"/>
      <point x="514.215" y="485.55"/>
      <point x="386.065" y="114.51" type="curve"/>
      <point x="403.875" y="641.1750000000001" type="line"/>
      <point x="309.14500000000004" y="641.1750000000001" type="line"/>
      <point x="261.1" y="469.6"/>
      <point x="203.13" y="277.03"/>
      <point x="150.14" y="119.825" type="curve"/>
      <point x="165.66" y="700.0" type="line"/>
      <point x="72.45" y="700.0" type="line"/>
      <point x="70.86500000000001" y="-0.785" type="line"/>
      <point x="170.35000000000002" y="-0.785" type="line"/>
      <point x="232.32500000000002" y="175.92"/>
      <point x="286.56" y="337.945"/>
      <point x="332.41" y="490.785" type="curve"/>
      <point x="319.23" y="-0.785" type="line"/>
    </contour>
  </outline>
</glyph>
<glyph name="X" format="2">
  <advance width="398.27"/>
  <unicode hex="0058"/>
  <outline>
    <contour>
      <point x="266.025" y="-3.455" type="line"/>
      <point x="358.45" y="-0.5" type="line"/>
      <point x="264.96" y="332.19" type="line"/>
      <point x="350.175" y="471.71999999999997"/>
      <point x="428.765" y="598.77"/>
      <point x="434.985" y="700.07" type="curve"/>
      <point x="342.31" y="700.605" type="line"/>
      <point x="339.465" y="609.005"/>
      <point x="291.325" y="523.245"/>
      <point x="229.10999999999999" y="417.71999999999997" type="curve"/>
      <point x="158.39" y="704.3149999999999" type="line"/>
      <point x="69.615" y="701.22" type="line"/>
      <point x="158.20999999999998" y="370.40999999999997" type="line"/>
      <point x="70.54" y="235.35"/>
      <point x="-15.129999999999999" y="109.315"/>
      <point x="-15.549999999999997" y="0.0" type="curve"/>
      <point x="78.38" y="0.0" type="line"/>
      <point x="78.80000000000001" y="90.61000000000001"/>
      <point x="128.01500000000001" y="179.775"/>
      <point x="192.48" y="286.59999999999997" type="curve"/>
    </contour>
  </outline>
</glyph>
<glyph name="Y" format="2">
  <advance width="371.802"/>
  <unicode hex="0059"/>
  <anchor x="141.66" y="0.0" name="bottom"/>
  <anchor x="253.375" y="700.0" name="top"/>
  <anchor x="90.949" y="700.0" name="topleft"/>
  <outline>
    <contour>
      <point x="97.368" y="0.0" type="line"/>
      <point x="182.41600000000003" y="0.0" type="line"/>
      <point x="226.32100000000003" y="268.909" type="line"/>
      <point x="319.547" y="399.93399999999997"/>
      <point x="382.139" y="518.967"/>
      <point x="422.703" y="662.047" type="curve" smooth="yes"/>
      <point x="425.781" y="674.69"/>
      <point x="429.13300000000004" y="687.97"/>
      <point x="431.934" y="700.863" type="curve"/>
      <point x="334.736" y="703.221" type="line"/>
      <point x="332.795" y="691.164"/>
      <point x="330.553" y="678.97"/>
      <point x="327.94800000000004" y="666.913" type="curve" smooth="yes"/>
      <point x="302.91" y="553.392"/>
      <point x="264.38500000000005" y="455.222"/>
      <point x="198.07399999999998" y="354.284" type="curve"/>
      <point x="168.239" y="702.5219999999999" type="line"/>
      <point x="70.03600000000002" y="700.2850000000001" type="line"/>
      <point x="140.21099999999998" y="268.909" type="line"/>
    </contour>
  </outline>
</glyph>
<glyph name="Z" format="2">
  <advance width="352.90500000000003"/>
  <unicode hex="005A"/>
  <anchor x="135.055" y="0.0" name="bottom"/>
  <anchor x="186.565" y="350.0" name="center"/>
  <anchor x="244.01999999999998" y="700.0" name="top"/>
  <outline>
    <contour>
      <point x="-29.325" y="0.0" type="line"/>
      <point x="297.28499999999997" y="0.0" type="line"/>
      <point x="310.82" y="79.84499999999998" type="line"/>
      <point x="74.72" y="79.84499999999998" type="line"/>
      <point x="386.595" y="620.07" type="line"/>
      <point x="399.13" y="700.0" type="line"/>
      <point x="97.805" y="700.0" type="line"/>
      <point x="84.91499999999999" y="620.155" type="line"/>
      <point x="295.65500000000003" y="620.155" type="line"/>
      <point x="-16.65" y="78.21000000000001" type="line"/>
    </contour>
  </outline>
</glyph>
<glyph name="bracketleft" format="2">
  <advance width="223.31900000000002"/>
  <unicode hex="005B"/>
  <outline>
    <contour>
      <point x="51.086" y="-135.67" type="line"/>
      <point x="179.488" y="665.7270000000001" type="line"/>
      <point x="275.21299999999997" y="665.7270000000001" type="line"/>
      <point x="287.673" y="740.0" type="line"/>
      <point x="120.233" y="740.0" type="line"/>
      <point x="-32.533" y="-210.0" type="line"/>
      <point x="133.964" y="-210.0" type="line"/>
      <point x="146.811" y="-135.67" type="line"/>
    </contour>
  </outline>
</glyph>
<glyph name="backslash" format="2">
  <advance width="315.688"/>
  <unicode hex="005C"/>
  <outline>
    <contour>
      <point x="145.76799999999997" y="740.0" type="line"/>
      <point x="74.377" y="740.0" type="line"/>
      <point x="206.479" y="-210.0" type="line"/>
      <point x="277.483" y="-210.0" type="line"/>
    </contour>
  </outline>
</glyph>
<glyph name="bracketright" format="2">
  <advance width="223.31900000000002"/>
  <unicode hex="005D"/>
  <outline>
    <contour>
      <point x="-54.324" y="-135.67" type="line"/>
      <point x="-66.741" y="-210.0" type="line"/>
      <point x="99.18599999999999" y="-210.0" type="line"/>
      <point x="252.895" y="740.0" type="line"/>
      <point x="85.968" y="740.0" type="line"/>
      <point x="73.12100000000001" y="665.6700000000001" type="line"/>
      <point x="168.846" y="665.6700000000001" type="line"/>
      <point x="40.057" y="-135.67" type="line"/>
    </contour>
  </outline>
</glyph>
<glyph name="asciicircum" format="2">
  <advance width="384.924"/>
  <unicode hex="005E"/>
  <outline>
    <contour>
      <point x="39.897" y="261.19899999999996" type="line"/>
      <point x="103.602" y="261.19899999999996" type="line"/>
      <point x="245.02199999999996" y="611.418" type="line"/>
      <point x="277.947" y="261.19899999999996" type="line"/>
      <point x="341.151" y="261.19899999999996" type="line"/>
      <point x="297.826" y="705.7" type="line"/>
      <point x="218.471" y="705.7" type="line"/>
    </contour>
  </outline>
</glyph>
<glyph name="underscore" format="2">
  <advance width="594.424"/>
  <unicode hex="005F"/>
  <outline>
    <contour>
      <point x="-67.989" y="-167.433" type="line"/>
      <point x="521.3190000000001" y="-167.433" type="line"/>
      <point x="535.413" y="-83.907" type="line"/>
      <point x="-53.89500000000001" y="-83.907" type="line"/>
    </contour>
  </outline>
</glyph>
<glyph name="a" format="2">
  <advance width="368.537"/>
  <unicode hex="0061"/>
  <note>
15
</note>
  <anchor x="146.5025" y="0.0" name="bottom"/>
  <anchor x="333.19" y="5.59" name="ogonek"/>
  <anchor x="231.987" y="538.6" name="top"/>
  <outline>
    <contour>
      <point x="273.61100000000005" y="-10.0" type="curve" smooth="yes"/>
      <point x="295.36499999999995" y="-10.0"/>
      <point x="318.5025" y="-3.6630000000000003"/>
      <point x="333.204" y="5.548" type="curve"/>
      <point x="339.10349999999994" y="77.64" type="line"/>
      <point x="330.894" y="74.374"/>
      <point x="323.67949999999996" y="72.7855"/>
      <point x="316.63349999999997" y="72.7855" type="curve" smooth="yes"/>
      <point x="302.55949999999996" y="72.7855"/>
      <point x="297.4385" y="80.1635"/>
      <point x="297.4385" y="95.5925" type="curve" smooth="yes"/>
      <point x="297.4385" y="102.611"/>
      <point x="303.298" y="139.0755"/>
      <point x="364.48799999999994" y="522.1030000000001" type="curve"/>
      <point x="331.3354999999999" y="537.1925"/>
      <point x="286.92949999999996" y="548.6"/>
      <point x="242.45799999999997" y="548.6" type="curve" smooth="yes"/>
      <point x="104.2815" y="548.6"/>
      <point x="15.152999999999999" y="396.9585"/>
      <point x="15.152999999999999" y="150.8195" type="curve" smooth="yes"/>
      <point x="15.152999999999999" y="46.431"/>
      <point x="53.7525" y="-10.0"/>
      <point x="120.45899999999997" y="-10.0" type="curve" smooth="yes"/>
      <point x="157.15150000000003" y="-10.0"/>
      <point x="187.021" y="3.8179999999999996"/>
      <point x="211.96099999999998" y="27.0765" type="curve"/>
      <point x="223.1075" y="2.916"/>
      <point x="243.506" y="-10.0"/>
    </contour>
    <contour>
      <point x="210.1575" y="91.0775" type="line"/>
      <point x="195.0935" y="80.39649999999999"/>
      <point x="174.4975" y="73.15899999999999"/>
      <point x="155.87800000000001" y="73.15899999999999" type="curve" smooth="yes"/>
      <point x="123.96100000000001" y="73.15899999999999"/>
      <point x="104.7945" y="103.847"/>
      <point x="104.7945" y="163.58350000000002" type="curve" smooth="yes"/>
      <point x="104.7945" y="342.67499999999995"/>
      <point x="161.88799999999998" y="470.95599999999996"/>
      <point x="232.61050000000003" y="470.95599999999996" type="curve" smooth="yes"/>
      <point x="246.7445" y="470.95599999999996"/>
      <point x="258.60799999999995" y="468.5685"/>
      <point x="268.63999999999993" y="463.055" type="curve"/>
    </contour>
  </outline>
</glyph>
<glyph name="b" format="2">
  <advance width="366.413"/>
  <unicode hex="0062"/>
  <note>
12
</note>
  <outline>
    <contour>
      <point x="200.82649999999998" y="740.0" type="line"/>
      <point x="115.06900000000002" y="740.0" type="line"/>
      <point x="0.04300000000000029" y="11.633999999999999" type="line"/>
      <point x="29.9895" y="-0.10549999999999982"/>
      <point x="68.0395" y="-10.0"/>
      <point x="118.25949999999999" y="-10.0" type="curve" smooth="yes"/>
      <point x="276.19849999999997" y="-10.0"/>
      <point x="352.15950000000004" y="187.328"/>
      <point x="351.407" y="383.54200000000003" type="curve" smooth="yes"/>
      <point x="351.0845" y="496.699"/>
      <point x="317.0125" y="548.6"/>
      <point x="250.0545" y="548.6" type="curve" smooth="yes"/>
      <point x="220.496" y="548.6"/>
      <point x="193.83800000000002" y="538.219"/>
      <point x="165.7175" y="519.8979999999999" type="curve"/>
    </contour>
    <contour>
      <point x="212.19350000000003" y="464.86049999999994" type="curve" smooth="yes"/>
      <point x="250.41199999999998" y="464.86049999999994"/>
      <point x="264.03700000000003" y="426.71049999999997"/>
      <point x="264.03700000000003" y="373.232" type="curve" smooth="yes"/>
      <point x="264.03700000000003" y="221.643"/>
      <point x="211.7925" y="66.64450000000001"/>
      <point x="133.2575" y="66.64450000000001" type="curve" smooth="yes"/>
      <point x="119.47300000000001" y="66.64450000000001"/>
      <point x="106.05" y="69.3105"/>
      <point x="95.81249999999999" y="73.768" type="curve"/>
      <point x="154.11749999999998" y="444.76200000000006" type="line"/>
      <point x="171.638" y="456.99600000000004"/>
      <point x="194.8065" y="464.86049999999994"/>
    </contour>
  </outline>
</glyph>
<glyph name="c" format="2">
  <advance width="300.12"/>
  <unicode hex="0063"/>
  <note>
10
</note>
  <anchor x="144.72400000000002" y="0.0" name="bottom"/>
  <anchor x="229.44000000000003" y="538.6" name="top"/>
  <outline>
    <contour>
      <point x="153.203" y="-10.0" type="curve" smooth="yes"/>
      <point x="188.88200000000003" y="-10.0"/>
      <point x="226.572" y="-3.5509999999999997"/>
      <point x="253.625" y="6.847" type="curve"/>
      <point x="243.93200000000002" y="80.71000000000001" type="line"/>
      <point x="223.90800000000002" y="75.813"/>
      <point x="200.684" y="72.60300000000001"/>
      <point x="177.18399999999997" y="72.60300000000001" type="curve" smooth="yes"/>
      <point x="128.415" y="72.60300000000001"/>
      <point x="102.243" y="111.42999999999999"/>
      <point x="102.243" y="176.113" type="curve" smooth="yes"/>
      <point x="102.243" y="323.657"/>
      <point x="159.538" y="465.53"/>
      <point x="236.27300000000002" y="465.53" type="curve" smooth="yes"/>
      <point x="258.47400000000005" y="465.53"/>
      <point x="276.58200000000005" y="463.287"/>
      <point x="300.452" y="455.64199999999994" type="curve"/>
      <point x="328.938" y="535.16" type="line"/>
      <point x="301.755" y="544.095"/>
      <point x="271.598" y="548.6"/>
      <point x="238.84300000000002" y="548.6" type="curve" smooth="yes"/>
      <point x="96.58300000000001" y="548.6"/>
      <point x="14.999" y="376.98699999999997"/>
      <point x="14.999" y="154.35200000000003" type="curve" smooth="yes"/>
      <point x="14.999" y="50.04"/>
      <point x="63.796" y="-10.0"/>
    </contour>
  </outline>
</glyph>
<glyph name="d" format="2">
  <advance width="367.705"/>
  <unicode hex="0064"/>
  <note>
17
</note>
  <anchor x="150.0565" y="0.0" name="bottom"/>
  <anchor x="187.85649999999998" y="323.62749999999994" name="center"/>
  <anchor x="245.52" y="740.0" name="top"/>
  <anchor x="445.34749999999997" y="740.0" name="topright"/>
  <outline>
    <contour>
      <point x="271.7885" y="-10.0" type="curve" smooth="yes"/>
      <point x="291.28549999999996" y="-10.0"/>
      <point x="314.73150000000004" y="-4.433999999999999"/>
      <point x="331.11049999999994" y="5.548" type="curve"/>
      <point x="336.753" y="77.64" type="line"/>
      <point x="329.33299999999997" y="74.8225"/>
      <point x="321.54400000000004" y="72.78550000000001"/>
      <point x="314.0495" y="72.78550000000001" type="curve" smooth="yes"/>
      <point x="301.1155" y="72.78550000000001"/>
      <point x="295.6255" y="79.50000000000001"/>
      <point x="295.6255" y="93.3165" type="curve" smooth="yes"/>
      <point x="295.6255" y="105.80350000000001"/>
      <point x="344.2395" y="406.53150000000005"/>
      <point x="396.885" y="740.0" type="curve"/>
      <point x="311.235" y="740.0" type="line"/>
      <point x="278.7305" y="536.2630000000001" type="line"/>
      <point x="259.296" y="544.156"/>
      <point x="239.6695" y="548.6"/>
      <point x="216.389" y="548.6" type="curve" smooth="yes"/>
      <point x="99.66499999999999" y="548.6"/>
      <point x="14.686" y="381.137"/>
      <point x="14.686" y="149.71549999999996" type="curve" smooth="yes"/>
      <point x="14.686" y="42.151"/>
      <point x="53.08899999999999" y="-10.0"/>
      <point x="119.66049999999998" y="-10.0" type="curve" smooth="yes"/>
      <point x="155.04" y="-10.0"/>
      <point x="188.24099999999999" y="7.6175000000000015"/>
      <point x="209.8115" y="28.501500000000004" type="curve"/>
      <point x="221.42049999999998" y="2.7199999999999998"/>
      <point x="240.73499999999999" y="-10.0"/>
    </contour>
    <contour>
      <point x="153.2425" y="73.82250000000002" type="curve" smooth="yes"/>
      <point x="121.12899999999998" y="73.82250000000002"/>
      <point x="102.2665" y="103.399"/>
      <point x="102.2665" y="150.249" type="curve" smooth="yes"/>
      <point x="102.2665" y="312.944"/>
      <point x="152.8465" y="470.95599999999996"/>
      <point x="228.86799999999997" y="470.95599999999996" type="curve" smooth="yes"/>
      <point x="243.39450000000002" y="470.95599999999996"/>
      <point x="254.314" y="468.3115"/>
      <point x="267.238" y="464.30249999999995" type="curve"/>
      <point x="208.4985" y="92.05399999999999" type="line"/>
      <point x="193.4065" y="80.78899999999999"/>
      <point x="173.80549999999997" y="73.82250000000002"/>
    </contour>
  </outline>
</glyph>
<glyph name="e" format="2">
  <advance width="339.62"/>
  <unicode hex="0065"/>
  <note>
14 points
</note>
  <anchor x="163.062" y="0.0" name="bottom"/>
  <anchor x="244.294" y="1.472" name="ogonek"/>
  <anchor x="230.336" y="539.712" name="top"/>
  <outline>
    <contour>
      <point x="85.34100000000001" y="285.715" type="curve"/>
      <point x="73.082" y="217.41899999999998" type="line"/>
      <point x="107.91000000000001" y="218.60999999999999"/>
      <point x="145.602" y="225.965"/>
      <point x="181.64000000000001" y="238.605" type="curve" smooth="yes"/>
      <point x="281.235" y="273.567"/>
      <point x="348.17499999999995" y="350.27400000000006"/>
      <point x="348.17499999999995" y="444.893" type="curve" smooth="yes"/>
      <point x="348.17499999999995" y="506.504"/>
      <point x="311.49499999999995" y="548.6"/>
      <point x="241.44899999999998" y="548.6" type="curve" smooth="yes"/>
      <point x="97.54" y="548.6"/>
      <point x="17.994" y="387.59299999999996"/>
      <point x="17.994" y="184.06399999999996" type="curve" smooth="yes"/>
      <point x="17.994" y="59.645999999999994"/>
      <point x="69.198" y="-10.0"/>
      <point x="165.497" y="-10.0" type="curve" smooth="yes"/>
      <point x="206.54100000000003" y="-10.0"/>
      <point x="253.87" y="-0.41100000000000003"/>
      <point x="290.69" y="19.721" type="curve"/>
      <point x="274.8" y="97.32799999999999" type="line"/>
      <point x="238.327" y="80.837"/>
      <point x="205.686" y="73.893"/>
      <point x="177.032" y="73.893" type="curve" smooth="yes"/>
      <point x="127.497" y="73.893"/>
      <point x="100.508" y="111.78500000000001"/>
      <point x="100.508" y="197.09" type="curve" smooth="yes"/>
      <point x="100.508" y="360.20300000000003"/>
      <point x="157.66200000000003" y="472.01700000000005"/>
      <point x="227.29700000000003" y="472.01700000000005" type="curve" smooth="yes"/>
      <point x="253.327" y="472.01700000000005"/>
      <point x="267.811" y="459.51900000000006"/>
      <point x="267.811" y="428.007" type="curve" smooth="yes"/>
      <point x="267.811" y="373.001"/>
      <point x="227.291" y="329.688"/>
      <point x="164.309" y="303.61499999999995" type="curve" smooth="yes"/>
      <point x="139.54899999999998" y="293.34000000000003"/>
      <point x="112.583" y="286.892"/>
    </contour>
  </outline>
</glyph>
<glyph name="f" format="2">
  <advance width="233.75900000000001"/>
  <unicode hex="0066"/>
  <outline>
    <contour>
      <point x="-48.777" y="-220.0" type="curve" smooth="yes"/>
      <point x="37.553" y="-220.0"/>
      <point x="80.576" y="-158.862"/>
      <point x="100.15799999999999" y="-34.884" type="curve" smooth="yes"/>
      <point x="172.923" y="424.83799999999997" type="line"/>
      <point x="256.442" y="424.83799999999997" type="line"/>
      <point x="268.687" y="501.415" type="line"/>
      <point x="185.125" y="501.415" type="line"/>
      <point x="203.92399999999998" y="622.1139999999999"/>
      <point x="230.917" y="665.64"/>
      <point x="280.852" y="665.64" type="curve" smooth="yes"/>
      <point x="297.98499999999996" y="665.64"/>
      <point x="315.74" y="661.755"/>
      <point x="332.29200000000003" y="656.64" type="curve"/>
      <point x="357.467" y="731.615" type="line"/>
      <point x="331.11" y="742.757"/>
      <point x="305.18600000000004" y="750.0"/>
      <point x="272.522" y="750.0" type="curve" smooth="yes"/>
      <point x="182.288" y="750.0"/>
      <point x="125.619" y="675.196"/>
      <point x="99.375" y="501.415" type="curve"/>
      <point x="43.074999999999996" y="494.48300000000006" type="line"/>
      <point x="31.528999999999996" y="424.83799999999997" type="line"/>
      <point x="87.13" y="424.83799999999997" type="line"/>
      <point x="15.409" y="-30.509000000000004" type="line" smooth="yes"/>
      <point x="4.334" y="-99.58200000000001"/>
      <point x="-15.255" y="-136.47899999999998"/>
      <point x="-57.812000000000005" y="-136.47899999999998" type="curve" smooth="yes"/>
      <point x="-69.074" y="-136.47899999999998"/>
      <point x="-80.04400000000001" y="-135.19600000000003"/>
      <point x="-95.18299999999999" y="-130.168" type="curve"/>
      <point x="-117.658" y="-207.712" type="line"/>
      <point x="-95.261" y="-216.137"/>
      <point x="-73.253" y="-220.0"/>
    </contour>
  </outline>
</glyph>
<glyph name="g" format="2">
  <advance width="364.51300000000003"/>
  <unicode hex="0067"/>
  <note>
16
</note>
  <anchor x="99.32" y="-214.44" name="bottom"/>
  <anchor x="229.54800000000003" y="538.6" name="top"/>
  <outline>
    <contour>
      <point x="-15.137999999999998" y="-195.84300000000002" type="line"/>
      <point x="22.201999999999998" y="-211.95700000000002"/>
      <point x="64.042" y="-220.0"/>
      <point x="99.89" y="-220.0" type="curve" smooth="yes"/>
      <point x="198.036" y="-220.0"/>
      <point x="253.71699999999998" y="-160.29700000000003"/>
      <point x="274.84400000000005" y="-26.353" type="curve" smooth="yes"/>
      <point x="364.016" y="527.188" type="line"/>
      <point x="336.197" y="539.02"/>
      <point x="288.687" y="548.6"/>
      <point x="248.174" y="548.6" type="curve" smooth="yes"/>
      <point x="86.448" y="548.6"/>
      <point x="13.952" y="365.127"/>
      <point x="13.952" y="148.375" type="curve" smooth="yes"/>
      <point x="13.952" y="58.269"/>
      <point x="46.938" y="-1.6149999999999998"/>
      <point x="114.29499999999999" y="-1.6149999999999998" type="curve" smooth="yes"/>
      <point x="138.561" y="-1.6149999999999998"/>
      <point x="170.97300000000004" y="6.7540000000000004"/>
      <point x="197.651" y="23.249000000000002" type="curve"/>
      <point x="190.736" y="-27.195000000000004" type="line" smooth="yes"/>
      <point x="178.91000000000003" y="-109.62899999999999"/>
      <point x="148.233" y="-138.701"/>
      <point x="99.16600000000001" y="-138.701" type="curve" smooth="yes"/>
      <point x="73.296" y="-138.701"/>
      <point x="37.134" y="-131.074"/>
      <point x="10.001999999999999" y="-120.53600000000002" type="curve"/>
    </contour>
    <contour>
      <point x="267.766" y="466.40599999999995" type="curve"/>
      <point x="208.849" y="95.97999999999999" type="line"/>
      <point x="195.14000000000001" y="85.43"/>
      <point x="171.895" y="77.24399999999999"/>
      <point x="155.33599999999998" y="77.24399999999999" type="curve" smooth="yes"/>
      <point x="122.601" y="77.24399999999999"/>
      <point x="102.626" y="105.833"/>
      <point x="102.626" y="158.745" type="curve" smooth="yes"/>
      <point x="102.626" y="311.129"/>
      <point x="152.808" y="473.952"/>
      <point x="231.20800000000003" y="473.952" type="curve" smooth="yes"/>
      <point x="244.609" y="473.952"/>
      <point x="256.351" y="470.499"/>
    </contour>
  </outline>
</glyph>
<glyph name="h" format="2">
  <advance width="369.89"/>
  <unicode hex="0068"/>
  <note>
16
</note>
  <anchor x="144.323" y="0.0" name="bottom"/>
  <anchor x="200.6645" y="371.075" name="center"/>
  <anchor x="259.27599999999995" y="740.0" name="top"/>
  <outline>
    <contour>
      <point x="298.59049999999996" y="93.98949999999999" type="curve" smooth="yes"/>
      <point x="298.59049999999996" y="117.422"/>
      <point x="354.1215" y="431.631"/>
      <point x="354.1215" y="462.0" type="curve" smooth="yes"/>
      <point x="354.1215" y="514.3380000000001"/>
      <point x="328.78400000000005" y="548.6"/>
      <point x="271.59599999999995" y="548.6" type="curve" smooth="yes"/>
      <point x="234.6285" y="548.6"/>
      <point x="200.85849999999996" y="536.105"/>
      <point x="164.57699999999997" y="512.7204999999999" type="curve"/>
      <point x="200.95549999999997" y="740.0" type="line"/>
      <point x="114.983" y="740.0" type="line"/>
      <point x="-2.554500000000001" y="0.0" type="line"/>
      <point x="83.41799999999999" y="0.0" type="line"/>
      <point x="153.6035" y="442.13500000000005" type="line"/>
      <point x="175.3585" y="456.073"/>
      <point x="201.97699999999998" y="465.76349999999996"/>
      <point x="222.386" y="465.76349999999996" type="curve" smooth="yes"/>
      <point x="253.71900000000002" y="465.76349999999996"/>
      <point x="262.849" y="447.77950000000004"/>
      <point x="262.849" y="424.1185" type="curve" smooth="yes"/>
      <point x="262.849" y="399.433"/>
      <point x="208.55149999999998" y="93.075"/>
      <point x="208.55149999999998" y="55.0845" type="curve" smooth="yes"/>
      <point x="208.55149999999998" y="16.713"/>
      <point x="236.3945" y="-10.0"/>
      <point x="277.1695" y="-10.0" type="curve" smooth="yes"/>
      <point x="296.0265" y="-10.0"/>
      <point x="315.8555" y="-5.2235000000000005"/>
      <point x="333.431" y="4.786499999999999" type="curve"/>
      <point x="339.751" y="77.771" type="line"/>
      <point x="331.2845" y="74.491"/>
      <point x="324.883" y="73.5705"/>
      <point x="319.818" y="73.5705" type="curve" smooth="yes"/>
      <point x="304.93600000000004" y="73.5705"/>
      <point x="298.59049999999996" y="80.46700000000001"/>
    </contour>
  </outline>
</glyph>
<glyph name="i" format="2">
  <advance width="169.28699999999998"/>
  <unicode hex="0069"/>
  <note>
Ajuster pts sur points
8
</note>
  <anchor x="40.57109199999999" y="0.0" name="bottom"/>
  <anchor x="83.74799999999999" y="0.0" name="ogonek"/>
  <anchor x="125.922908" y="538.6" name="top"/>
  <outline>
    <contour>
      <point x="-1.5180000000000007" y="0.0" type="line"/>
      <point x="83.74799999999999" y="0.0" type="line"/>
      <point x="168.995" y="538.6" type="line"/>
      <point x="83.30199999999999" y="538.6" type="line"/>
    </contour>
    <contour>
      <point x="159.91299999999998" y="744.4" type="curve" smooth="yes"/>
      <point x="115.56899999999999" y="744.4"/>
      <point x="100.621" y="713.36"/>
      <point x="99.025" y="669.165" type="curve" smooth="yes"/>
      <point x="98.512" y="641.6569999999999"/>
      <point x="113.416" y="630.033"/>
      <point x="140.343" y="630.033" type="curve" smooth="yes"/>
      <point x="184.155" y="630.033"/>
      <point x="199.649" y="661.245"/>
      <point x="201.30200000000002" y="705.755" type="curve" smooth="yes"/>
      <point x="201.815" y="733.163"/>
      <point x="186.695" y="744.4"/>
    </contour>
  </outline>
</glyph>
<glyph name="j" format="2">
  <advance width="175.80899999999997"/>
  <unicode hex="006A"/>
  <note>
idem /i
12
</note>
  <outline>
    <contour>
      <point x="166.47799999999998" y="744.4" type="curve" smooth="yes"/>
      <point x="122.091" y="744.4"/>
      <point x="107.3" y="713.36"/>
      <point x="105.70400000000001" y="669.165" type="curve" smooth="yes"/>
      <point x="105.19099999999999" y="641.6569999999999"/>
      <point x="120.411" y="630.033"/>
      <point x="147.338" y="630.033" type="curve" smooth="yes"/>
      <point x="190.59199999999998" y="630.033"/>
      <point x="206.1" y="661.245"/>
      <point x="207.753" y="705.755" type="curve" smooth="yes"/>
      <point x="208.266" y="733.163"/>
      <point x="193.26" y="744.4"/>
    </contour>
    <contour>
      <point x="175.98999999999998" y="538.6" type="line"/>
      <point x="89.86699999999999" y="538.6" type="line"/>
      <point x="-0.7789999999999991" y="-32.546" type="line" smooth="yes"/>
      <point x="-11.213000000000001" y="-97.645"/>
      <point x="-30.042999999999996" y="-136.47899999999998"/>
      <point x="-72.175" y="-136.47899999999998" type="curve" smooth="yes"/>
      <point x="-84.16499999999999" y="-136.47899999999998"/>
      <point x="-95.53399999999999" y="-135.29600000000002"/>
      <point x="-110.59899999999999" y="-130.083" type="curve"/>
      <point x="-131.38299999999998" y="-209.00300000000001" type="line"/>
      <point x="-109.057" y="-217.083"/>
      <point x="-83.014" y="-220.0"/>
      <point x="-62.53499999999999" y="-220.0" type="curve" smooth="yes"/>
      <point x="26.033" y="-220.0"/>
      <point x="65.044" y="-159.329"/>
      <point x="84.559" y="-35.181" type="curve" smooth="yes"/>
    </contour>
  </outline>
</glyph>
<glyph name="k" format="2">
  <advance width="349.975"/>
  <unicode hex="006B"/>
  <anchor x="150.555" y="0.0" name="bottom"/>
  <anchor x="158.74499999999998" y="740.0" name="top"/>
  <outline>
    <contour>
      <point x="-2.009999999999999" y="0.0" type="line"/>
      <point x="84.285" y="0.0" type="line"/>
      <point x="201.5" y="740.0" type="line"/>
      <point x="114.99000000000001" y="740.0" type="line"/>
    </contour>
    <contour>
      <point x="283.06500000000005" y="-10.0" type="curve" smooth="yes"/>
      <point x="293.65" y="-10.0"/>
      <point x="304.235" y="-8.75"/>
      <point x="315.535" y="-4.245" type="curve"/>
      <point x="325.58" y="82.88499999999999" type="line"/>
      <point x="318.71999999999997" y="81.74499999999999"/>
      <point x="313.255" y="81.60499999999999"/>
      <point x="308.14500000000004" y="82.25" type="curve" smooth="yes"/>
      <point x="281.36" y="85.47500000000001"/>
      <point x="256.93" y="110.515"/>
      <point x="206.715" y="212.845" type="curve" smooth="yes"/>
      <point x="130.28" y="367.02" type="line"/>
      <point x="109.14" y="245.47" type="line"/>
      <point x="173.845" y="111.64999999999999" type="line" smooth="yes"/>
      <point x="215.54500000000002" y="24.3"/>
      <point x="241.87" y="-10.0"/>
    </contour>
    <contour>
      <point x="185.25" y="240.54999999999998" type="line"/>
      <point x="267.895" y="312.59000000000003"/>
      <point x="341.07" y="425.83"/>
      <point x="377.435" y="537.9499999999999" type="curve"/>
      <point x="295.53999999999996" y="548.46" type="line"/>
      <point x="259.19" y="434.815"/>
      <point x="207.06" y="362.46500000000003"/>
      <point x="139.44" y="300.94" type="curve"/>
    </contour>
  </outline>
</glyph>
<glyph name="l" format="2">
  <advance width="182.289"/>
  <unicode hex="006C"/>
  <anchor x="77.832" y="0.0" name="bottom"/>
  <anchor x="104.038258" y="371.075" name="center"/>
  <anchor x="157.666" y="740.0" name="top"/>
  <anchor x="249.26000000000002" y="740.0" name="topright"/>
  <outline>
    <contour>
      <point x="115.02600000000001" y="740.0" type="line"/>
      <point x="12.542" y="92.785" type="line" smooth="yes"/>
      <point x="10.926" y="81.834"/>
      <point x="9.626" y="69.483"/>
      <point x="9.626" y="59.493" type="curve" smooth="yes"/>
      <point x="9.626" y="16.243000000000002"/>
      <point x="31.168999999999997" y="-10.0"/>
      <point x="79.61399999999999" y="-10.0" type="curve" smooth="yes"/>
      <point x="102.327" y="-10.0"/>
      <point x="129.32999999999998" y="-3.6470000000000002"/>
      <point x="147.729" y="6.0249999999999995" type="curve"/>
      <point x="153.906" y="79.21700000000001" type="line"/>
      <point x="141.662" y="75.479"/>
      <point x="131.9" y="73.896"/>
      <point x="124.066" y="73.896" type="curve" smooth="yes"/>
      <point x="105.78999999999999" y="73.896"/>
      <point x="99.98" y="82.516"/>
      <point x="99.98" y="96.169" type="curve" smooth="yes"/>
      <point x="99.98" y="105.558"/>
      <point x="102.13399999999999" y="117.07499999999999"/>
      <point x="104.773" y="134.122" type="curve" smooth="yes"/>
      <point x="200.819" y="740.0" type="line"/>
    </contour>
  </outline>
</glyph>
<glyph name="m" format="2">
  <advance width="550.918"/>
  <unicode hex="006D"/>
  <note>
24&gt;23 points
un point de trop dans la jointure avec 2e jambage
</note>
  <outline>
    <contour>
      <point x="457.187" y="-10.0" type="curve" smooth="yes"/>
      <point x="475.958" y="-10.0"/>
      <point x="497.937" y="-5.331"/>
      <point x="514.502" y="4.7219999999999995" type="curve"/>
      <point x="520.736" y="77.384" type="line"/>
      <point x="512.4200000000001" y="74.104"/>
      <point x="505.825" y="73.377"/>
      <point x="500.803" y="73.377" type="curve" smooth="yes"/>
      <point x="485.96400000000006" y="73.377"/>
      <point x="478.96900000000005" y="81.39900000000002"/>
      <point x="478.96900000000005" y="96.10400000000001" type="curve" smooth="yes"/>
      <point x="478.96900000000005" y="126.56700000000001"/>
      <point x="534.801" y="434.211"/>
      <point x="534.801" y="464.19300000000004" type="curve" smooth="yes"/>
      <point x="534.801" y="513.392"/>
      <point x="509.9409999999999" y="548.6"/>
      <point x="452.49500000000006" y="548.6" type="curve" smooth="yes"/>
      <point x="418.427" y="548.6"/>
      <point x="379.185" y="536.802"/>
      <point x="336.397" y="504.31000000000006" type="curve"/>
      <point x="325.46799999999996" y="531.823"/>
      <point x="300.66299999999995" y="548.6"/>
      <point x="263.759" y="548.6" type="curve" smooth="yes"/>
      <point x="230.235" y="548.6"/>
      <point x="194.15300000000002" y="535.82"/>
      <point x="156.398" y="509.376" type="curve"/>
      <point x="161.42999999999998" y="538.6" type="line"/>
      <point x="82.74600000000001" y="538.6" type="line"/>
      <point x="-2.4869999999999988" y="0.0" type="line"/>
      <point x="83.249" y="0.0" type="line"/>
      <point x="153.298" y="443.307" type="line"/>
      <point x="173.209" y="456.842"/>
      <point x="195.902" y="465.78499999999997"/>
      <point x="216.369" y="465.78499999999997" type="curve" smooth="yes"/>
      <point x="243.88199999999998" y="465.78499999999997"/>
      <point x="254.665" y="448.59999999999997"/>
      <point x="254.665" y="425.20700000000005" type="curve" smooth="yes"/>
      <point x="254.665" y="403.34099999999995"/>
      <point x="202.052" y="86.977"/>
      <point x="187.99300000000002" y="0.0" type="curve"/>
      <point x="273.683" y="0.0" type="line"/>
      <point x="284.904" y="70.122"/>
      <point x="330.50800000000004" y="352.771"/>
      <point x="338.936" y="421.183" type="curve" smooth="yes"/>
      <point x="339.366" y="427.41300000000007"/>
      <point x="339.74199999999996" y="436.18"/>
      <point x="339.54499999999996" y="441.42400000000004" type="curve"/>
      <point x="359.345" y="455.319"/>
      <point x="382.235" y="465.65599999999995"/>
      <point x="405.308" y="465.65599999999995" type="curve" smooth="yes"/>
      <point x="433.67699999999996" y="465.65599999999995"/>
      <point x="443.27799999999996" y="447.787"/>
      <point x="443.27799999999996" y="423.66900000000004" type="curve" smooth="yes"/>
      <point x="443.27799999999996" y="397.708"/>
      <point x="389.05899999999997" y="96.515"/>
      <point x="389.05899999999997" y="56.224" type="curve" smooth="yes"/>
      <point x="389.05899999999997" y="14.347999999999999"/>
      <point x="416.498" y="-10.0"/>
    </contour>
  </outline>
</glyph>
<glyph name="n" format="2">
  <advance width="368.86400000000003"/>
  <unicode hex="006E"/>
  <note>
16
</note>
  <anchor x="152.784" y="0.0" name="bottom"/>
  <anchor x="223.049" y="538.6" name="top"/>
  <outline>
    <contour>
      <point x="82.74600000000001" y="538.6" type="line"/>
      <point x="-2.4869999999999988" y="0.0" type="line"/>
      <point x="83.20599999999999" y="0.0" type="line"/>
      <point x="153.62800000000001" y="442.35" type="line"/>
      <point x="175.123" y="456.20099999999996"/>
      <point x="200.951" y="466.298"/>
      <point x="221.962" y="466.298" type="curve" smooth="yes"/>
      <point x="253.109" y="466.298"/>
      <point x="263.01" y="448.088"/>
      <point x="263.01" y="423.884" type="curve" smooth="yes"/>
      <point x="263.01" y="394.99"/>
      <point x="208.74799999999996" y="96.94500000000001"/>
      <point x="208.74799999999996" y="53.128" type="curve" smooth="yes"/>
      <point x="208.74799999999996" y="17.057"/>
      <point x="235.218" y="-10.0"/>
      <point x="275.907" y="-10.0" type="curve" smooth="yes"/>
      <point x="294.678" y="-10.0"/>
      <point x="315.883" y="-5.331"/>
      <point x="332.448" y="4.7219999999999995" type="curve"/>
      <point x="338.682" y="77.384" type="line"/>
      <point x="330.366" y="74.104"/>
      <point x="323.7710000000001" y="73.377"/>
      <point x="318.74899999999997" y="73.377" type="curve" smooth="yes"/>
      <point x="303.91" y="73.377"/>
      <point x="297.884" y="80.295"/>
      <point x="297.884" y="93.839" type="curve" smooth="yes"/>
      <point x="297.884" y="117.336"/>
      <point x="354.103" y="431.50199999999995"/>
      <point x="354.103" y="461.871" type="curve" smooth="yes"/>
      <point x="354.103" y="514.768"/>
      <point x="327.113" y="548.6"/>
      <point x="270.828" y="548.6" type="curve" smooth="yes"/>
      <point x="233.49499999999998" y="548.6"/>
      <point x="193.86" y="535.235"/>
      <point x="156.155" y="508.69200000000006" type="curve"/>
      <point x="160.91400000000002" y="538.6" type="line"/>
    </contour>
  </outline>
</glyph>
<glyph name="o" format="2">
  <advance width="359.505"/>
  <unicode hex="006F"/>
  <note>
8
</note>
  <anchor x="139.29500000000002" y="0.0" name="bottom"/>
  <anchor x="180.73" y="269.87" name="center"/>
  <anchor x="194.745" y="0.35000000000000003" name="ogonek"/>
  <anchor x="218.145" y="538.6" name="top"/>
  <anchor x="294.075" y="529.1700000000001" name="topright"/>
  <outline>
    <contour>
      <point x="149.05" y="-10.0" type="curve" smooth="yes"/>
      <point x="291.48" y="-10.0"/>
      <point x="342.2" y="234.18000000000004"/>
      <point x="342.2" y="399.555" type="curve" smooth="yes"/>
      <point x="342.2" y="507.23499999999996"/>
      <point x="299.885" y="548.71"/>
      <point x="208.925" y="548.71" type="curve" smooth="yes"/>
      <point x="65.31" y="548.71"/>
      <point x="14.915000000000003" y="301.31"/>
      <point x="14.915000000000003" y="139.29999999999998" type="curve" smooth="yes"/>
      <point x="14.915000000000003" y="31.98"/>
      <point x="56.91" y="-10.0"/>
    </contour>
    <contour>
      <point x="149.12" y="68.74000000000001" type="curve" smooth="yes"/>
      <point x="117.21" y="68.74000000000001"/>
      <point x="98.525" y="83.895"/>
      <point x="98.525" y="139.015" type="curve" smooth="yes"/>
      <point x="98.525" y="219.68"/>
      <point x="134.59" y="469.96999999999997"/>
      <point x="208.675" y="469.96999999999997" type="curve" smooth="yes"/>
      <point x="239.37" y="469.96999999999997"/>
      <point x="258.80499999999995" y="455.285"/>
      <point x="258.80499999999995" y="401.74" type="curve" smooth="yes"/>
      <point x="258.80499999999995" y="316.59999999999997"/>
      <point x="222.88" y="68.74000000000001"/>
    </contour>
  </outline>
</glyph>
<glyph name="p" format="2">
  <advance width="366.79249999999996"/>
  <unicode hex="0070"/>
  <note>
14 point
</note>
  <outline>
    <contour>
      <point x="-34.931" y="-210.0" type="line"/>
      <point x="49.883500000000005" y="-210.0" type="line"/>
      <point x="83.05449999999999" y="-1.702" type="line"/>
      <point x="98.9045" y="-6.026"/>
      <point x="117.4615" y="-9.2475"/>
      <point x="141.7255" y="-9.2475" type="curve" smooth="yes"/>
      <point x="276.505" y="-9.2475"/>
      <point x="351.407" y="181.13"/>
      <point x="351.407" y="381.5435" type="curve" smooth="yes"/>
      <point x="351.407" y="494.70700000000005"/>
      <point x="319.2765" y="548.6"/>
      <point x="251.566" y="548.6" type="curve" smooth="yes"/>
      <point x="213.7235" y="548.6"/>
      <point x="186.484" y="532.0409999999999"/>
      <point x="161.8475" y="514.6875000000001" type="curve"/>
      <point x="160.45000000000002" y="543.7299999999999" type="line"/>
      <point x="83.815" y="543.7299999999999" type="line"/>
    </contour>
    <contour>
      <point x="132.80149999999998" y="66.64450000000001" type="curve" smooth="yes"/>
      <point x="119.01700000000001" y="66.64450000000001"/>
      <point x="106.05" y="68.85449999999999"/>
      <point x="95.29949999999998" y="73.31199999999998" type="curve"/>
      <point x="154.0605" y="445.0275" type="line"/>
      <point x="170.8025" y="456.198"/>
      <point x="194.2055" y="464.86049999999994"/>
      <point x="212.40850000000003" y="464.86049999999994" type="curve" smooth="yes"/>
      <point x="246.50500000000002" y="464.86049999999994"/>
      <point x="264.03700000000003" y="436.4725"/>
      <point x="264.03700000000003" y="369.779" type="curve" smooth="yes"/>
      <point x="264.03700000000003" y="222.4125"/>
      <point x="211.90499999999997" y="66.64450000000001"/>
    </contour>
  </outline>
</glyph>
<glyph name="q" format="2">
  <advance width="364.516"/>
  <unicode hex="0071"/>
  <note>
12
</note>
  <outline>
    <contour>
      <point x="363.68149999999997" y="526.966" type="line"/>
      <point x="332.9335" y="537.6795000000001"/>
      <point x="287.69750000000005" y="548.6"/>
      <point x="240.48749999999998" y="548.6" type="curve" smooth="yes"/>
      <point x="80.26849999999999" y="548.6"/>
      <point x="13.783" y="330.34049999999996"/>
      <point x="13.783" y="142.086" type="curve" smooth="yes"/>
      <point x="13.783" y="39.4355"/>
      <point x="53.459" y="-10.0"/>
      <point x="117.846" y="-10.0" type="curve" smooth="yes"/>
      <point x="148.39950000000002" y="-10.0"/>
      <point x="174.4875" y="2.1905000000000006"/>
      <point x="197.007" y="19.291500000000003" type="curve"/>
      <point x="159.74650000000003" y="-210.0" type="line"/>
      <point x="245.67000000000002" y="-210.0" type="line"/>
    </contour>
    <contour>
      <point x="267.6465" y="464.4035" type="curve"/>
      <point x="208.7145" y="93.58550000000001" type="line"/>
      <point x="191.321" y="79.93299999999999"/>
      <point x="170.83149999999995" y="73.0945"/>
      <point x="153.1465" y="73.0945" type="curve" smooth="yes"/>
      <point x="119.506" y="73.0945"/>
      <point x="101.689" y="107.18599999999999"/>
      <point x="101.689" y="150.5805" type="curve" smooth="yes"/>
      <point x="101.689" y="285.848"/>
      <point x="142.7075" y="471.1785"/>
      <point x="229.112" y="471.1785" type="curve" smooth="yes"/>
      <point x="242.0025" y="471.1785"/>
      <point x="255.515" y="468.348"/>
    </contour>
  </outline>
</glyph>
<glyph name="r" format="2">
  <advance width="253.27499999999998"/>
  <unicode hex="0072"/>
  <anchor x="39.408" y="0.0" name="bottom"/>
  <anchor x="197.06999999999996" y="538.6" name="top"/>
  <outline>
    <contour>
      <point x="160.513" y="538.6" type="line"/>
      <point x="82.83200000000001" y="538.6" type="line"/>
      <point x="-2.529999999999999" y="0.0" type="line"/>
      <point x="82.031" y="0.0" type="line"/>
      <point x="148.00900000000001" y="413.686" type="line"/>
      <point x="179.421" y="442.967"/>
      <point x="205.12" y="453.917"/>
      <point x="231.05300000000003" y="453.917" type="curve" smooth="yes"/>
      <point x="243.259" y="453.917"/>
      <point x="259.06300000000005" y="451.8469999999999"/>
      <point x="273.077" y="447.28999999999996" type="curve"/>
      <point x="301.09" y="539.941" type="line"/>
      <point x="286.271" y="546.459"/>
      <point x="271.19" y="548.6"/>
      <point x="254.336" y="548.6" type="curve" smooth="yes"/>
      <point x="221.977" y="548.6"/>
      <point x="188.922" y="531.0040000000001"/>
      <point x="153.08400000000003" y="493.64700000000005" type="curve"/>
    </contour>
  </outline>
</glyph>
<glyph name="s" format="2">
  <advance width="307.15500000000003"/>
  <unicode hex="0073"/>
  <anchor x="109.20500000000001" y="0.0" name="bottom"/>
  <anchor x="207.04" y="538.6" name="top"/>
  <outline>
    <contour>
      <point x="-20.49" y="15.845000000000002" type="line"/>
      <point x="12.685" y="-0.20500000000000007"/>
      <point x="52.065" y="-10.0"/>
      <point x="104.41" y="-10.0" type="curve" smooth="yes"/>
      <point x="213.12" y="-10.0"/>
      <point x="274.86499999999995" y="55.559999999999995"/>
      <point x="274.86499999999995" y="159.755" type="curve" smooth="yes"/>
      <point x="274.86499999999995" y="294.735"/>
      <point x="126.44" y="309.83500000000004"/>
      <point x="126.44" y="395.26" type="curve" smooth="yes"/>
      <point x="126.44" y="437.05499999999995"/>
      <point x="151.61" y="468.36"/>
      <point x="204.515" y="468.36" type="curve" smooth="yes"/>
      <point x="234.27" y="468.36"/>
      <point x="266.48" y="459.71500000000003"/>
      <point x="292.645" y="449.065" type="curve"/>
      <point x="316.625" y="526.7299999999999" type="line"/>
      <point x="292.57" y="539.345"/>
      <point x="253.145" y="548.6"/>
      <point x="211.205" y="548.6" type="curve" smooth="yes"/>
      <point x="95.23" y="548.6"/>
      <point x="43.19" y="470.94"/>
      <point x="43.19" y="385.15" type="curve" smooth="yes"/>
      <point x="43.19" y="241.59"/>
      <point x="191.47500000000002" y="235.125"/>
      <point x="191.47500000000002" y="148.615" type="curve" smooth="yes"/>
      <point x="191.47500000000002" y="106.61999999999999"/>
      <point x="164.52499999999998" y="68.95"/>
      <point x="107.69500000000001" y="68.95" type="curve" smooth="yes"/>
      <point x="73.75999999999999" y="68.95"/>
      <point x="33.76" y="78.46000000000001"/>
      <point x="5.675000000000001" y="91.5" type="curve"/>
    </contour>
  </outline>
</glyph>
<glyph name="t" format="2">
  <advance width="238.334"/>
  <unicode hex="0074"/>
  <anchor x="110.325" y="0.0" name="bottom"/>
  <anchor x="113.21600000000001" y="304.754" name="center"/>
  <anchor x="163.21999999999997" y="660.7429999999999" name="top"/>
  <anchor x="278.70900000000006" y="754.96" name="topright"/>
  <outline>
    <contour>
      <point x="202.444" y="80.28000000000002" type="line"/>
      <point x="187.207" y="76.226"/>
      <point x="173.84999999999997" y="73.54299999999999"/>
      <point x="161.819" y="73.54299999999999" type="curve" smooth="yes"/>
      <point x="128.694" y="73.54299999999999"/>
      <point x="115.982" y="91.03099999999998"/>
      <point x="115.982" y="122.80799999999999" type="curve" smooth="yes"/>
      <point x="115.982" y="132.743"/>
      <point x="117.452" y="143.63499999999996"/>
      <point x="119.079" y="156.49599999999998" type="curve" smooth="yes"/>
      <point x="168.17600000000002" y="462.13699999999994" type="line"/>
      <point x="265.713" y="462.13699999999994" type="line"/>
      <point x="278.81800000000004" y="538.6" type="line"/>
      <point x="181.152" y="538.6" type="line"/>
      <point x="200.188" y="660.7429999999999" type="line"/>
      <point x="127.40599999999999" y="660.7429999999999" type="line"/>
      <point x="96.018" y="538.6" type="line"/>
      <point x="42.876" y="531.998" type="line"/>
      <point x="30.799999999999997" y="462.524" type="line"/>
      <point x="82.784" y="462.524" type="line"/>
      <point x="32.568999999999996" y="147.98199999999997" type="line" smooth="yes"/>
      <point x="28.709" y="124.948"/>
      <point x="26.061" y="97.34"/>
      <point x="26.061" y="79.598" type="curve" smooth="yes"/>
      <point x="26.061" y="15.041"/>
      <point x="61.830000000000005" y="-10.0"/>
      <point x="115.161" y="-10.0" type="curve" smooth="yes"/>
      <point x="143.186" y="-10.0"/>
      <point x="170.796" y="-4.691999999999999"/>
      <point x="197.31" y="6.979000000000001" type="curve"/>
    </contour>
  </outline>
</glyph>
<glyph name="u" format="2">
  <advance width="366.78000000000003"/>
  <unicode hex="0075"/>
  <note>
15
</note>
  <anchor x="142.294" y="0.0" name="bottom"/>
  <anchor x="329.59499999999997" y="6.923" name="ogonek"/>
  <anchor x="222.527172" y="538.6" name="top"/>
  <anchor x="351.617" y="538.6" name="topright"/>
  <outline>
    <contour>
      <point x="96.46900000000001" y="-10.0" type="curve" smooth="yes"/>
      <point x="136.16400000000002" y="-10.0"/>
      <point x="169.007" y="4.965"/>
      <point x="208.13799999999998" y="36.059" type="curve"/>
      <point x="215.009" y="7.379"/>
      <point x="238.565" y="-10.0"/>
      <point x="270.598" y="-10.0" type="curve" smooth="yes"/>
      <point x="288.40200000000004" y="-10.0"/>
      <point x="313.74" y="-3.219"/>
      <point x="329.59499999999997" y="7.396" type="curve"/>
      <point x="335.287" y="77.51" type="line"/>
      <point x="326.613" y="74.101"/>
      <point x="317.682" y="72.39099999999999"/>
      <point x="312.78900000000004" y="72.39099999999999" type="curve" smooth="yes"/>
      <point x="298.76300000000003" y="72.39099999999999"/>
      <point x="293.92299999999994" y="80.797"/>
      <point x="293.92299999999994" y="94.73400000000001" type="curve" smooth="yes"/>
      <point x="293.92299999999994" y="103.282"/>
      <point x="295.949" y="119.205"/>
      <point x="363.22700000000003" y="538.6" type="curve"/>
      <point x="278.552" y="538.6" type="line"/>
      <point x="208.45600000000002" y="96.772" type="line"/>
      <point x="184.04" y="79.957"/>
      <point x="161.87699999999998" y="71.44200000000001"/>
      <point x="138.911" y="71.44200000000001" type="curve" smooth="yes"/>
      <point x="113.23400000000001" y="71.44200000000001"/>
      <point x="99.61100000000002" y="88.86"/>
      <point x="100.38499999999999" y="112.775" type="curve" smooth="yes"/>
      <point x="107.351" y="166.851"/>
      <point x="117.08" y="228.156"/>
      <point x="165.969" y="538.6" type="curve"/>
      <point x="80.964" y="538.6" type="line"/>
      <point x="33.21" y="232.73399999999998"/>
      <point x="10.736" y="120.604"/>
      <point x="10.736" y="72.66000000000001" type="curve" smooth="yes"/>
      <point x="10.736" y="23.666"/>
      <point x="41.161" y="-10.0"/>
    </contour>
  </outline>
</glyph>
<glyph name="v" format="2">
  <advance width="334.12100000000004"/>
  <unicode hex="0076"/>
  <outline>
    <contour>
      <point x="174.22699999999998" y="-1.9520000000000002" type="line"/>
      <point x="288.721" y="282.457"/>
      <point x="351.10900000000004" y="400.205"/>
      <point x="354.71299999999997" y="538.6" type="curve"/>
      <point x="266.475" y="538.6" type="line"/>
      <point x="263.92100000000005" y="422.74899999999997"/>
      <point x="232.76700000000002" y="352.431"/>
      <point x="134.27299999999997" y="89.05499999999999" type="curve"/>
      <point x="135.72899999999998" y="539.1700000000001" type="line"/>
      <point x="45.556" y="538.721" type="line"/>
      <point x="66.305" y="-1.9520000000000002" type="line"/>
    </contour>
  </outline>
</glyph>
<glyph name="w" format="2">
  <advance width="531.673"/>
  <unicode hex="0077"/>
  <note>
15
</note>
  <anchor x="229.34099999999998" y="0.0" name="bottom"/>
  <anchor x="295.601" y="538.6" name="top"/>
  <outline>
    <contour>
      <point x="386.049" y="0.0" type="line"/>
      <point x="500.18699999999995" y="307.373"/>
      <point x="544.915" y="404.361"/>
      <point x="549.819" y="538.6" type="curve"/>
      <point x="465.064" y="538.6" type="line"/>
      <point x="457.214" y="417.873"/>
      <point x="434.127" y="345.705"/>
      <point x="348.48699999999997" y="93.95" type="curve"/>
      <point x="349.079" y="508.43300000000005" type="line"/>
      <point x="252.853" y="508.43300000000005" type="line"/>
      <point x="211.636" y="367.84499999999997"/>
      <point x="171.204" y="231.256"/>
      <point x="129.471" y="92.47399999999999" type="curve"/>
      <point x="131.57" y="539.1700000000001" type="line"/>
      <point x="43.437" y="538.764" type="line"/>
      <point x="60.315000000000005" y="0.0" type="line"/>
      <point x="166.30200000000002" y="0.0" type="line"/>
      <point x="204.50900000000001" y="126.215"/>
      <point x="243.466" y="255.201"/>
      <point x="280.641" y="380.556" type="curve"/>
      <point x="285.13599999999997" y="0.0" type="line"/>
    </contour>
  </outline>
</glyph>
<glyph name="x" format="2">
  <advance width="348.995"/>
  <unicode hex="0078"/>
  <outline>
    <contour>
      <point x="276.85249999999996" y="538.6" type="line"/>
      <point x="272.53249999999997" y="469.59749999999997"/>
      <point x="247.9575" y="407.26"/>
      <point x="187.61999999999998" y="322.4875" type="curve"/>
      <point x="150.4775" y="541.8449999999999" type="line"/>
      <point x="56.830000000000005" y="538.385" type="line"/>
      <point x="114.67750000000001" y="276.4525" type="line"/>
      <point x="35.1825" y="178.54250000000002"/>
      <point x="-10.182500000000001" y="89.11000000000001"/>
      <point x="-18.485000000000003" y="0.0" type="curve"/>
      <point x="72.51" y="0.0" type="line"/>
      <point x="79.19" y="74.265"/>
      <point x="111.60000000000001" y="143.10250000000002"/>
      <point x="167.08499999999998" y="219.225" type="curve"/>
      <point x="206.5525" y="-1.495" type="line"/>
      <point x="301.1325" y="0.8925000000000001" type="line"/>
      <point x="239.34749999999997" y="267.0125" type="line"/>
      <point x="326.11" y="372.5675"/>
      <point x="361.9775" y="477.99"/>
      <point x="366.5175" y="538.6" type="curve"/>
    </contour>
  </outline>
</glyph>
<glyph name="y" format="2">
  <advance width="335.505"/>
  <unicode hex="0079"/>
  <anchor x="104.19999999999999" y="-210.0" name="bottom"/>
  <anchor x="199.07999999999998" y="538.6" name="top"/>
  <outline>
    <contour>
      <point x="272.915" y="543.7299999999999" type="line"/>
      <point x="253.58999999999997" y="371.93499999999995"/>
      <point x="203.56" y="229.155"/>
      <point x="146.795" y="85.565" type="curve"/>
      <point x="126.85000000000001" y="544.3" type="line"/>
      <point x="40.77" y="542.875" type="line"/>
      <point x="69.63" y="-0.5700000000000001" type="line"/>
      <point x="102.725" y="-0.5700000000000001" type="line"/>
      <point x="73.30999999999999" y="-70.72"/>
      <point x="37.88" y="-137.1"/>
      <point x="-3.58" y="-209.715" type="curve"/>
      <point x="84.3" y="-215.7" type="line"/>
      <point x="217.26500000000001" y="45.51"/>
      <point x="328.835" y="299.43"/>
      <point x="358.64" y="541.735" type="curve"/>
    </contour>
  </outline>
</glyph>
<glyph name="z" format="2">
  <advance width="325.25300000000004"/>
  <unicode hex="007A"/>
  <anchor x="131.98899999999998" y="0.0" name="bottom"/>
  <anchor x="160.028" y="275.0" name="center"/>
  <anchor x="207.85399999999998" y="538.6" name="top"/>
  <outline>
    <contour>
      <point x="-16.23" y="0.0" type="line"/>
      <point x="274.139" y="0.0" type="line"/>
      <point x="286.427" y="78.735" type="line"/>
      <point x="90.97200000000001" y="78.735" type="line"/>
      <point x="330.07599999999996" y="462.593" type="line"/>
      <point x="344.538" y="538.6" type="line"/>
      <point x="73.187" y="538.6" type="line"/>
      <point x="60.468999999999994" y="459.091" type="line"/>
      <point x="236.56199999999998" y="459.091" type="line"/>
      <point x="-5.544" y="71.105" type="line"/>
    </contour>
  </outline>
</glyph>
<glyph name="braceleft" format="2">
  <advance width="235.118"/>
  <unicode hex="007B"/>
  <outline>
    <contour>
      <point x="8.14" y="-106.375" type="curve" smooth="yes"/>
      <point x="8.14" y="-173.79000000000002"/>
      <point x="39.024" y="-210.0"/>
      <point x="89.002" y="-210.0" type="curve" smooth="yes"/>
      <point x="134.522" y="-210.0" type="line"/>
      <point x="147.369" y="-134.53" type="line"/>
      <point x="123.26299999999999" y="-134.53" type="line" smooth="yes"/>
      <point x="96.714" y="-134.53"/>
      <point x="85.551" y="-113.355"/>
      <point x="85.551" y="-81.296" type="curve" smooth="yes"/>
      <point x="85.551" y="15.376"/>
      <point x="149.84500000000003" y="98.66199999999999"/>
      <point x="149.84500000000003" y="191.556" type="curve" smooth="yes"/>
      <point x="149.84500000000003" y="222.96000000000004"/>
      <point x="143.019" y="252.176"/>
      <point x="117.794" y="269.56" type="curve"/>
      <point x="166.89900000000003" y="291.016"/>
      <point x="187.975" y="362.318"/>
      <point x="187.975" y="421.65" type="curve" smooth="yes"/>
      <point x="187.975" y="462.01500000000004"/>
      <point x="184.743" y="489.234"/>
      <point x="184.743" y="538.395" type="curve" smooth="yes"/>
      <point x="184.743" y="596.142"/>
      <point x="200.495" y="664.5300000000001"/>
      <point x="253.465" y="664.5300000000001" type="curve" smooth="yes"/>
      <point x="274.745" y="664.5300000000001" type="line"/>
      <point x="286.81800000000004" y="740.0" type="line"/>
      <point x="243.863" y="740.0" type="line" smooth="yes"/>
      <point x="143.22500000000002" y="740.0"/>
      <point x="110.07000000000001" y="632.4870000000001"/>
      <point x="110.07000000000001" y="530.037" type="curve" smooth="yes"/>
      <point x="110.07000000000001" y="480.972"/>
      <point x="114.42" y="451.654"/>
      <point x="114.42" y="417.999" type="curve" smooth="yes"/>
      <point x="114.42" y="371.69000000000005"/>
      <point x="106.18299999999999" y="309.313"/>
      <point x="66.504" y="309.313" type="curve" smooth="yes"/>
      <point x="52.702999999999996" y="309.313" type="line"/>
      <point x="40.243" y="231.016" type="line"/>
      <point x="53.075" y="231.016" type="line" smooth="yes"/>
      <point x="73.366" y="231.016"/>
      <point x="78.85200000000002" y="214.50799999999998"/>
      <point x="78.85200000000002" y="192.22000000000003" type="curve" smooth="yes"/>
      <point x="78.85200000000002" y="98.75300000000001"/>
      <point x="8.14" y="10.95"/>
    </contour>
  </outline>
</glyph>
<glyph name="bar" format="2">
  <advance width="149.07799999999997"/>
  <unicode hex="007C"/>
  <outline>
    <contour>
      <point x="193.35999999999999" y="790.387" type="line"/>
      <point x="119.46" y="790.387" type="line"/>
      <point x="-39.669" y="-210.0" type="line"/>
      <point x="34.575" y="-210.0" type="line"/>
    </contour>
  </outline>
</glyph>
<glyph name="braceright" format="2">
  <advance width="235.118"/>
  <unicode hex="007D"/>
  <outline>
    <contour>
      <point x="223.921" y="636.375" type="curve" smooth="yes"/>
      <point x="223.921" y="704.1769999999999"/>
      <point x="192.65" y="740.387"/>
      <point x="142.672" y="740.387" type="curve" smooth="yes"/>
      <point x="97.152" y="740.387" type="line"/>
      <point x="84.30499999999999" y="664.917" type="line"/>
      <point x="104.541" y="664.917" type="line" smooth="yes"/>
      <point x="131.477" y="664.917"/>
      <point x="143.02700000000002" y="643.355"/>
      <point x="143.02700000000002" y="611.296" type="curve" smooth="yes"/>
      <point x="143.02700000000002" y="513.8500000000001"/>
      <point x="78.733" y="442.92100000000005"/>
      <point x="78.733" y="341.9" type="curve" smooth="yes"/>
      <point x="78.733" y="311.657"/>
      <point x="85.17200000000001" y="282.441"/>
      <point x="111.171" y="265.444" type="curve"/>
      <point x="62.066" y="243.601"/>
      <point x="40.603" y="173.07299999999998"/>
      <point x="40.603" y="113.35400000000001" type="curve" smooth="yes"/>
      <point x="40.603" y="72.989"/>
      <point x="43.835" y="41.153"/>
      <point x="43.835" y="-7.233999999999999" type="curve" smooth="yes"/>
      <point x="43.835" y="-64.981"/>
      <point x="28.47" y="-134.143"/>
      <point x="-24.5" y="-134.143" type="curve" smooth="yes"/>
      <point x="-42.684000000000005" y="-134.143" type="line"/>
      <point x="-54.757000000000005" y="-210.0" type="line"/>
      <point x="-12.189" y="-210.0" type="line" smooth="yes"/>
      <point x="88.44900000000001" y="-210.0"/>
      <point x="121.60400000000001" y="-97.456"/>
      <point x="121.60400000000001" y="-7.390000000000001" type="curve" smooth="yes"/>
      <point x="121.60400000000001" y="52.124"/>
      <point x="117.254" y="87.607"/>
      <point x="117.254" y="118.55300000000001" type="curve" smooth="yes"/>
      <point x="117.254" y="164.088"/>
      <point x="126.265" y="225.691"/>
      <point x="165.17000000000002" y="225.691" type="curve" smooth="yes"/>
      <point x="178.971" y="225.691" type="line"/>
      <point x="191.43099999999998" y="303.60099999999994" type="line"/>
      <point x="178.599" y="303.60099999999994" type="line" smooth="yes"/>
      <point x="158.308" y="303.60099999999994"/>
      <point x="152.822" y="320.109"/>
      <point x="152.822" y="342.397" type="curve" smooth="yes"/>
      <point x="152.822" y="436.251"/>
      <point x="223.921" y="513.6320000000001"/>
    </contour>
  </outline>
</glyph>
<glyph name="asciitilde" format="2">
  <advance width="388.961"/>
  <unicode hex="007E"/>
  <outline>
    <contour>
      <point x="329.462" y="245.73000000000002" type="curve"/>
      <point x="342.32" y="329.153" type="line"/>
      <point x="319.094" y="304.14"/>
      <point x="298.993" y="293.389"/>
      <point x="274.997" y="293.389" type="curve" smooth="yes"/>
      <point x="214.02" y="293.389"/>
      <point x="199.70299999999997" y="389.56999999999994"/>
      <point x="138.10999999999999" y="389.56999999999994" type="curve" smooth="yes"/>
      <point x="107.57000000000001" y="389.56999999999994"/>
      <point x="81.806" y="372.777"/>
      <point x="68.653" y="356.885" type="curve"/>
      <point x="55.58" y="273.405" type="line"/>
      <point x="70.89200000000001" y="291.41"/>
      <point x="95.883" y="308.768"/>
      <point x="124.695" y="308.768" type="curve" smooth="yes"/>
      <point x="183.078" y="308.768"/>
      <point x="197.593" y="212.58700000000002"/>
      <point x="262.869" y="212.58700000000002" type="curve" smooth="yes"/>
      <point x="287.687" y="212.58700000000002"/>
      <point x="307.677" y="222.428"/>
    </contour>
  </outline>
</glyph>
<glyph name="cent" format="2">
  <advance width="394.878"/>
  <unicode hex="00A2"/>
  <outline>
    <contour>
      <point x="130.61100000000002" y="-105.34400000000001" type="line"/>
      <point x="205.027" y="-105.34400000000001" type="line"/>
      <point x="220.457" y="-6.804000000000001" type="line"/>
      <point x="248.802" y="-4.372000000000001"/>
      <point x="274.591" y="0.5880000000000001"/>
      <point x="292.594" y="7.836" type="curve"/>
      <point x="290.77" y="92.97899999999998" type="line"/>
      <point x="269.2" y="87.351"/>
      <point x="242.726" y="82.364"/>
      <point x="223.525" y="82.364" type="curve" smooth="yes"/>
      <point x="173.652" y="82.364"/>
      <point x="155.571" y="118.78"/>
      <point x="155.571" y="176.51" type="curve" smooth="yes"/>
      <point x="155.571" y="323.599"/>
      <point x="205.698" y="454.60799999999995"/>
      <point x="282.122" y="454.60799999999995" type="curve" smooth="yes"/>
      <point x="302.592" y="454.60799999999995"/>
      <point x="321.018" y="450.89700000000005"/>
      <point x="340.281" y="444.93799999999993" type="curve"/>
      <point x="368.55199999999996" y="534.389" type="line"/>
      <point x="351.08" y="539.8910000000001"/>
      <point x="333.146" y="544.392"/>
      <point x="311.137" y="546.152" type="curve"/>
      <point x="327.12300000000005" y="643.213" type="line"/>
      <point x="252.70700000000002" y="643.213" type="line"/>
      <point x="235.818" y="539.86" type="line"/>
      <point x="126.80600000000001" y="507.51599999999996"/>
      <point x="64.503" y="329.52099999999996"/>
      <point x="64.503" y="143.01" type="curve" smooth="yes"/>
      <point x="64.503" y="50.428999999999995"/>
      <point x="98.542" y="10.547"/>
      <point x="145.944" y="-2.4210000000000003" type="curve"/>
    </contour>
  </outline>
</glyph>
<glyph name="sterling" format="2">
  <advance width="395.13599999999997"/>
  <unicode hex="00A3"/>
  <outline>
    <contour>
      <point x="25.406" y="0.0" type="line"/>
      <point x="299.4" y="0.0" type="line"/>
      <point x="312.075" y="81.705" type="line"/>
      <point x="139.11200000000002" y="81.705" type="line"/>
      <point x="188.142" y="143.888"/>
      <point x="221.29" y="204.72600000000003"/>
      <point x="221.29" y="295.403" type="curve" smooth="yes"/>
      <point x="221.29" y="349.84"/>
      <point x="204.38400000000001" y="403.004"/>
      <point x="204.38400000000001" y="457.427" type="curve" smooth="yes"/>
      <point x="204.38400000000001" y="574.226"/>
      <point x="257.26800000000003" y="621.0129999999999"/>
      <point x="309.146" y="621.0129999999999" type="curve" smooth="yes"/>
      <point x="333.748" y="621.0129999999999"/>
      <point x="355.28000000000003" y="617.0179999999999"/>
      <point x="379.289" y="605.8639999999999" type="curve"/>
      <point x="406.433" y="684.05" type="line"/>
      <point x="377.745" y="701.0509999999999"/>
      <point x="341.58" y="710.0"/>
      <point x="306.891" y="710.0" type="curve" smooth="yes"/>
      <point x="193.165" y="710.0"/>
      <point x="121.01" y="612.574"/>
      <point x="121.01" y="471.02700000000004" type="curve" smooth="yes"/>
      <point x="121.01" y="393.781"/>
      <point x="141.01500000000001" y="350.909"/>
      <point x="141.01500000000001" y="284.514" type="curve" smooth="yes"/>
      <point x="141.01500000000001" y="189.467"/>
      <point x="92.28099999999999" y="124.487"/>
      <point x="33.618" y="64.075" type="curve"/>
    </contour>
    <contour>
      <point x="66.85" y="329.006" type="line"/>
      <point x="323.53299999999996" y="329.034" type="line"/>
      <point x="332.553" y="392.296" type="line"/>
      <point x="76.515" y="392.296" type="line"/>
    </contour>
  </outline>
</glyph>
<glyph name="currency" format="2">
  <advance width="389.417"/>
  <unicode hex="00A4"/>
  <outline>
    <contour>
      <point x="54.835" y="105.733" type="line"/>
      <point x="124.91699999999999" y="172.004" type="line"/>
      <point x="138.23299999999998" y="159.744"/>
      <point x="156.468" y="153.43099999999998"/>
      <point x="177.99699999999999" y="153.43099999999998" type="curve" smooth="yes"/>
      <point x="198.781" y="153.43099999999998"/>
      <point x="219.009" y="159.801"/>
      <point x="236.387" y="171.66" type="curve"/>
      <point x="286.066" y="105.733" type="line"/>
      <point x="346.113" y="162.43200000000002" type="line"/>
      <point x="300.02000000000004" y="223.414" type="line"/>
      <point x="318.277" y="246.053"/>
      <point x="330.429" y="275.547"/>
      <point x="331.203" y="307.037" type="curve" smooth="yes"/>
      <point x="331.977" y="325.69100000000003"/>
      <point x="328.514" y="343.136"/>
      <point x="321.81399999999996" y="358.714" type="curve"/>
      <point x="386.922" y="419.696" type="line"/>
      <point x="344.89" y="476.39500000000004" type="line"/>
      <point x="275.43899999999996" y="411.62899999999996" type="line"/>
      <point x="261.581" y="423.545"/>
      <point x="243.189" y="430.815"/>
      <point x="221.975" y="430.815" type="curve" smooth="yes"/>
      <point x="200.05899999999997" y="430.815"/>
      <point x="179.15699999999998" y="423.158"/>
      <point x="161.09099999999998" y="411.285" type="curve"/>
      <point x="113.61600000000001" y="476.39500000000004" type="line"/>
      <point x="53.821000000000005" y="419.696" type="line"/>
      <point x="99.264" y="357.50699999999995" type="line"/>
      <point x="81.638" y="335.573"/>
      <point x="70.44300000000001" y="307.66700000000003"/>
      <point x="69.66900000000001" y="277.39500000000004" type="curve" smooth="yes"/>
      <point x="68.89500000000001" y="257.985"/>
      <point x="71.971" y="239.898"/>
      <point x="78.714" y="224.564" type="curve"/>
      <point x="12.969000000000001" y="162.43200000000002" type="line"/>
    </contour>
    <contour>
      <point x="188.48999999999998" y="214.926" type="curve" smooth="yes"/>
      <point x="152.72299999999998" y="214.926"/>
      <point x="128.748" y="242.069"/>
      <point x="129.909" y="279.864" type="curve" smooth="yes"/>
      <point x="131.07" y="328.415"/>
      <point x="170.244" y="368.93300000000005"/>
      <point x="212.39600000000002" y="368.93300000000005" type="curve" smooth="yes"/>
      <point x="248.719" y="368.93300000000005"/>
      <point x="271.794" y="340.6"/>
      <point x="270.633" y="303.166" type="curve" smooth="yes"/>
      <point x="269.4719999999999" y="254.225"/>
      <point x="231.183" y="214.926"/>
    </contour>
  </outline>
</glyph>
<glyph name="yen" format="2">
  <advance width="395.15000000000003"/>
  <unicode hex="00A5"/>
  <outline>
    <contour>
      <point x="73.0" y="322.86" type="line"/>
      <point x="162.935" y="322.86" type="line"/>
      <point x="151.185" y="250.98" type="line"/>
      <point x="62.355000000000004" y="250.98" type="line"/>
      <point x="52.335" y="191.775" type="line"/>
      <point x="141.95" y="191.775" type="line"/>
      <point x="111.815" y="0.0" type="line"/>
      <point x="198.39999999999998" y="0.0" type="line"/>
      <point x="228.75" y="191.775" type="line"/>
      <point x="321.145" y="191.775" type="line"/>
      <point x="330.16499999999996" y="250.98" type="line"/>
      <point x="237.76999999999998" y="250.98" type="line"/>
      <point x="249.51999999999998" y="322.86" type="line"/>
      <point x="341.775" y="322.86" type="line"/>
      <point x="351.15000000000003" y="381.67" type="line"/>
      <point x="259.86" y="381.67" type="line"/>
      <point x="421.44500000000005" y="700.43" type="line"/>
      <point x="329.84" y="704.56" type="line"/>
      <point x="227.37500000000003" y="450.585" type="line"/>
      <point x="200.38" y="701.425" type="line"/>
      <point x="108.455" y="699.68" type="line"/>
      <point x="172.17000000000002" y="381.67" type="line"/>
      <point x="82.59" y="381.67" type="line"/>
    </contour>
  </outline>
</glyph>
<glyph name="brokenbar" format="2">
  <advance width="151.526"/>
  <unicode hex="00A6"/>
  <outline>
    <contour>
      <point x="130.865" y="391.0" type="line"/>
      <point x="195.68200000000002" y="790.387" type="line"/>
      <point x="121.78200000000001" y="790.387" type="line"/>
      <point x="56.965" y="391.0" type="line"/>
    </contour>
    <contour>
      <point x="24.761000000000003" y="190.387" type="line"/>
      <point x="-39.15599999999999" y="-210.0" type="line"/>
      <point x="34.701" y="-210.0" type="line"/>
      <point x="99.005" y="190.387" type="line"/>
    </contour>
  </outline>
</glyph>
<glyph name="section" format="2">
  <advance width="389.101"/>
  <unicode hex="00A7"/>
  <outline>
    <contour>
      <point x="4.982" y="-92.652" type="curve"/>
      <point x="-30.787" y="-181.967" type="line"/>
      <point x="2.1990000000000003" y="-207.468"/>
      <point x="47.382" y="-220.0"/>
      <point x="83.915" y="-220.0" type="curve" smooth="yes"/>
      <point x="238.57" y="-220.0"/>
      <point x="341.22700000000003" y="-36.629"/>
      <point x="341.22700000000003" y="148.471" type="curve" smooth="yes"/>
      <point x="341.22700000000003" y="303.42699999999996"/>
      <point x="257.874" y="410.875"/>
      <point x="257.874" y="544.244" type="curve" smooth="yes"/>
      <point x="257.874" y="604.716"/>
      <point x="283.42400000000004" y="651.358"/>
      <point x="325.759" y="651.358" type="curve" smooth="yes"/>
      <point x="338.348" y="651.358"/>
      <point x="348.416" y="647.057"/>
      <point x="362.29799999999994" y="639.8149999999999" type="curve"/>
      <point x="396.83500000000004" y="730.851" type="line"/>
      <point x="374.368" y="743.573"/>
      <point x="335.469" y="749.387"/>
      <point x="309.85699999999997" y="749.387" type="curve" smooth="yes"/>
      <point x="144.362" y="749.387"/>
      <point x="48.713" y="581.731"/>
      <point x="48.713" y="391.395" type="curve" smooth="yes"/>
      <point x="48.713" y="217.13"/>
      <point x="131.348" y="88.69399999999999"/>
      <point x="131.348" y="-32.054" type="curve" smooth="yes"/>
      <point x="131.348" y="-82.522"/>
      <point x="106.34" y="-122.659"/>
      <point x="67.63900000000001" y="-122.659" type="curve" smooth="yes"/>
      <point x="45.995999999999995" y="-122.659"/>
      <point x="23.076" y="-112.08"/>
    </contour>
    <contour>
      <point x="260.314" y="687.324" type="curve"/>
      <point x="216.073" y="651.507"/>
      <point x="196.92800000000003" y="590.101"/>
      <point x="196.92800000000003" y="533.941" type="curve" smooth="yes"/>
      <point x="196.92800000000003" y="385.567"/>
      <point x="276.74399999999997" y="281.08500000000004"/>
      <point x="276.74399999999997" y="127.80600000000001" type="curve" smooth="yes"/>
      <point x="276.74399999999997" y="-5.5219999999999985"/>
      <point x="205.149" y="-146.86800000000002"/>
      <point x="110.641" y="-160.487" type="curve"/>
      <point x="170.293" y="-129.065"/>
      <point x="193.68099999999998" y="-66.766"/>
      <point x="193.68099999999998" y="-5.242000000000007" type="curve" smooth="yes"/>
      <point x="193.68099999999998" y="125.11399999999999"/>
      <point x="113.70400000000001" y="252.105"/>
      <point x="113.70400000000001" y="396.72499999999997" type="curve" smooth="yes"/>
      <point x="113.70400000000001" y="532.2180000000001"/>
      <point x="164.03799999999998" y="651.145"/>
    </contour>
  </outline>
</glyph>
<glyph name="copyright" format="2">
  <advance width="505.47099999999995"/>
  <unicode hex="00A9"/>
  <outline>
    <contour>
      <point x="222.182" y="-10.085999999999999" type="curve" smooth="yes"/>
      <point x="401.69599999999997" y="-10.258000000000001"/>
      <point x="489.52299999999997" y="248.496"/>
      <point x="489.52299999999997" y="489.48099999999994" type="curve" smooth="yes"/>
      <point x="489.52299999999997" y="634.6920000000001"/>
      <point x="425.602" y="711.003"/>
      <point x="307.867" y="711.1750000000001" type="curve" smooth="yes"/>
      <point x="128.506" y="711.3470000000001"/>
      <point x="39.561" y="453.453"/>
      <point x="39.561" y="211.69400000000002" type="curve" smooth="yes"/>
      <point x="39.561" y="66.74099999999999"/>
      <point x="103.30999999999999" y="-9.914"/>
    </contour>
    <contour>
      <point x="249.109" y="145.81199999999998" type="curve" smooth="yes"/>
      <point x="269.46200000000005" y="145.81199999999998"/>
      <point x="295.315" y="150.704"/>
      <point x="311.384" y="157.86700000000002" type="curve"/>
      <point x="310.28200000000004" y="210.955" type="line"/>
      <point x="298.511" y="206.84500000000003"/>
      <point x="279.83599999999996" y="204.157"/>
      <point x="267.30400000000003" y="204.157" type="curve" smooth="yes"/>
      <point x="236.80100000000002" y="204.157"/>
      <point x="219.89000000000001" y="231.262"/>
      <point x="219.89000000000001" y="276.74" type="curve" smooth="yes"/>
      <point x="219.89000000000001" y="379.289"/>
      <point x="256.28400000000005" y="483.2269999999999"/>
      <point x="307.50499999999994" y="483.2269999999999" type="curve" smooth="yes"/>
      <point x="321.325" y="483.2269999999999"/>
      <point x="332.84099999999995" y="481.875"/>
      <point x="345.04800000000006" y="477.195" type="curve"/>
      <point x="363.08799999999997" y="537.0690000000001" type="line"/>
      <point x="350.15" y="542.695"/>
      <point x="332.36600000000004" y="546.603"/>
      <point x="308.516" y="546.603" type="curve" smooth="yes"/>
      <point x="228.735" y="546.603"/>
      <point x="157.858" y="429.484"/>
      <point x="157.858" y="276.216" type="curve" smooth="yes"/>
      <point x="157.858" y="188.989"/>
      <point x="190.683" y="145.81199999999998"/>
    </contour>
    <contour>
      <point x="225.133" y="25.363999999999997" type="curve" smooth="yes"/>
      <point x="128.347" y="25.363999999999997"/>
      <point x="77.30900000000001" y="87.728"/>
      <point x="77.30900000000001" y="214.302" type="curve" smooth="yes"/>
      <point x="77.30900000000001" y="428.27000000000004"/>
      <point x="149.66" y="675.811"/>
      <point x="304.553" y="675.811" type="curve" smooth="yes"/>
      <point x="400.4789999999999" y="675.811"/>
      <point x="451.775" y="613.361"/>
      <point x="451.775" y="486.959" type="curve" smooth="yes"/>
      <point x="451.775" y="273.163"/>
      <point x="379.85400000000004" y="25.363999999999997"/>
    </contour>
  </outline>
</glyph>
<glyph name="ordfeminine" format="2">
  <advance width="260.91200000000003"/>
  <unicode hex="00AA"/>
  <outline>
    <contour>
      <point x="31.980999999999998" y="271.178" type="line"/>
      <point x="231.58" y="271.178" type="line"/>
      <point x="239.22400000000002" y="319.499" type="line"/>
      <point x="39.625" y="319.499" type="line"/>
    </contour>
    <component base="a.superior" xOffset="9.596000000000002"/>
  </outline>
</glyph>
<glyph name="logicalnot" format="2">
  <advance width="384.78"/>
  <unicode hex="00AC"/>
  <outline>
    <contour>
      <point x="55.378" y="346.92800000000005" type="line"/>
      <point x="273.32" y="346.92800000000005" type="line"/>
      <point x="247.12800000000001" y="176.699" type="line"/>
      <point x="325.024" y="176.699" type="line"/>
      <point x="364.063" y="424.053" type="line"/>
      <point x="68.22500000000001" y="424.053" type="line"/>
    </contour>
  </outline>
</glyph>
<glyph name="registered" format="2">
  <advance width="466.34"/>
  <unicode hex="00AE"/>
  <outline>
    <contour>
      <point x="231.849" y="208.328" type="curve" smooth="yes"/>
      <point x="378.485" y="208.328"/>
      <point x="482.615" y="422.995"/>
      <point x="482.615" y="684.187" type="curve" smooth="yes"/>
      <point x="482.615" y="819.012"/>
      <point x="427.505" y="893.898"/>
      <point x="321.60400000000004" y="893.898" type="curve" smooth="yes"/>
      <point x="174.968" y="893.898"/>
      <point x="71.424" y="678.981"/>
      <point x="71.424" y="418.03899999999993" type="curve" smooth="yes"/>
      <point x="71.424" y="283.29999999999995"/>
      <point x="125.862" y="208.328"/>
    </contour>
    <contour>
      <point x="234.08499999999998" y="241.141" type="curve" smooth="yes"/>
      <point x="149.28900000000002" y="241.141"/>
      <point x="105.65899999999999" y="305.62"/>
      <point x="105.65899999999999" y="417.94" type="curve" smooth="yes"/>
      <point x="105.65899999999999" y="657.687"/>
      <point x="193.665" y="860.921"/>
      <point x="319.454" y="860.921" type="curve" smooth="yes"/>
      <point x="404.25000000000006" y="860.921"/>
      <point x="448.37999999999994" y="796.606"/>
      <point x="448.37999999999994" y="684.036" type="curve" smooth="yes"/>
      <point x="448.37999999999994" y="444.289"/>
      <point x="359.788" y="241.141"/>
    </contour>
    <contour>
      <point x="169.256" y="380.633" type="line"/>
      <point x="225.04200000000003" y="380.633" type="line"/>
      <point x="245.838" y="509.75800000000004" type="line"/>
      <point x="254.66199999999998" y="508.61800000000005"/>
      <point x="263.29200000000003" y="507.39200000000005"/>
      <point x="275.23199999999997" y="508.00500000000005" type="curve"/>
      <point x="286.60499999999996" y="514.754" type="line"/>
      <point x="346.237" y="523.667"/>
      <point x="383.385" y="576.888"/>
      <point x="383.385" y="650.86" type="curve" smooth="yes"/>
      <point x="383.385" y="714.715"/>
      <point x="355.14300000000003" y="742.5559999999999"/>
      <point x="300.403" y="742.5559999999999" type="curve" smooth="yes"/>
      <point x="273.526" y="742.5559999999999"/>
      <point x="251.488" y="740.419"/>
      <point x="225.633" y="736.333" type="curve"/>
    </contour>
    <contour>
      <point x="273.866" y="553.863" type="curve" smooth="yes"/>
      <point x="266.053" y="553.863"/>
      <point x="259.848" y="555.226"/>
      <point x="252.86100000000002" y="556.14" type="curve"/>
      <point x="273.837" y="689.086" type="line"/>
      <point x="284.109" y="690.777"/>
      <point x="289.65500000000003" y="691.777"/>
      <point x="299.293" y="691.777" type="curve" smooth="yes"/>
      <point x="319.64399999999995" y="691.777"/>
      <point x="328.34100000000007" y="677.7040000000001"/>
      <point x="328.34100000000007" y="650.21" type="curve" smooth="yes"/>
      <point x="328.34100000000007" y="593.926"/>
      <point x="307.30300000000005" y="553.863"/>
    </contour>
    <contour>
      <point x="334.95200000000006" y="376.55" type="curve" smooth="yes"/>
      <point x="339.387" y="376.55"/>
      <point x="348.579" y="378.074"/>
      <point x="353.23699999999997" y="380.235" type="curve"/>
      <point x="359.604" y="439.273" type="line"/>
      <point x="357.432" y="438.297"/>
      <point x="355.432" y="438.297"/>
      <point x="353.959" y="438.297" type="curve" smooth="yes"/>
      <point x="336.949" y="438.297"/>
      <point x="326.023" y="464.19100000000003"/>
      <point x="316.313" y="535.813" type="curve"/>
      <point x="267.70300000000003" y="522.6220000000001" type="line"/>
      <point x="286.61500000000007" y="391.96999999999997"/>
      <point x="304.52400000000006" y="376.55"/>
    </contour>
  </outline>
</glyph>
<glyph name="degree" format="2">
  <advance width="251.805"/>
  <unicode hex="00B0"/>
  <outline>
    <contour>
      <point x="154.67" y="453.694" type="curve" smooth="yes"/>
      <point x="234.174" y="453.694"/>
      <point x="277.02799999999996" y="542.287"/>
      <point x="277.02799999999996" y="621.351" type="curve" smooth="yes"/>
      <point x="277.02799999999996" y="677.1139999999999"/>
      <point x="253.03" y="720.174"/>
      <point x="195.912" y="720.174" type="curve" smooth="yes"/>
      <point x="115.869" y="720.174"/>
      <point x="73.253" y="630.5740000000001"/>
      <point x="73.253" y="551.624" type="curve" smooth="yes"/>
      <point x="73.253" y="495.43899999999996"/>
      <point x="98.58699999999999" y="453.694"/>
    </contour>
    <contour>
      <point x="164.54999999999998" y="520.736" type="curve" smooth="yes"/>
      <point x="141.891" y="520.736"/>
      <point x="131.601" y="539.144"/>
      <point x="131.601" y="565.606" type="curve" smooth="yes"/>
      <point x="131.601" y="607.745"/>
      <point x="151.131" y="651.5840000000001"/>
      <point x="185.344" y="651.5840000000001" type="curve" smooth="yes"/>
      <point x="208.518" y="651.5840000000001"/>
      <point x="218.694" y="632.136"/>
      <point x="218.694" y="605.9609999999999" type="curve" smooth="yes"/>
      <point x="218.694" y="563.9100000000001"/>
      <point x="198.67700000000002" y="520.736"/>
    </contour>
  </outline>
</glyph>
<glyph name="plusminus" format="2">
  <advance width="385.89199999999994"/>
  <unicode hex="00B1"/>
  <outline>
    <contour>
      <point x="306.171" y="42.137" type="line"/>
      <point x="319.01800000000003" y="123.64500000000001" type="line"/>
      <point x="206.94299999999998" y="123.64500000000001" type="line"/>
      <point x="231.458" y="276.984" type="line"/>
      <point x="343.02000000000004" y="276.984" type="line"/>
      <point x="355.867" y="358.49199999999996" type="line"/>
      <point x="244.30499999999998" y="358.49199999999996" type="line"/>
      <point x="269.39300000000003" y="504.3" type="line"/>
      <point x="193.045" y="504.3" type="line"/>
      <point x="168.38400000000001" y="358.49199999999996" type="line"/>
      <point x="55.925000000000004" y="358.49199999999996" type="line"/>
      <point x="43.078" y="276.984" type="line"/>
      <point x="155.11" y="276.984" type="line"/>
      <point x="130.509" y="123.64500000000001" type="line"/>
      <point x="19.076" y="123.64500000000001" type="line"/>
      <point x="6.229" y="42.137" type="line"/>
    </contour>
  </outline>
</glyph>
<glyph name="uni00B2" format="2">
  <advance width="251.95499999999998"/>
  <unicode hex="00B2"/>
  <outline>
    <contour>
      <point x="48.15" y="368.411" type="line"/>
      <point x="229.40200000000002" y="368.411" type="line"/>
      <point x="237.086" y="414.436" type="line"/>
      <point x="122.10199999999999" y="414.436" type="line"/>
      <point x="194.33100000000002" y="507.424"/>
      <point x="264.432" y="602.752"/>
      <point x="264.432" y="697.379" type="curve" smooth="yes"/>
      <point x="264.432" y="744.501"/>
      <point x="237.878" y="773.266"/>
      <point x="192.70600000000002" y="773.266" type="curve" smooth="yes"/>
      <point x="159.41" y="773.266"/>
      <point x="126.243" y="760.753"/>
      <point x="99.79" y="738.734" type="curve"/>
      <point x="113.332" y="686.642" type="line"/>
      <point x="134.717" y="703.396"/>
      <point x="150.077" y="709.861"/>
      <point x="168.94" y="709.861" type="curve" smooth="yes"/>
      <point x="190.051" y="709.861"/>
      <point x="200.358" y="693.887"/>
      <point x="200.358" y="669.0409999999999" type="curve" smooth="yes"/>
      <point x="199.745" y="598.1650000000001"/>
      <point x="119.372" y="483.875"/>
      <point x="53.377" y="408.899" type="curve"/>
    </contour>
  </outline>
</glyph>
<glyph name="uni00B3" format="2">
  <advance width="261.69250000000005"/>
  <unicode hex="00B3"/>
  <outline>
    <contour>
      <point x="43.769999999999996" y="393.9975" type="line"/>
      <point x="64.7175" y="374.71750000000003"/>
      <point x="91.5125" y="364.64500000000004"/>
      <point x="126.4" y="364.64500000000004" type="curve" smooth="yes"/>
      <point x="199.1875" y="364.64500000000004"/>
      <point x="254.8675" y="424.0275"/>
      <point x="254.8675" y="509.8725" type="curve" smooth="yes"/>
      <point x="254.8675" y="546.6775"/>
      <point x="239.4575" y="569.35"/>
      <point x="219.095" y="579.0725" type="curve"/>
      <point x="252.655" y="598.7675"/>
      <point x="277.915" y="640.275"/>
      <point x="277.915" y="693.635" type="curve" smooth="yes"/>
      <point x="277.915" y="745.6374999999999"/>
      <point x="244.13750000000002" y="774.4675"/>
      <point x="193.5625" y="774.4675" type="curve" smooth="yes"/>
      <point x="163.81" y="774.4675"/>
      <point x="132.7425" y="766.3125"/>
      <point x="106.91000000000001" y="748.4875000000001" type="curve"/>
      <point x="118.845" y="705.0274999999999" type="line"/>
      <point x="135.48250000000002" y="714.625"/>
      <point x="156.3475" y="719.34"/>
      <point x="173.7475" y="719.34" type="curve" smooth="yes"/>
      <point x="201.53500000000003" y="719.34"/>
      <point x="218.13" y="702.9225"/>
      <point x="218.13" y="672.4625" type="curve" smooth="yes"/>
      <point x="218.13" y="631.7700000000001"/>
      <point x="194.425" y="596.965"/>
      <point x="164.325" y="596.965" type="curve" smooth="yes"/>
      <point x="130.295" y="596.965" type="line"/>
      <point x="122.92" y="554.66" type="line"/>
      <point x="159.3075" y="554.66" type="line" smooth="yes"/>
      <point x="186.565" y="554.66"/>
      <point x="200.275" y="538.1674999999999"/>
      <point x="200.275" y="508.7025" type="curve" smooth="yes"/>
      <point x="200.275" y="463.76"/>
      <point x="176.0375" y="417.515"/>
      <point x="126.22" y="417.515" type="curve" smooth="yes"/>
      <point x="104.75750000000001" y="417.515"/>
      <point x="87.615" y="423.9375"/>
      <point x="72.0" y="438.07" type="curve"/>
    </contour>
  </outline>
</glyph>
<glyph name="uni00B5" format="2">
  <advance width="368.949"/>
  <unicode hex="00B5"/>
  <outline>
    <contour>
      <point x="-34.791" y="-210.0" type="line"/>
      <point x="49.614999999999995" y="-210.0" type="line"/>
      <point x="84.565" y="9.808000000000002" type="line"/>
      <point x="90.968" y="-3.6299999999999994"/>
      <point x="103.81" y="-10.0"/>
      <point x="121.428" y="-10.0" type="curve" smooth="yes"/>
      <point x="151.27599999999998" y="-10.0"/>
      <point x="181.41" y="2.2560000000000002"/>
      <point x="213.79000000000002" y="31.415000000000003" type="curve"/>
      <point x="220.661" y="6.6049999999999995"/>
      <point x="242.66899999999998" y="-10.0"/>
      <point x="272.76700000000005" y="-10.0" type="curve" smooth="yes"/>
      <point x="290.57099999999997" y="-10.0"/>
      <point x="315.909" y="-3.219"/>
      <point x="331.76400000000007" y="7.396" type="curve"/>
      <point x="337.456" y="77.51" type="line"/>
      <point x="328.782" y="74.101"/>
      <point x="319.851" y="72.39099999999999"/>
      <point x="314.95799999999997" y="72.39099999999999" type="curve" smooth="yes"/>
      <point x="300.93199999999996" y="72.39099999999999"/>
      <point x="296.092" y="80.797"/>
      <point x="296.092" y="94.73400000000001" type="curve" smooth="yes"/>
      <point x="296.092" y="103.282"/>
      <point x="298.118" y="119.205"/>
      <point x="365.396" y="538.6" type="curve"/>
      <point x="280.721" y="538.6" type="line"/>
      <point x="210.625" y="96.772" type="line"/>
      <point x="186.209" y="79.957"/>
      <point x="159.942" y="71.44200000000001"/>
      <point x="140.054" y="71.44200000000001" type="curve" smooth="yes"/>
      <point x="114.37700000000001" y="71.44200000000001"/>
      <point x="101.26700000000001" y="86.29499999999999"/>
      <point x="102.04100000000001" y="110.21000000000001" type="curve" smooth="yes"/>
      <point x="110.94200000000001" y="166.338"/>
      <point x="130.022" y="297.92400000000004"/>
      <point x="168.138" y="538.6" type="curve"/>
      <point x="83.133" y="538.6" type="line"/>
    </contour>
  </outline>
</glyph>
<glyph name="paragraph" format="2">
  <advance width="457.687"/>
  <unicode hex="00B6"/>
  <outline>
    <contour>
      <point x="270.828" y="-210.0" type="line"/>
      <point x="337.977" y="-210.0" type="line"/>
      <point x="489.1809999999999" y="740.0" type="line"/>
      <point x="422.032" y="740.0" type="line"/>
    </contour>
    <contour>
      <point x="188.415" y="272.05299999999994" type="line"/>
      <point x="149.02299999999997" y="281.654"/>
      <point x="125.843" y="326.38100000000003"/>
      <point x="125.843" y="394.721" type="curve" smooth="yes"/>
      <point x="125.843" y="522.333"/>
      <point x="177.493" y="654.379"/>
      <point x="277.949" y="658.402" type="curve"/>
      <point x="140.32299999999998" y="-210.0" type="line"/>
      <point x="207.472" y="-210.0" type="line"/>
      <point x="358.676" y="740.0" type="line"/>
      <point x="314.876" y="740.0" type="line" smooth="yes"/>
      <point x="145.29" y="740.0"/>
      <point x="50.238" y="574.867"/>
      <point x="50.238" y="389.219" type="curve" smooth="yes"/>
      <point x="50.238" y="294.73600000000005"/>
      <point x="88.268" y="227.703"/>
      <point x="169.01" y="208.65099999999998" type="curve"/>
    </contour>
  </outline>
</glyph>
<glyph name="periodcentered" format="2">
  <advance width="148.72500000000002"/>
  <unicode hex="00B7"/>
  <outline>
    <contour>
      <point x="28.7735" y="287.4395" type="curve" smooth="yes"/>
      <point x="27.6475" y="256.9545"/>
      <point x="38.687" y="244.0925"/>
      <point x="69.25649999999999" y="244.0925" type="curve" smooth="yes"/>
      <point x="113.913" y="244.0925"/>
      <point x="126.8455" y="283.3625"/>
      <point x="127.9995" y="321.928" type="curve" smooth="yes"/>
      <point x="129.12550000000002" y="351.3195"/>
      <point x="118.31949999999998" y="364.63000000000005"/>
      <point x="88.2875" y="364.63000000000005" type="curve" smooth="yes"/>
      <point x="44.3835" y="364.63000000000005"/>
      <point x="29.927500000000002" y="325.79"/>
    </contour>
  </outline>
</glyph>
<glyph name="uni00B9" format="2">
  <advance width="243.226"/>
  <unicode hex="00B9"/>
  <outline>
    <contour>
      <point x="41.90299999999999" y="370.0" type="line"/>
      <point x="235.814" y="370.0" type="line"/>
      <point x="244.393" y="419.79499999999996" type="line"/>
      <point x="180.53099999999998" y="419.79499999999996" type="line"/>
      <point x="238.53500000000003" y="768.8539999999999" type="line"/>
      <point x="207.511" y="768.8539999999999" type="line"/>
      <point x="93.803" y="711.982" type="line"/>
      <point x="98.967" y="657.706" type="line"/>
      <point x="168.202" y="696.5939999999999" type="line"/>
      <point x="122.552" y="419.79499999999996" type="line"/>
      <point x="50.164" y="419.79499999999996" type="line"/>
    </contour>
  </outline>
</glyph>
<glyph name="ordmasculine" format="2">
  <advance width="246.014"/>
  <unicode hex="00BA"/>
  <outline>
    <contour>
      <point x="31.895999999999997" y="271.178" type="line"/>
      <point x="211.517" y="271.178" type="line"/>
      <point x="218.64799999999997" y="319.499" type="line"/>
      <point x="39.027" y="319.499" type="line"/>
    </contour>
    <component base="o.superior" xOffset="13.129999999999999"/>
  </outline>
</glyph>
<glyph name="AE" format="2">
  <advance width="553.2665"/>
  <unicode hex="00C6"/>
  <anchor x="243.30040600000004" y="0.0" name="bottom"/>
  <anchor x="362.6515" y="700.0" name="top"/>
  <outline>
    <contour>
      <point x="212.9185" y="0.0" type="line"/>
      <point x="494.477" y="0.0" type="line"/>
      <point x="507.367" y="81.88749999999999" type="line"/>
      <point x="310.92099999999994" y="81.88749999999999" type="line"/>
      <point x="346.31049999999993" y="307.952" type="line"/>
      <point x="512.256" y="307.952" type="line"/>
      <point x="525.361" y="386.61449999999996" type="line"/>
      <point x="359.09299999999996" y="386.61449999999996" type="line"/>
      <point x="395.37" y="616.5" type="line"/>
      <point x="581.059" y="616.5" type="line"/>
      <point x="595.2574999999999" y="700.0" type="line"/>
      <point x="262.59950000000003" y="700.0" type="line"/>
      <point x="-39.696999999999996" y="0.0" type="line"/>
      <point x="52.229499999999994" y="0.0" type="line"/>
      <point x="154.79649999999998" y="234.42200000000003" type="line"/>
      <point x="249.373" y="234.42200000000003" type="line"/>
    </contour>
    <contour>
      <point x="184.14200000000002" y="315.01950000000005" type="line"/>
      <point x="310.9915" y="627.0869999999999" type="line"/>
      <point x="262.048" y="315.01950000000005" type="line"/>
    </contour>
  </outline>
</glyph>
<glyph name="multiply" format="2">
  <advance width="368.282"/>
  <unicode hex="00D7"/>
  <outline>
    <contour>
      <point x="72.78800000000001" y="110.2175" type="line"/>
      <point x="180.57750000000001" y="248.68299999999996" type="line"/>
      <point x="243.31900000000002" y="110.30149999999999" type="line"/>
      <point x="305.6465" y="166.45649999999998" type="line"/>
      <point x="240.98499999999999" y="309.5935" type="line"/>
      <point x="353.306" y="455.0015" type="line"/>
      <point x="307.06100000000004" y="510.74050000000005" type="line"/>
      <point x="199.2065" y="371.59299999999996" type="line"/>
      <point x="135.535" y="510.7405" type="line"/>
      <point x="72.88499999999999" y="455.0155" type="line"/>
      <point x="138.1355" y="310.70099999999996" type="line"/>
      <point x="26.2205" y="165.74149999999997" type="line"/>
    </contour>
  </outline>
</glyph>
<glyph name="Oslash" format="2">
  <advance width="425.51"/>
  <unicode hex="00D8"/>
  <anchor x="272.93" y="700.0" name="top"/>
  <outline>
    <contour>
      <point x="455.5" y="710.0" type="line"/>
      <point x="389.41999999999996" y="710.0" type="line"/>
      <point x="345.07500000000005" y="634.4200000000001" type="line"/>
      <point x="341.605" y="635.2800000000001" type="line"/>
      <point x="71.385" y="133.29999999999998" type="line"/>
      <point x="68.56" y="134.805" type="line"/>
      <point x="-11.33" y="-5.7" type="line"/>
      <point x="54.93" y="-5.7" type="line"/>
      <point x="96.87" y="66.18" type="line"/>
      <point x="100.34" y="65.32000000000001" type="line"/>
      <point x="372.89" y="571.5699999999999" type="line"/>
      <point x="375.71500000000003" y="570.0649999999999" type="line"/>
    </contour>
    <contour>
      <point x="178.01999999999998" y="-9.57" type="curve" smooth="yes"/>
      <point x="346.995" y="-9.57"/>
      <point x="421.515" y="294.465"/>
      <point x="421.515" y="509.24" type="curve" smooth="yes"/>
      <point x="421.515" y="647.105"/>
      <point x="371.79999999999995" y="709.57"/>
      <point x="266.54" y="709.57" type="curve" smooth="yes"/>
      <point x="100.79" y="709.57"/>
      <point x="23.045" y="405.75"/>
      <point x="23.045" y="191.19" type="curve" smooth="yes"/>
      <point x="23.045" y="52.68"/>
      <point x="72.75999999999999" y="-9.57"/>
    </contour>
    <contour>
      <point x="184.11" y="72.5" type="curve" smooth="yes"/>
      <point x="136.0" y="72.5"/>
      <point x="107.835" y="103.56"/>
      <point x="107.835" y="185.705" type="curve" smooth="yes"/>
      <point x="107.835" y="341.885"/>
      <point x="167.02" y="627.5"/>
      <point x="262.59999999999997" y="627.5" type="curve" smooth="yes"/>
      <point x="309.42" y="627.5"/>
      <point x="337.37" y="597.085"/>
      <point x="337.37" y="515.5849999999999" type="curve" smooth="yes"/>
      <point x="337.37" y="366.285"/>
      <point x="277.96999999999997" y="72.5"/>
    </contour>
  </outline>
</glyph>
<glyph name="Thorn" format="2">
  <advance width="384.58000000000004"/>
  <unicode hex="00DE"/>
  <outline>
    <contour>
      <point x="-2.4649999999999994" y="0.0" type="line"/>
      <point x="83.93750000000001" y="0.0" type="line"/>
      <point x="106.27" y="139.45499999999998" type="line"/>
      <point x="132.8925" y="137.0225"/>
      <point x="151.1825" y="136.915"/>
      <point x="176.3525" y="136.915" type="curve" smooth="yes"/>
      <point x="305.08750000000003" y="136.915"/>
      <point x="388.4825" y="263.26"/>
      <point x="388.4825" y="452.155" type="curve" smooth="yes"/>
      <point x="388.4825" y="559.8149999999999"/>
      <point x="344.3175" y="615.93"/>
      <point x="232.95499999999998" y="615.93" type="curve" smooth="yes"/>
      <point x="219.7575" y="615.93"/>
      <point x="203.66750000000002" y="615.2525"/>
      <point x="181.305" y="613.6850000000001" type="curve"/>
      <point x="195.0125" y="700.0" type="line"/>
      <point x="108.61" y="700.0" type="line"/>
    </contour>
    <contour>
      <point x="171.7725" y="216.51" type="curve" smooth="yes"/>
      <point x="148.885" y="216.51"/>
      <point x="137.00750000000002" y="217.08"/>
      <point x="120.1275" y="218.90249999999997" type="curve"/>
      <point x="168.6625" y="532.3375" type="line"/>
      <point x="193.96" y="535.3"/>
      <point x="207.905" y="536.3"/>
      <point x="223.075" y="536.3" type="curve" smooth="yes"/>
      <point x="278.46999999999997" y="536.3"/>
      <point x="303.0475" y="509.64250000000004"/>
      <point x="303.0475" y="443.93" type="curve" smooth="yes"/>
      <point x="303.0475" y="309.71999999999997"/>
      <point x="253.69749999999996" y="216.51"/>
    </contour>
  </outline>
</glyph>
<glyph name="germandbls" format="2">
  <advance width="455.8075"/>
  <unicode hex="00DF"/>
  <outline>
    <contour>
      <point x="13.805" y="-34.825" type="line" smooth="yes"/>
      <point x="3.3500000000000005" y="-99.48"/>
      <point x="-14.9275" y="-137.13250000000002"/>
      <point x="-56.515" y="-137.13250000000002" type="curve" smooth="yes"/>
      <point x="-68.6125" y="-137.13250000000002"/>
      <point x="-79.25" y="-135.77749999999997"/>
      <point x="-95.0675" y="-130.70749999999998" type="curve"/>
      <point x="-117.66499999999999" y="-207.44750000000002" type="line"/>
      <point x="-95.5325" y="-216.065"/>
      <point x="-72.2625" y="-220.0"/>
      <point x="-47.885" y="-220.0" type="curve" smooth="yes"/>
      <point x="37.902499999999996" y="-220.0"/>
      <point x="79.36999999999999" y="-159.475"/>
      <point x="98.1325" y="-40.3625" type="curve" smooth="yes"/>
      <point x="186.9625" y="523.6125" type="line" smooth="yes"/>
      <point x="201.4825" y="614.9475"/>
      <point x="238.6975" y="667.9325"/>
      <point x="305.5725" y="667.9325" type="curve" smooth="yes"/>
      <point x="344.93" y="667.9325"/>
      <point x="365.7775" y="653.6600000000001"/>
      <point x="365.7775" y="620.3124999999999" type="curve" smooth="yes"/>
      <point x="365.7775" y="586.57"/>
      <point x="351.7175" y="564.5974999999999"/>
      <point x="301.4725" y="529.5625000000001" type="curve" smooth="yes"/>
      <point x="241.465" y="488.205"/>
      <point x="209.40249999999997" y="446.11749999999995"/>
      <point x="209.40249999999997" y="373.04499999999996" type="curve" smooth="yes"/>
      <point x="209.40249999999997" y="310.565"/>
      <point x="242.965" y="271.5725"/>
      <point x="294.80500000000006" y="233.01" type="curve" smooth="yes"/>
      <point x="336.59999999999997" y="201.905"/>
      <point x="349.0575" y="182.5775"/>
      <point x="349.0575" y="153.27" type="curve" smooth="yes"/>
      <point x="349.0575" y="106.135"/>
      <point x="312.06" y="70.4875"/>
      <point x="259.4275" y="70.4875" type="curve" smooth="yes"/>
      <point x="227.05999999999997" y="70.4875"/>
      <point x="192.50750000000002" y="77.80749999999999"/>
      <point x="164.20999999999998" y="89.05499999999999" type="curve"/>
      <point x="142.2025" y="15.152500000000002" type="line"/>
      <point x="171.93249999999998" y="0.4"/>
      <point x="212.62999999999997" y="-10.0"/>
      <point x="258.92999999999995" y="-10.0" type="curve" smooth="yes"/>
      <point x="371.57" y="-10.0"/>
      <point x="436.03249999999997" y="56.68749999999999"/>
      <point x="436.03249999999997" y="162.9675" type="curve" smooth="yes"/>
      <point x="436.03249999999997" y="223.19500000000002"/>
      <point x="409.43" y="259.245"/>
      <point x="358.34250000000003" y="298.12500000000006" type="curve" smooth="yes"/>
      <point x="308.43" y="336.90000000000003"/>
      <point x="292.04499999999996" y="354.4725"/>
      <point x="292.04499999999996" y="385.11000000000007" type="curve" smooth="yes"/>
      <point x="292.04499999999996" y="419.09250000000003"/>
      <point x="309.2099999999999" y="441.415"/>
      <point x="365.7225" y="479.05" type="curve" smooth="yes"/>
      <point x="425.2975" y="519.285"/>
      <point x="454.44" y="557.2325000000001"/>
      <point x="454.44" y="628.9350000000001" type="curve" smooth="yes"/>
      <point x="454.44" y="708.155"/>
      <point x="400.79" y="750.0"/>
      <point x="312.16499999999996" y="750.0" type="curve" smooth="yes"/>
      <point x="187.56249999999997" y="750.0"/>
      <point x="125.8225" y="675.9075000000001"/>
      <point x="104.03500000000001" y="536.4025" type="curve" smooth="yes"/>
      <point x="98.69000000000001" y="501.52250000000004" type="line"/>
      <point x="43.1825" y="494.305" type="line"/>
      <point x="31.257499999999997" y="424.54499999999996" type="line"/>
      <point x="85.83999999999999" y="424.54499999999996" type="line"/>
    </contour>
  </outline>
</glyph>
<glyph name="ae" format="2">
  <advance width="561.895"/>
  <unicode hex="00E6"/>
  <anchor x="248.49" y="0.0" name="bottom"/>
  <anchor x="326.475" y="538.6" name="top"/>
  <outline>
    <contour>
      <point x="119.36999999999999" y="-10.0" type="curve" smooth="yes"/>
      <point x="150.94" y="-10.0"/>
      <point x="177.475" y="-0.004999999999999893"/>
      <point x="201.73999999999998" y="24.814999999999998" type="curve"/>
      <point x="196.45" y="-4.885" type="line"/>
      <point x="275.72499999999997" y="-4.885" type="line"/>
      <point x="288.085" y="72.885" type="line"/>
      <point x="305.37" y="23.009999999999998"/>
      <point x="347.01500000000004" y="-9.14"/>
      <point x="401.60999999999996" y="-9.14" type="curve" smooth="yes"/>
      <point x="440.26" y="-9.14"/>
      <point x="481.195" y="-0.14"/>
      <point x="513.0699999999999" y="19.735000000000003" type="curve"/>
      <point x="500.90999999999997" y="95.72" type="line"/>
      <point x="466.58" y="79.93"/>
      <point x="436.86999999999995" y="72.395"/>
      <point x="405.865" y="72.395" type="curve" smooth="yes"/>
      <point x="351.72499999999997" y="72.395"/>
      <point x="315.95" y="120.06500000000001"/>
      <point x="315.95" y="196.34" type="curve" smooth="yes"/>
      <point x="315.95" y="343.61499999999995"/>
      <point x="366.47999999999996" y="472.01"/>
      <point x="441.11" y="472.01" type="curve" smooth="yes"/>
      <point x="471.02" y="472.01"/>
      <point x="484.75" y="457.65500000000003"/>
      <point x="484.75" y="425.47" type="curve" smooth="yes"/>
      <point x="484.75" y="373.875"/>
      <point x="445.55" y="328.295"/>
      <point x="383.22" y="301.82" type="curve" smooth="yes"/>
      <point x="356.64" y="290.19"/>
      <point x="327.34999999999997" y="283.375"/>
      <point x="296.01500000000004" y="281.99" type="curve"/>
      <point x="284.875" y="217.335" type="line"/>
      <point x="322.455" y="218.255"/>
      <point x="363.56" y="224.965"/>
      <point x="400.745" y="238.96" type="curve" smooth="yes"/>
      <point x="500.555" y="274.205"/>
      <point x="566.1750000000001" y="349.62"/>
      <point x="566.1750000000001" y="441.445" type="curve" smooth="yes"/>
      <point x="566.1750000000001" y="506.74"/>
      <point x="532.985" y="548.6"/>
      <point x="470.845" y="548.6" type="curve" smooth="yes"/>
      <point x="422.38" y="548.6"/>
      <point x="380.125" y="522.25"/>
      <point x="348.78" y="473.16" type="curve"/>
      <point x="361.04499999999996" y="547.6" type="line"/>
      <point x="284.025" y="547.6" type="line"/>
      <point x="280.88" y="528.73" type="line"/>
      <point x="264.81" y="543.17"/>
      <point x="243.38" y="548.6"/>
      <point x="221.295" y="548.6" type="curve" smooth="yes"/>
      <point x="100.985" y="548.6"/>
      <point x="14.945" y="384.90500000000003"/>
      <point x="14.945" y="150.06" type="curve" smooth="yes"/>
      <point x="14.945" y="47.19499999999999"/>
      <point x="53.355" y="-10.0"/>
    </contour>
    <contour>
      <point x="155.24" y="63.04" type="curve" smooth="yes"/>
      <point x="123.9" y="63.04"/>
      <point x="103.82000000000001" y="94.875"/>
      <point x="103.82000000000001" y="153.315" type="curve" smooth="yes"/>
      <point x="103.82000000000001" y="314.22"/>
      <point x="160.36999999999998" y="471.4"/>
      <point x="231.54999999999998" y="471.4" type="curve" smooth="yes"/>
      <point x="246.07" y="471.4"/>
      <point x="259.44" y="468.585"/>
      <point x="270.14" y="459.28000000000003" type="curve"/>
      <point x="211.19" y="82.08" type="line"/>
      <point x="195.46" y="70.52499999999999"/>
      <point x="174.745" y="63.04"/>
    </contour>
  </outline>
</glyph>
<glyph name="eth" format="2">
  <advance width="363.80499999999995"/>
  <unicode hex="00F0"/>
  <outline>
    <contour>
      <point x="292.045" y="439.615" type="curve"/>
      <point x="307.115" y="507.30999999999995" type="line"/>
      <point x="284.175" y="526.12"/>
      <point x="250.09999999999997" y="534.86"/>
      <point x="217.935" y="534.86" type="curve" smooth="yes"/>
      <point x="76.69" y="534.86"/>
      <point x="12.905" y="325.06"/>
      <point x="12.905" y="151.625" type="curve" smooth="yes"/>
      <point x="12.905" y="38.665"/>
      <point x="62.39" y="-9.785"/>
      <point x="144.26500000000001" y="-9.785" type="curve" smooth="yes"/>
      <point x="257.68" y="-9.785"/>
      <point x="310.565" y="69.895"/>
      <point x="349.57" y="316.47" type="curve" smooth="yes"/>
      <point x="361.38000000000005" y="392.185"/>
      <point x="368.84" y="453.64500000000004"/>
      <point x="368.84" y="503.975" type="curve" smooth="yes"/>
      <point x="368.84" y="652.2099999999999"/>
      <point x="305.13" y="729.5649999999999"/>
      <point x="175.79999999999998" y="729.5649999999999" type="curve" smooth="yes"/>
      <point x="144.19" y="729.5649999999999"/>
      <point x="113.10000000000001" y="722.335"/>
      <point x="84.735" y="715.26" type="curve"/>
      <point x="88.80999999999999" y="649.42" type="line"/>
      <point x="110.44" y="653.845"/>
      <point x="131.80499999999998" y="658.35"/>
      <point x="159.855" y="658.35" type="curve" smooth="yes"/>
      <point x="245.91000000000003" y="658.35"/>
      <point x="283.905" y="619.74"/>
      <point x="283.905" y="519.28" type="curve" smooth="yes"/>
      <point x="283.905" y="473.46"/>
      <point x="279.345" y="412.87"/>
      <point x="266.605" y="334.85499999999996" type="curve" smooth="yes"/>
      <point x="230.785" y="112.91499999999999"/>
      <point x="200.20999999999998" y="58.419999999999995"/>
      <point x="151.285" y="58.419999999999995" type="curve" smooth="yes"/>
      <point x="115.95500000000001" y="58.419999999999995"/>
      <point x="95.225" y="82.88000000000001"/>
      <point x="95.225" y="136.76" type="curve" smooth="yes"/>
      <point x="95.225" y="259.08"/>
      <point x="140.575" y="465.185"/>
      <point x="229.51" y="465.185" type="curve" smooth="yes"/>
      <point x="250.47500000000002" y="465.185"/>
      <point x="273.52" y="458.83500000000004"/>
    </contour>
    <contour>
      <point x="159.07000000000002" y="559.575" type="line"/>
      <point x="288.285" y="642.505" type="line"/>
      <point x="286.885" y="646.375" type="line"/>
      <point x="420.31" y="732.195" type="line"/>
      <point x="342.79499999999996" y="732.195" type="line"/>
      <point x="254.16" y="675.495" type="line"/>
      <point x="256.815" y="672.27" type="line"/>
      <point x="81.88" y="559.575" type="line"/>
    </contour>
  </outline>
</glyph>
<glyph name="divide" format="2">
  <advance width="386.067"/>
  <unicode hex="00F7"/>
  <outline>
    <contour>
      <point x="122.95100000000001" y="115.311" type="curve" smooth="yes"/>
      <point x="121.95100000000001" y="92.462"/>
      <point x="133.09799999999998" y="81.876"/>
      <point x="161.28400000000002" y="81.876" type="curve" smooth="yes"/>
      <point x="197.092" y="81.876"/>
      <point x="213.01600000000002" y="98.786"/>
      <point x="215.156" y="144.36100000000002" type="curve" smooth="yes"/>
      <point x="216.156" y="167.98100000000002"/>
      <point x="203.897" y="177.796"/>
      <point x="177.342" y="177.796" type="curve" smooth="yes"/>
      <point x="140.28099999999998" y="177.796"/>
      <point x="125.09100000000001" y="154.651"/>
    </contour>
    <contour>
      <point x="179.87" y="468.039" type="curve" smooth="yes"/>
      <point x="178.87" y="445.405"/>
      <point x="189.80200000000002" y="435.2490000000001"/>
      <point x="217.55800000000002" y="435.2490000000001" type="curve" smooth="yes"/>
      <point x="253.36599999999999" y="435.2490000000001"/>
      <point x="269.71999999999997" y="452.374"/>
      <point x="271.85999999999996" y="497.089" type="curve" smooth="yes"/>
      <point x="272.85999999999996" y="520.924"/>
      <point x="260.81600000000003" y="530.739"/>
      <point x="234.04600000000002" y="530.739" type="curve" smooth="yes"/>
      <point x="195.48" y="530.739"/>
      <point x="182.01" y="505.874"/>
    </contour>
    <contour>
      <point x="41.841" y="265.455" type="line"/>
      <point x="341.91200000000003" y="265.455" type="line"/>
      <point x="355.031" y="347.80499999999995" type="line"/>
      <point x="54.745000000000005" y="347.80499999999995" type="line"/>
    </contour>
  </outline>
</glyph>
<glyph name="oslash" format="2">
  <advance width="359.505"/>
  <unicode hex="00F8"/>
  <anchor x="218.865" y="538.6" name="top"/>
  <outline>
    <contour>
      <point x="324.09999999999997" y="548.71" type="line"/>
      <point x="279.73" y="477.65" type="line"/>
      <point x="276.26" y="478.72499999999997" type="line"/>
      <point x="61.985" y="121.55" type="line"/>
      <point x="59.589999999999996" y="123.485" type="line"/>
      <point x="-23.48" y="-10.0" type="line"/>
      <point x="37.155" y="-10.0" type="line"/>
      <point x="84.865" y="65.7" type="line"/>
      <point x="88.55" y="64.625" type="line"/>
      <point x="301.425" y="419.105" type="line"/>
      <point x="303.605" y="417.17" type="line"/>
      <point x="384.73499999999996" y="548.71" type="line"/>
    </contour>
    <contour>
      <point x="150.91" y="-10.0" type="curve" smooth="yes"/>
      <point x="293.34000000000003" y="-10.0"/>
      <point x="344.06" y="234.18000000000004"/>
      <point x="344.06" y="399.555" type="curve" smooth="yes"/>
      <point x="344.06" y="507.23499999999996"/>
      <point x="301.745" y="548.71"/>
      <point x="210.785" y="548.71" type="curve" smooth="yes"/>
      <point x="67.17" y="548.71"/>
      <point x="16.775000000000002" y="301.31"/>
      <point x="16.775000000000002" y="139.29999999999998" type="curve" smooth="yes"/>
      <point x="16.775000000000002" y="31.98"/>
      <point x="58.769999999999996" y="-10.0"/>
    </contour>
    <contour>
      <point x="151.625" y="66.16000000000001" type="curve" smooth="yes"/>
      <point x="114.125" y="65.94500000000001"/>
      <point x="96.08500000000001" y="85.615"/>
      <point x="95.87" y="139.01500000000001" type="curve" smooth="yes"/>
      <point x="95.44000000000001" y="219.465"/>
      <point x="131.075" y="472.12"/>
      <point x="209.89000000000001" y="472.55" type="curve" smooth="yes"/>
      <point x="246.82" y="472.76500000000004"/>
      <point x="264.965" y="452.275"/>
      <point x="265.17999999999995" y="399.805" type="curve" smooth="yes"/>
      <point x="265.60999999999996" y="314.88"/>
      <point x="229.47" y="66.59"/>
    </contour>
  </outline>
</glyph>
<glyph name="thorn" format="2">
  <advance width="366.7925"/>
  <unicode hex="00FE"/>
  <outline>
    <contour>
      <point x="-34.931" y="-210.0" type="line"/>
      <point x="49.8835" y="-210.0" type="line"/>
      <point x="83.05449999999998" y="-1.702" type="line"/>
      <point x="98.90449999999998" y="-6.026"/>
      <point x="117.46149999999999" y="-9.2475"/>
      <point x="141.72549999999998" y="-9.2475" type="curve" smooth="yes"/>
      <point x="276.50500000000005" y="-9.2475"/>
      <point x="351.40700000000004" y="181.13"/>
      <point x="351.40700000000004" y="381.5435" type="curve" smooth="yes"/>
      <point x="351.40700000000004" y="497.932"/>
      <point x="322.82399999999996" y="548.6"/>
      <point x="255.221" y="548.6" type="curve" smooth="yes"/>
      <point x="215.8735" y="548.6"/>
      <point x="189.064" y="531.9335"/>
      <point x="164.85750000000002" y="514.6875000000001" type="curve"/>
      <point x="200.61149999999998" y="740.0" type="line"/>
      <point x="115.06900000000002" y="740.0" type="line"/>
    </contour>
    <contour>
      <point x="132.80149999999998" y="66.967" type="curve" smooth="yes"/>
      <point x="119.017" y="66.967"/>
      <point x="106.05" y="69.17699999999998"/>
      <point x="95.29949999999998" y="73.63449999999999" type="curve"/>
      <point x="154.0605" y="444.705" type="line"/>
      <point x="170.8025" y="455.87549999999993"/>
      <point x="194.2055" y="464.53799999999995"/>
      <point x="212.40850000000003" y="464.53799999999995" type="curve" smooth="yes"/>
      <point x="246.505" y="464.53799999999995"/>
      <point x="263.71450000000004" y="436.15000000000003"/>
      <point x="263.71450000000004" y="369.45650000000006" type="curve" smooth="yes"/>
      <point x="263.71450000000004" y="222.09"/>
      <point x="211.26000000000002" y="66.967"/>
    </contour>
  </outline>
</glyph>
<glyph name="Dcroat" format="2">
  <advance width="421.918"/>
  <unicode hex="0110"/>
  <outline>
    <contour>
      <point x="14.947" y="316.11349999999993" type="line"/>
      <point x="223.815" y="316.11349999999993" type="line"/>
      <point x="237.56500000000003" y="396.9825" type="line"/>
      <point x="28.724999999999998" y="396.9825" type="line"/>
    </contour>
    <component base="D" xOffset="8.729500000000002"/>
  </outline>
</glyph>
<glyph name="dcroat" format="2">
  <advance width="373.83549999999997"/>
  <unicode hex="0111"/>
  <outline>
    <contour>
      <point x="189.063" y="615.9055000000001" type="line"/>
      <point x="428.54499999999996" y="615.9055000000001" type="line"/>
      <point x="437.135" y="667.3900000000001" type="line"/>
      <point x="197.97550000000004" y="667.3900000000001" type="line"/>
    </contour>
    <component base="d"/>
  </outline>
</glyph>
<glyph name="Hbar" format="2">
  <advance width="424.614"/>
  <unicode hex="0126"/>
  <outline>
    <contour>
      <point x="39.739" y="501.241" type="line"/>
      <point x="456.832" y="501.241" type="line"/>
      <point x="468.478" y="574.318" type="line"/>
      <point x="51.385" y="574.318" type="line"/>
    </contour>
    <component base="H" xOffset="2.5479999999999996"/>
  </outline>
</glyph>
<glyph name="hbar" format="2">
  <advance width="372.685"/>
  <unicode hex="0127"/>
  <outline>
    <contour>
      <point x="54.336" y="615.9055000000001" type="line"/>
      <point x="267.9815" y="615.9055000000001" type="line"/>
      <point x="276.35650000000004" y="667.3900000000001" type="line"/>
      <point x="62.711" y="667.3900000000001" type="line"/>
    </contour>
    <component base="h" xOffset="2.795"/>
  </outline>
</glyph>
<glyph name="Idotaccent" format="2">
  <advance width="171.09099999999998"/>
  <unicode hex="0130"/>
  <outline>
    <contour>
      <point x="183.083" y="885.2800000000001" type="curve" smooth="yes"/>
      <point x="138.739" y="885.2800000000001"/>
      <point x="123.79100000000001" y="854.24"/>
      <point x="122.19500000000001" y="810.0450000000001" type="curve" smooth="yes"/>
      <point x="121.682" y="782.537"/>
      <point x="136.586" y="770.913"/>
      <point x="163.51299999999998" y="770.913" type="curve" smooth="yes"/>
      <point x="207.325" y="770.913"/>
      <point x="222.819" y="802.1249999999999"/>
      <point x="224.47199999999998" y="846.6350000000001" type="curve" smooth="yes"/>
      <point x="224.985" y="874.043"/>
      <point x="209.86499999999998" y="885.2800000000001"/>
    </contour>
    <component base="I"/>
  </outline>
</glyph>
<glyph name="dotlessi" format="2">
  <advance width="168.261"/>
  <unicode hex="0131"/>
  <anchor x="40.058092" y="0.0" name="bottom"/>
  <anchor x="83.235" y="0.0" name="ogonek"/>
  <anchor x="125.409908" y="538.6" name="top"/>
  <outline>
    <contour>
      <point x="83.235" y="0.0" type="line"/>
      <point x="168.482" y="538.6" type="line"/>
      <point x="82.78900000000002" y="538.6" type="line"/>
      <point x="-2.030999999999999" y="0.043000000000000003" type="line"/>
    </contour>
  </outline>
</glyph>
<glyph name="Ldot" format="2">
  <advance width="310.65200000000004"/>
  <unicode hex="013F"/>
  <outline>
    <contour>
      <point x="217.861226" y="365.526294" type="curve" smooth="yes"/>
      <point x="216.778226" y="341.794874"/>
      <point x="225.043194" y="332.245293"/>
      <point x="248.837485" y="332.245293" type="curve" smooth="yes"/>
      <point x="282.28835699999996" y="332.245293"/>
      <point x="292.016196" y="359.083133"/>
      <point x="293.213196" y="389.238908" type="curve" smooth="yes"/>
      <point x="294.29619600000007" y="412.027457"/>
      <point x="286.54422800000003" y="422.090038"/>
      <point x="263.050679" y="422.090038" type="curve" smooth="yes"/>
      <point x="229.900936" y="422.090038"/>
      <point x="219.05822600000002" y="395.510069"/>
    </contour>
    <component base="L"/>
  </outline>
</glyph>
<glyph name="ldot" format="2">
  <advance width="249.544"/>
  <unicode hex="0140"/>
  <outline>
    <contour>
      <point x="190.95447" y="356.136815" type="curve" smooth="yes"/>
      <point x="189.87147000000002" y="333.432966"/>
      <point x="197.219592" y="324.45601600000003"/>
      <point x="219.048783" y="324.45601600000003" type="curve" smooth="yes"/>
      <point x="250.15520899999999" y="324.45601600000003"/>
      <point x="258.476905" y="350.395973"/>
      <point x="259.673905" y="379.07633200000004" type="curve" smooth="yes"/>
      <point x="260.756905" y="400.81654100000003"/>
      <point x="253.92178299999998" y="410.306491"/>
      <point x="232.36955500000002" y="410.306491" type="curve" smooth="yes"/>
      <point x="201.539662" y="410.306491"/>
      <point x="192.15147000000002" y="384.700773"/>
    </contour>
    <component base="l"/>
  </outline>
</glyph>
<glyph name="Lslash" format="2">
  <advance width="323.147"/>
  <unicode hex="0141"/>
  <outline>
    <contour>
      <point x="9.46" y="0.0" type="line"/>
      <point x="269.682" y="0.0" type="line"/>
      <point x="282.78700000000003" y="81.651" type="line"/>
      <point x="108.516" y="81.651" type="line"/>
      <point x="142.55200000000002" y="295.837" type="line"/>
      <point x="269.564" y="383.57899999999995" type="line"/>
      <point x="284.658" y="473.765" type="line"/>
      <point x="156.87199999999999" y="385.63599999999997" type="line"/>
      <point x="207.056" y="700.0" type="line"/>
      <point x="121.019" y="700.0" type="line"/>
      <point x="63.162000000000006" y="336.981" type="line"/>
      <point x="14.835999999999999" y="303.73600000000005" type="line"/>
      <point x="0.476" y="213.25199999999998" type="line"/>
      <point x="48.329" y="246.454" type="line"/>
    </contour>
  </outline>
</glyph>
<glyph name="lslash" format="2">
  <advance width="197.21"/>
  <unicode hex="0142"/>
  <outline>
    <contour>
      <point x="-2.321" y="202.457" type="line"/>
      <point x="208.865" y="372.313" type="line"/>
      <point x="221.723" y="454.32099999999997" type="line"/>
      <point x="10.107000000000001" y="284.46500000000003" type="line"/>
    </contour>
    <component base="l" xOffset="7.739999999999999"/>
  </outline>
</glyph>
<glyph name="Eng" format="2">
  <advance width="419.86749999999995"/>
  <unicode hex="014A"/>
  <outline>
    <contour>
      <point x="-2.5724999999999993" y="0.0" type="line"/>
      <point x="77.73750000000001" y="0.0" type="line"/>
      <point x="156.085" y="495.17499999999995" type="line"/>
      <point x="250.36500000000004" y="-1.8700000000000003" type="line"/>
      <point x="241.8775" y="-61.265"/>
      <point x="213.47" y="-80.84000000000002"/>
      <point x="173.22" y="-80.84000000000002" type="curve" smooth="yes"/>
      <point x="159.7725" y="-81.27000000000001"/>
      <point x="145.75500000000002" y="-79.7775"/>
      <point x="130.80249999999998" y="-75.89" type="curve"/>
      <point x="115.16" y="-166.195" type="line"/>
      <point x="133.5075" y="-170.9425"/>
      <point x="153.0075" y="-172.6175"/>
      <point x="170.4675" y="-172.6175" type="curve" smooth="yes"/>
      <point x="266.9375" y="-170.6825"/>
      <point x="316.815" y="-113.14000000000001"/>
      <point x="333.8975" y="-4.455" type="curve" smooth="yes"/>
      <point x="445.9025" y="700.0" type="line"/>
      <point x="365.6275" y="700.0" type="line"/>
      <point x="285.4475" y="194.6975" type="line"/>
      <point x="195.17750000000004" y="700.57" type="line"/>
      <point x="108.215" y="700.57" type="line"/>
    </contour>
  </outline>
</glyph>
<glyph name="eng" format="2">
  <advance width="366.58599999999996"/>
  <unicode hex="014B"/>
  <outline>
    <contour>
      <point x="274.86100000000005" y="-30.233999999999998" type="curve" smooth="yes"/>
      <point x="319.06800000000004" y="254.25000000000003"/>
      <point x="353.931" y="454.015"/>
      <point x="353.931" y="469.228" type="curve" smooth="yes"/>
      <point x="353.931" y="517.76"/>
      <point x="325.233" y="548.6"/>
      <point x="271.298" y="548.6" type="curve" smooth="yes"/>
      <point x="233.965" y="548.6"/>
      <point x="195.10700000000003" y="535.364"/>
      <point x="155.768" y="508.69200000000006" type="curve"/>
      <point x="160.52700000000002" y="538.6" type="line"/>
      <point x="82.74600000000001" y="538.6" type="line"/>
      <point x="-2.4869999999999988" y="0.0" type="line"/>
      <point x="82.47800000000001" y="0.0" type="line"/>
      <point x="153.499" y="442.565" type="line"/>
      <point x="175.51" y="456.459"/>
      <point x="201.249" y="466.341"/>
      <point x="222.21699999999998" y="466.341" type="curve" smooth="yes"/>
      <point x="250.842" y="466.341"/>
      <point x="263.652" y="453.21799999999996"/>
      <point x="263.308" y="428.96799999999996" type="curve" smooth="yes"/>
      <point x="262.792" y="420.106"/>
      <point x="257.51199999999994" y="386.94399999999996"/>
      <point x="191.458" y="-29.405" type="curve" smooth="yes"/>
      <point x="182.31400000000002" y="-86.936"/>
      <point x="165.634" y="-126.114"/>
      <point x="126.68400000000001" y="-126.114" type="curve" smooth="yes"/>
      <point x="120.097" y="-126.114"/>
      <point x="113.48900000000002" y="-125.487"/>
      <point x="105.50099999999999" y="-123.05999999999999" type="curve"/>
      <point x="85.322" y="-215.138" type="line"/>
      <point x="98.54400000000001" y="-218.368"/>
      <point x="115.569" y="-220.34199999999998"/>
      <point x="134.561" y="-220.34199999999998" type="curve" smooth="yes"/>
      <point x="203.22" y="-220.34199999999998"/>
      <point x="255.30299999999997" y="-169.90500000000003"/>
    </contour>
  </outline>
</glyph>
<glyph name="OE" format="2">
  <advance width="582.2574999999999"/>
  <unicode hex="0152"/>
  <outline>
    <contour>
      <point x="523.468" y="0.0" type="line"/>
      <point x="536.573" y="81.88749999999999" type="line"/>
      <point x="339.6035" y="81.88749999999999" type="line"/>
      <point x="376.628" y="318.16" type="line"/>
      <point x="544.1155000000001" y="318.16" type="line"/>
      <point x="557.4354999999999" y="396.8225" type="line"/>
      <point x="389.733" y="396.8225" type="line"/>
      <point x="424.37500000000006" y="616.4999999999999" type="line"/>
      <point x="610.0500000000001" y="616.4999999999999" type="line"/>
      <point x="624.2484999999999" y="700.0" type="line"/>
      <point x="434.27" y="700.0" type="line"/>
      <point x="397.5335" y="704.2385"/>
      <point x="349.35600000000005" y="710.0"/>
      <point x="308.9895" y="710.0" type="curve" smooth="yes"/>
      <point x="113.28900000000002" y="710.0"/>
      <point x="25.549499999999995" y="452.972"/>
      <point x="25.549499999999995" y="188.8995" type="curve" smooth="yes"/>
      <point x="25.549499999999995" y="50.699000000000005"/>
      <point x="77.15300000000002" y="-10.0"/>
      <point x="203.6855" y="-10.0" type="curve" smooth="yes"/>
      <point x="233.099" y="-10.0"/>
      <point x="271.54049999999995" y="-6.7665"/>
      <point x="319.24050000000005" y="0.0" type="curve"/>
    </contour>
    <contour>
      <point x="252.00000000000006" y="75.35900000000001" type="line"/>
      <point x="234.56700000000004" y="71.7285"/>
      <point x="218.95100000000002" y="70.47149999999999"/>
      <point x="202.8675" y="70.47149999999999" type="curve" smooth="yes"/>
      <point x="135.45000000000002" y="70.47149999999999"/>
      <point x="111.64350000000002" y="114.38"/>
      <point x="111.64350000000002" y="197.456" type="curve" smooth="yes"/>
      <point x="111.64350000000002" y="415.67"/>
      <point x="187.2745" y="627.2895"/>
      <point x="291.55550000000005" y="627.2895" type="curve" smooth="yes"/>
      <point x="307.765" y="627.2895"/>
      <point x="329.30949999999996" y="624.0235"/>
      <point x="338.9585" y="622.6265000000001" type="curve"/>
    </contour>
  </outline>
</glyph>
<glyph name="oe" format="2">
  <advance width="574.41"/>
  <unicode hex="0153"/>
  <outline>
    <contour>
      <point x="148.29" y="-10.0" type="curve" smooth="yes"/>
      <point x="204.38500000000002" y="-10.0"/>
      <point x="246.7" y="35.095000000000006"/>
      <point x="269.51" y="87.375" type="curve"/>
      <point x="291.14" y="25.39"/>
      <point x="333.35499999999996" y="-10.0"/>
      <point x="398.325" y="-10.0" type="curve" smooth="yes"/>
      <point x="441.49" y="-10.0"/>
      <point x="489.305" y="-0.14"/>
      <point x="525.48" y="19.735000000000003" type="curve"/>
      <point x="509.44999999999993" y="98.085" type="line"/>
      <point x="472.96999999999997" y="81.865"/>
      <point x="438.53000000000003" y="73.9"/>
      <point x="410.75" y="73.9" type="curve" smooth="yes"/>
      <point x="358.36499999999995" y="73.9"/>
      <point x="329.21999999999997" y="110.895"/>
      <point x="329.21999999999997" y="195.98499999999999" type="curve" smooth="yes"/>
      <point x="329.21999999999997" y="359.635"/>
      <point x="384.8" y="472.01"/>
      <point x="453.52" y="472.01" type="curve" smooth="yes"/>
      <point x="483.14500000000004" y="472.01"/>
      <point x="497.80499999999995" y="457.69"/>
      <point x="497.80499999999995" y="425.33000000000004" type="curve" smooth="yes"/>
      <point x="497.80499999999995" y="373.125"/>
      <point x="458.57" y="331.41499999999996"/>
      <point x="395.63" y="304.69" type="curve" smooth="yes"/>
      <point x="370.94" y="294.2"/>
      <point x="342.5" y="287.78000000000003"/>
      <point x="314.165" y="286.395" type="curve"/>
      <point x="301.275" y="217.405" type="line"/>
      <point x="338.315" y="218.60999999999999"/>
      <point x="377.425" y="226.0"/>
      <point x="412.94" y="238.605" type="curve" smooth="yes"/>
      <point x="512.75" y="273.56"/>
      <point x="578.5849999999999" y="349.655"/>
      <point x="578.5849999999999" y="441.445" type="curve" smooth="yes"/>
      <point x="578.5849999999999" y="506.74"/>
      <point x="539.375" y="548.6"/>
      <point x="465.625" y="548.6" type="curve" smooth="yes"/>
      <point x="405.325" y="548.6"/>
      <point x="358.25" y="514.66"/>
      <point x="325.18" y="466.08" type="curve"/>
      <point x="312.455" y="520.65"/>
      <point x="276.235" y="548.71"/>
      <point x="208.97" y="548.71" type="curve" smooth="yes"/>
      <point x="66.02" y="548.71"/>
      <point x="14.880000000000003" y="301.095"/>
      <point x="14.880000000000003" y="140.375" type="curve" smooth="yes"/>
      <point x="14.880000000000003" y="33.27"/>
      <point x="55.8" y="-10.0"/>
    </contour>
    <contour>
      <point x="150.51" y="68.74000000000001" type="curve" smooth="yes"/>
      <point x="116.96" y="68.74000000000001"/>
      <point x="98.705" y="84.10999999999999"/>
      <point x="98.49000000000001" y="138.155" type="curve" smooth="yes"/>
      <point x="98.06" y="220.325"/>
      <point x="135.62" y="469.755"/>
      <point x="207.215" y="469.96999999999997" type="curve" smooth="yes"/>
      <point x="240.195" y="469.96999999999997"/>
      <point x="258.77" y="454.425"/>
      <point x="258.98499999999996" y="400.665" type="curve" smooth="yes"/>
      <point x="259.41499999999996" y="317.46"/>
      <point x="221.135" y="68.955"/>
    </contour>
  </outline>
</glyph>
